  0
SECTION
  2
HEADER
  9
$ACADVER
  1
AC1015
  9
$ACADMAINTVER
 70
     6
  9
$DWGCODEPAGE
  3
DOS932
  9
$INSBASE
 10
0.0
 20
0.0
 30
0.0
  9
$EXTMIN
 10
0.0
 20
0.0
 30
0.0
  9
$EXTMAX
 10
841.0
 20
594.0
 30
0.0
  9
$LIMMIN
 10
0.0
 20
0.0
  9
$LIMMAX
 10
841.0
 20
594.0
  9
$ORTHOMODE
 70
     0
  9
$REGENMODE
 70
     1
  9
$FILLMODE
 70
     1
  9
$QTEXTMODE
 70
     0
  9
$MIRRTEXT
 70
     1
  9
$LTSCALE
 40
1.0
  9
$ATTMODE
 70
     1
  9
$TEXTSIZE
 40
4.2333333333
  9
$TRACEWID
 40
1.0
  9
$TEXTSTYLE
  7
Standard
  9
$CLAYER
  8
0
  9
$CELTYPE
  6
ByLayer
  9
$CECOLOR
 62
   256
  9
$CELTSCALE
 40
1.0
  9
$DISPSILH
 70
     0
  9
$DIMSCALE
 40
1.0
  9
$DIMASZ
 40
3.0
  9
$DIMEXO
 40
1.0
  9
$DIMDLI
 40
3.75
  9
$DIMRND
 40
0.0
  9
$DIMDLE
 40
0.0
  9
$DIMEXE
 40
1.0
  9
$DIMTP
 40
0.0
  9
$DIMTM
 40
0.0
  9
$DIMTXT
 40
3.5
  9
$DIMCEN
 40
2.5
  9
$DIMTSZ
 40
0.0
  9
$DIMTOL
 70
     0
  9
$DIMLIM
 70
     0
  9
$DIMTIH
 70
     1
  9
$DIMTOH
 70
     1
  9
$DIMSE1
 70
     0
  9
$DIMSE2
 70
     0
  9
$DIMTAD
 70
     1
  9
$DIMZIN
 70
     1
  9
$DIMBLK
  1

  9
$DIMASO
 70
     1
  9
$DIMSHO
 70
     1
  9
$DIMPOST
  1

  9
$DIMAPOST
  1

  9
$DIMALT
 70
     0
  9
$DIMALTD
 70
     3
  9
$DIMALTF
 40
0.0393700787
  9
$DIMLFAC
 40
1.0
  9
$DIMTOFL
 70
     1
  9
$DIMTVP
 40
0.0
  9
$DIMTIX
 70
     0
  9
$DIMSOXD
 70
     0
  9
$DIMSAH
 70
     0
  9
$DIMBLK1
  1

  9
$DIMBLK2
  1

  9
$DIMSTYLE
  2
ISO-25
  9
$DIMCLRD
 70
     0
  9
$DIMCLRE
 70
     0
  9
$DIMCLRT
 70
     0
  9
$DIMTFAC
 40
1.0
  9
$DIMGAP
 40
1.524
  9
$DIMJUST
 70
     0
  9
$DIMSD1
 70
     0
  9
$DIMSD2
 70
     0
  9
$DIMTOLJ
 70
     0
  9
$DIMTZIN
 70
     1
  9
$DIMALTZ
 70
     0
  9
$DIMALTTZ
 70
     0
  9
$DIMUPT
 70
     0
  9
$DIMDEC
 70
     2
  9
$DIMTDEC
 70
     3
  9
$DIMALTU
 70
     2
  9
$DIMALTTD
 70
     3
  9
$DIMTXSTY
  7
Standard
  9
$DIMAUNIT
 70
     0
  9
$DIMADEC
 70
     0
  9
$DIMALTRND
 40
0.0
  9
$DIMAZIN
 70
     0
  9
$DIMDSEP
 70
    44
  9
$DIMATFIT
 70
     3
  9
$DIMFRAC
 70
     0
  9
$DIMLDRBLK
  1

  9
$DIMLUNIT
 70
     2
  9
$DIMLWD
 70
    -2
  9
$DIMLWE
 70
    -2
  9
$DIMTMOVE
 70
     0
  9
$LUNITS
 70
     2
  9
$LUPREC
 70
     2
  9
$SKETCHINC
 40
1.0
  9
$FILLETRAD
 40
10.0
  9
$AUNITS
 70
     0
  9
$AUPREC
 70
     0
  9
$MENU
  1
.
  9
$ELEVATION
 40
0.0
  9
$PELEVATION
 40
0.0
  9
$THICKNESS
 40
0.0
  9
$LIMCHECK
 70
     0
  9
$CHAMFERA
 40
10.0
  9
$CHAMFERB
 40
10.0
  9
$CHAMFERC
 40
20.0
  9
$CHAMFERD
 40
0.0
  9
$SKPOLY
 70
     0
  9
$TDCREATE
 40
2456493.455861875
  9
$TDUCREATE
 40
2456493.080861875
  9
$TDUPDATE
 40
2456493.455861886
  9
$TDUUPDATE
 40
2456493.080861886
  9
$TDINDWG
 40
0.0000000116
  9
$TDUSRTIMER
 40
0.0000000116
  9
$USRTIMER
 70
     1
  9
$ANGBASE
 50
0.0
  9
$ANGDIR
 70
     0
  9
$PDMODE
 70
     0
  9
$PDSIZE
 40
-1.0
  9
$PLINEWID
 40
0.0
  9
$SPLFRAME
 70
     0
  9
$SPLINETYPE
 70
     6
  9
$SPLINESEGS
 70
     8
  9
$HANDSEED
  5
2EB
  9
$SURFTAB1
 70
     6
  9
$SURFTAB2
 70
     6
  9
$SURFTYPE
 70
     6
  9
$SURFU
 70
     6
  9
$SURFV
 70
     6
  9
$UCSBASE
  2

  9
$UCSNAME
  2

  9
$UCSORG
 10
0.0
 20
0.0
 30
0.0
  9
$UCSXDIR
 10
1.0
 20
0.0
 30
0.0
  9
$UCSYDIR
 10
0.0
 20
1.0
 30
0.0
  9
$UCSORTHOREF
  2

  9
$UCSORTHOVIEW
 70
     0
  9
$UCSORGTOP
 10
0.0
 20
0.0
 30
0.0
  9
$UCSORGBOTTOM
 10
0.0
 20
0.0
 30
0.0
  9
$UCSORGLEFT
 10
0.0
 20
0.0
 30
0.0
  9
$UCSORGRIGHT
 10
0.0
 20
0.0
 30
0.0
  9
$UCSORGFRONT
 10
0.0
 20
0.0
 30
0.0
  9
$UCSORGBACK
 10
0.0
 20
0.0
 30
0.0
  9
$PUCSBASE
  2

  9
$PUCSNAME
  2

  9
$PUCSORG
 10
0.0
 20
0.0
 30
0.0
  9
$PUCSXDIR
 10
1.0
 20
0.0
 30
0.0
  9
$PUCSYDIR
 10
0.0
 20
1.0
 30
0.0
  9
$PUCSORTHOREF
  2

  9
$PUCSORTHOVIEW
 70
     0
  9
$PUCSORGTOP
 10
0.0
 20
0.0
 30
0.0
  9
$PUCSORGBOTTOM
 10
0.0
 20
0.0
 30
0.0
  9
$PUCSORGLEFT
 10
0.0
 20
0.0
 30
0.0
  9
$PUCSORGRIGHT
 10
0.0
 20
0.0
 30
0.0
  9
$PUCSORGFRONT
 10
0.0
 20
0.0
 30
0.0
  9
$PUCSORGBACK
 10
0.0
 20
0.0
 30
0.0
  9
$USERI1
 70
     0
  9
$USERI2
 70
     0
  9
$USERI3
 70
     0
  9
$USERI4
 70
     0
  9
$USERI5
 70
     0
  9
$USERR1
 40
0.0
  9
$USERR2
 40
0.0
  9
$USERR3
 40
0.0
  9
$USERR4
 40
0.0
  9
$USERR5
 40
0.0
  9
$WORLDVIEW
 70
     1
  9
$SHADEDGE
 70
     3
  9
$SHADEDIF
 70
    70
  9
$TILEMODE
 70
     0
  9
$MAXACTVP
 70
    64
  9
$PINSBASE
 10
0.0
 20
0.0
 30
0.0
  9
$PLIMCHECK
 70
     0
  9
$PEXTMIN
 10
0.0
 20
0.0
 30
0.0
  9
$PEXTMAX
 10
841.0
 20
594.0
 30
0.0
  9
$PLIMMIN
 10
0.0
 20
0.0
  9
$PLIMMAX
 10
841.0
 20
594.0
  9
$UNITMODE
 70
     0
  9
$VISRETAIN
 70
     1
  9
$PLINEGEN
 70
     0
  9
$PSLTSCALE
 70
     1
  9
$TREEDEPTH
 70
  3020
  9
$CMLSTYLE
  2
Standard
  9
$CMLJUST
 70
     0
  9
$CMLSCALE
 40
20.0
  9
$PROXYGRAPHICS
 70
     1
  9
$MEASUREMENT
 70
     1
  9
$CELWEIGHT
370
    -1
  9
$ENDCAPS
280
     0
  9
$JOINSTYLE
280
     0
  9
$LWDISPLAY
290
     1
  9
$INSUNITS
 70
     4
  9
$HYPERLINKBASE
  1

  9
$STYLESHEET
  1

  9
$XEDIT
290
     1
  9
$CEPSNTYPE
380
     0
  9
$PSTYLEMODE
290
     1
  9
$FINGERPRINTGUID
  2
{6F5F4791-BDAD-43FA-9085-8AD15E2C539C}
  9
$VERSIONGUID
  2
{FAEB1C32-E019-11D5-929B-00C0DF256EC4}
  9
$EXTNAMES
290
     1
  9
$PSVPSCALE
 40
0.0
  9
$OLESTARTUP
290
     0
  0
ENDSEC
  0
SECTION
  2
CLASSES
  0
CLASS
  1
ACDBDICTIONARYWDFLT
  2
AcDbDictionaryWithDefault
  3
ObjectDBX Classes
 90
        0
280
     0
281
     0
  0
CLASS
  1
VISUALSTYLE
  2
AcDbVisualStyle
  3
ObjectDBX Classes
 90
     4095
280
     0
281
     0
  0
CLASS
  1
MATERIAL
  2
AcDbMaterial
  3
ObjectDBX Classes
 90
     1153
280
     0
281
     0
  0
CLASS
  1
ACDBPLACEHOLDER
  2
AcDbPlaceHolder
  3
ObjectDBX Classes
 90
        0
280
     0
281
     0
  0
CLASS
  1
LAYOUT
  2
AcDbLayout
  3
ObjectDBX Classes
 90
        0
280
     0
281
     0
  0
ENDSEC
  0
SECTION
  2
TABLES
  0
TABLE
  2
VPORT
  5
8
330
0
100
AcDbSymbolTable
 70
     1
  0
VPORT
  5
29
330
8
100
AcDbSymbolTableRecord
100
AcDbViewportTableRecord
  2
*Active
 70
     0
 10
0.0
 20
0.0
 11
1.0
 21
1.0
 12
420.5
 22
297.0
 13
0.0
 23
0.0
 14
10.0
 24
10.0
 15
10.0
 25
10.0
 16
0.0
 26
0.0
 36
1.0
 17
0.0
 27
0.0
 37
0.0
 40
594.0
 41
1.4158249158
 42
50.0
 43
0.0
 44
0.0
 50
0.0
 51
0.0
 71
     0
 72
  2000
 73
     1
 74
     3
 75
     0
 76
     0
 77
     0
 78
     0
281
     0
 65
     1
110
0.0
120
0.0
130
0.0
111
1.0
121
0.0
131
0.0
112
0.0
122
1.0
132
0.0
 79
     0
146
0.0
  0
ENDTAB
  0
TABLE
  2
LTYPE
  5
5
330
0
100
AcDbSymbolTable
 70
     6
  0
LTYPE
  5
14
330
5
100
AcDbSymbolTableRecord
100
AcDbLinetypeTableRecord
  2
ByBlock
 70
     0
  3

 72
    65
 73
     0
 40
0.0
  0
LTYPE
  5
15
330
5
100
AcDbSymbolTableRecord
100
AcDbLinetypeTableRecord
  2
ByLayer
 70
     0
  3

 72
    65
 73
     0
 40
0.0
  0
LTYPE
  5
16
330
5
100
AcDbSymbolTableRecord
100
AcDbLinetypeTableRecord
  2
Continuous
 70
     0
  3
Solid line
 72
    65
 73
     0
 40
0.0
  0
LTYPE
  5
3F
330
5
100
AcDbSymbolTableRecord
100
AcDbLinetypeTableRecord
  2
HIDDEN
 70
     0
  3
Hidden __ __ __ __ __ __ __ __ __ __ __ __ __ __
 72
    65
 73
     2
 40
1.905
 49
1.27
 74
     0
 49
-0.635
 74
     0
  0
LTYPE
  5
40
330
5
100
AcDbSymbolTableRecord
100
AcDbLinetypeTableRecord
  2
PHANTOM
 70
     0
  3
Phantom ______  __  __  ______  __  __  ______
 72
    65
 73
     6
 40
12.7
 49
6.35
 74
     0
 49
-1.27
 74
     0
 49
1.27
 74
     0
 49
-1.27
 74
     0
 49
1.27
 74
     0
 49
-1.27
 74
     0
  0
LTYPE
  5
41
330
5
100
AcDbSymbolTableRecord
100
AcDbLinetypeTableRecord
  2
CENTER
 70
     0
  3
Center ____ _ ____ _ ____ _ ____ _ ____ _ ____
 72
    65
 73
     4
 40
10.16
 49
6.35
 74
     0
 49
-1.27
 74
     0
 49
1.27
 74
     0
 49
-1.27
 74
     0
  0
LTYPE
  5
42
330
5
100
AcDbSymbolTableRecord
100
AcDbLinetypeTableRecord
  2
CENTERX2
 70
     0
  3
Center (2x) ________  __  ________  __  _____
 72
    65
 73
     4
 40
20.32
 49
12.7
 74
     0
 49
-2.54
 74
     0
 49
2.54
 74
     0
 49
-2.54
 74
     0
  0
LTYPE
  5
43
330
5
100
AcDbSymbolTableRecord
100
AcDbLinetypeTableRecord
  2
DOT2
 70
     0
  3
Dot (.5x) ........................................
 72
    65
 73
     2
 40
0.635
 49
0.0
 74
     0
 49
-0.635
 74
     0
  0
ENDTAB
  0
TABLE
  2
LAYER
  5
2
330
0
100
AcDbSymbolTable
 70
     5
  0
LAYER
  5
10
330
2
100
AcDbSymbolTableRecord
100
AcDbLayerTableRecord
  2
0
 70
     0
 62
     7
  6
Continuous
370
    -3
390
F
  0
LAYER
  5
44
330
2
100
AcDbSymbolTableRecord
100
AcDbLayerTableRecord
  2
SLD-0
 70
     0
 62
     7
  6
Continuous
370
    -3
390
F
  0
LAYER
  5
45
330
2
100
AcDbSymbolTableRecord
100
AcDbLayerTableRecord
  2
1
 70
     0
 62
     7
  6
Continuous
370
    -3
390
F
  0
LAYER
  5
46
330
2
100
AcDbSymbolTableRecord
100
AcDbLayerTableRecord
  2
AM_5
 70
     0
 62
    92
  6
Continuous
370
    -3
390
F
  0
LAYER
  5
47
330
2
100
AcDbSymbolTableRecord
100
AcDbLayerTableRecord
  2
SLD-DEFPOINTS
 70
     0
 62
     7
  6
Continuous
370
    -3
390
F
  0
ENDTAB
  0
TABLE
  2
STYLE
  5
3
330
0
100
AcDbSymbolTable
 70
    50
  0
STYLE
  5
11
330
3
100
AcDbSymbolTableRecord
100
AcDbTextStyleTableRecord
  2
Standard
 70
     0
 40
0.0
 41
1.0
 50
0.0
 71
     0
 42
2.5
  3
txt
  4
bigfont
  0
STYLE
  5
4B
330
3
100
AcDbSymbolTableRecord
100
AcDbTextStyleTableRecord
  2
SLDTEXTSTYLE0
 70
     0
 40
0.0
 41
0.8470587899
 50
0.0
 71
     0
 42
0.2
  3
TXT
  4
bigfont
  0
STYLE
  5
50
330
3
100
AcDbSymbolTableRecord
100
AcDbTextStyleTableRecord
  2
SLDTEXTSTYLE1
 70
     0
 40
0.0
 41
0.6303308992
 50
0.0
 71
     0
 42
0.2
  3
TXT
  4
bigfont
  0
STYLE
  5
54
330
3
100
AcDbSymbolTableRecord
100
AcDbTextStyleTableRecord
  2
SLDTEXTSTYLE2
 70
     0
 40
0.0
 41
0.7
 50
0.0
 71
     0
 42
0.2
  3
TXT
  4
bigfont
  0
STYLE
  5
5C
330
3
100
AcDbSymbolTableRecord
100
AcDbTextStyleTableRecord
  2
SLDTEXTSTYLE3
 70
     0
 40
0.0
 41
0.4751636317
 50
0.0
 71
     0
 42
0.2
  3
TXT
  4
bigfont
  0
STYLE
  5
5F
330
3
100
AcDbSymbolTableRecord
100
AcDbTextStyleTableRecord
  2
SLDTEXTSTYLE4
 70
     0
 40
0.0
 41
0.6818182009
 50
0.0
 71
     0
 42
0.2
  3
TXT
  4
bigfont
  0
STYLE
  5
62
330
3
100
AcDbSymbolTableRecord
100
AcDbTextStyleTableRecord
  2
SLDTEXTSTYLE5
 70
     0
 40
0.0
 41
0.4750670694
 50
0.0
 71
     0
 42
0.2
  3
TXT
  4
bigfont
  0
STYLE
  5
6E
330
3
100
AcDbSymbolTableRecord
100
AcDbTextStyleTableRecord
  2
SLDTEXTSTYLE6
 70
     0
 40
0.0
 41
0.5434111806
 50
0.0
 71
     0
 42
0.2
  3
TXT
  4
bigfont
  0
STYLE
  5
75
330
3
100
AcDbSymbolTableRecord
100
AcDbTextStyleTableRecord
  2
SLDTEXTSTYLE7
 70
     0
 40
0.0
 41
0.7105468882
 50
0.0
 71
     0
 42
0.2
  3
TXT
  4
bigfont
  0
STYLE
  5
77
330
3
100
AcDbSymbolTableRecord
100
AcDbTextStyleTableRecord
  2
SLDTEXTSTYLE8
 70
     0
 40
0.0
 41
0.703130859
 50
0.0
 71
     0
 42
0.2
  3
TXT
  4
bigfont
  0
STYLE
  5
79
330
3
100
AcDbSymbolTableRecord
100
AcDbTextStyleTableRecord
  2
SLDTEXTSTYLE9
 70
     0
 40
0.0
 41
0.750093731
 50
0.0
 71
     0
 42
0.2
  3
TXT
  4
bigfont
  0
STYLE
  5
7C
330
3
100
AcDbSymbolTableRecord
100
AcDbTextStyleTableRecord
  2
SLDTEXTSTYLE10
 70
     0
 40
0.0
 41
0.7200374924
 50
0.0
 71
     0
 42
0.2
  3
TXT
  4
bigfont
  0
STYLE
  5
81
330
3
100
AcDbSymbolTableRecord
100
AcDbTextStyleTableRecord
  2
SLDTEXTSTYLE11
 70
     0
 40
0.0
 41
0.8492646638
 50
0.0
 71
     0
 42
0.2
  3
TXT
  4
bigfont
  0
STYLE
  5
A8
330
3
100
AcDbSymbolTableRecord
100
AcDbTextStyleTableRecord
  2
SLDTEXTSTYLE12
 70
     0
 40
0.0
 41
1.0504201681
 50
0.0
 71
     0
 42
0.2
  3
TXT
  4
bigfont
  0
STYLE
  5
AE
330
3
100
AcDbSymbolTableRecord
100
AcDbTextStyleTableRecord
  2
SLDTEXTSTYLE13
 70
     0
 40
0.0
 41
0.8823529412
 50
0.0
 71
     0
 42
0.2
  3
TXT
  4
bigfont
  0
STYLE
  5
B0
330
3
100
AcDbSymbolTableRecord
100
AcDbTextStyleTableRecord
  2
SLDTEXTSTYLE14
 70
     0
 40
0.0
 41
0.4632352862
 50
0.0
 71
     0
 42
0.2
  3
TXT
  4
bigfont
  0
STYLE
  5
B3
330
3
100
AcDbSymbolTableRecord
100
AcDbTextStyleTableRecord
  2
SLDTEXTSTYLE15
 70
     0
 40
0.0
 41
0.7417545776
 50
0.0
 71
     0
 42
0.2
  3
TXT
  4
bigfont
  0
STYLE
  5
B5
330
3
100
AcDbSymbolTableRecord
100
AcDbTextStyleTableRecord
  2
SLDTEXTSTYLE16
 70
     0
 40
0.0
 41
0.6266710778
 50
0.0
 71
     0
 42
0.2
  3
TXT
  4
bigfont
  0
STYLE
  5
B7
330
3
100
AcDbSymbolTableRecord
100
AcDbTextStyleTableRecord
  2
SLDTEXTSTYLE17
 70
     0
 40
0.0
 41
0.364190069
 50
0.0
 71
     0
 42
0.2
  3
TXT
  4
bigfont
  0
STYLE
  5
B9
330
3
100
AcDbSymbolTableRecord
100
AcDbTextStyleTableRecord
  2
SLDTEXTSTYLE18
 70
     0
 40
0.0
 41
0.4578063276
 50
0.0
 71
     0
 42
0.2
  3
TXT
  4
bigfont
  0
STYLE
  5
BB
330
3
100
AcDbSymbolTableRecord
100
AcDbTextStyleTableRecord
  2
SLDTEXTSTYLE19
 70
     0
 40
0.0
 41
0.4336956576
 50
0.0
 71
     0
 42
0.2
  3
TXT
  4
bigfont
  0
STYLE
  5
BD
330
3
100
AcDbSymbolTableRecord
100
AcDbTextStyleTableRecord
  2
SLDTEXTSTYLE20
 70
     0
 40
0.0
 41
0.75009377
 50
0.0
 71
     0
 42
0.2
  3
TXT
  4
bigfont
  0
STYLE
  5
C0
330
3
100
AcDbSymbolTableRecord
100
AcDbTextStyleTableRecord
  2
SLDTEXTSTYLE21
 70
     0
 40
0.0
 41
0.5614973358
 50
0.0
 71
     0
 42
0.2
  3
TXT
  4
bigfont
  0
STYLE
  5
C2
330
3
100
AcDbSymbolTableRecord
100
AcDbTextStyleTableRecord
  2
SLDTEXTSTYLE22
 70
     0
 40
0.0
 41
0.5540799111
 50
0.0
 71
     0
 42
0.2
  3
TXT
  4
bigfont
  0
STYLE
  5
C7
330
3
100
AcDbSymbolTableRecord
100
AcDbTextStyleTableRecord
  2
SLDTEXTSTYLE23
 70
     0
 40
0.0
 41
0.6096256608
 50
0.0
 71
     0
 42
0.2
  3
TXT
  4
bigfont
  0
STYLE
  5
CB
330
3
100
AcDbSymbolTableRecord
100
AcDbTextStyleTableRecord
  2
SLDTEXTSTYLE24
 70
     0
 40
0.0
 41
0.6190218813
 50
0.0
 71
     0
 42
0.2
  3
TXT
  4
bigfont
  0
STYLE
  5
CD
330
3
100
AcDbSymbolTableRecord
100
AcDbTextStyleTableRecord
  2
SLDTEXTSTYLE25
 70
     0
 40
0.0
 41
0.8342246448
 50
0.0
 71
     0
 42
0.2
  3
TXT
  4
bigfont
  0
STYLE
  5
CF
330
3
100
AcDbSymbolTableRecord
100
AcDbTextStyleTableRecord
  2
SLDTEXTSTYLE26
 70
     0
 40
0.0
 41
0.8470826205
 50
0.0
 71
     0
 42
0.2
  3
TXT
  4
bigfont
  0
STYLE
  5
D3
330
3
100
AcDbSymbolTableRecord
100
AcDbTextStyleTableRecord
  2
SLDTEXTSTYLE27
 70
     0
 40
0.0
 41
0.6037500188
 50
0.0
 71
     0
 42
0.2
  3
TXT
  4
bigfont
  0
STYLE
  5
D7
330
3
100
AcDbSymbolTableRecord
100
AcDbTextStyleTableRecord
  2
SLDTEXTSTYLE28
 70
     0
 40
0.0
 41
0.5355070123
 50
0.0
 71
     0
 42
0.2
  3
TXT
  4
bigfont
  0
STYLE
  5
DB
330
3
100
AcDbSymbolTableRecord
100
AcDbTextStyleTableRecord
  2
SLDTEXTSTYLE29
 70
     0
 40
0.0
 41
0.5455673325
 50
0.0
 71
     0
 42
0.2
  3
TXT
  4
bigfont
  0
STYLE
  5
DF
330
3
100
AcDbSymbolTableRecord
100
AcDbTextStyleTableRecord
  2
SLDTEXTSTYLE30
 70
     0
 40
0.0
 41
0.5480710321
 50
0.0
 71
     0
 42
0.2
  3
TXT
  4
bigfont
  0
STYLE
  5
E3
330
3
100
AcDbSymbolTableRecord
100
AcDbTextStyleTableRecord
  2
SLDTEXTSTYLE31
 70
     0
 40
0.0
 41
0.5781154271
 50
0.0
 71
     0
 42
0.2
  3
TXT
  4
bigfont
  0
STYLE
  5
E7
330
3
100
AcDbSymbolTableRecord
100
AcDbTextStyleTableRecord
  2
SLDTEXTSTYLE32
 70
     0
 40
0.0
 41
0.5783404449
 50
0.0
 71
     0
 42
0.2
  3
TXT
  4
bigfont
  0
STYLE
  5
EB
330
3
100
AcDbSymbolTableRecord
100
AcDbTextStyleTableRecord
  2
SLDTEXTSTYLE33
 70
     0
 40
0.0
 41
0.7500000263
 50
0.0
 71
     0
 42
0.2
  3
TXT
  4
bigfont
  0
STYLE
  5
F2
330
3
100
AcDbSymbolTableRecord
100
AcDbTextStyleTableRecord
  2
SLDTEXTSTYLE34
 70
     0
 40
0.0
 41
0.760354888
 50
0.0
 71
     0
 42
0.2
  3
TXT
  4
bigfont
  0
STYLE
  5
F4
330
3
100
AcDbSymbolTableRecord
100
AcDbTextStyleTableRecord
  2
SLDTEXTSTYLE35
 70
     0
 40
0.0
 41
0.5575334243
 50
0.0
 71
     0
 42
0.2
  3
TXT
  4
bigfont
  0
STYLE
  5
F6
330
3
100
AcDbSymbolTableRecord
100
AcDbTextStyleTableRecord
  2
SLDTEXTSTYLE36
 70
     0
 40
0.0
 41
0.563926027
 50
0.0
 71
     0
 42
0.2
  3
TXT
  4
bigfont
  0
STYLE
  5
FF
330
3
100
AcDbSymbolTableRecord
100
AcDbTextStyleTableRecord
  2
SLDTEXTSTYLE37
 70
     0
 40
0.0
 41
0.7125234425
 50
0.0
 71
     0
 42
0.2
  3
TXT
  4
bigfont
  0
STYLE
  5
101
330
3
100
AcDbSymbolTableRecord
100
AcDbTextStyleTableRecord
  2
SLDTEXTSTYLE38
 70
     0
 40
0.0
 41
0.8021390527
 50
0.0
 71
     0
 42
0.2
  3
TXT
  4
bigfont
  0
STYLE
  5
103
330
3
100
AcDbSymbolTableRecord
100
AcDbTextStyleTableRecord
  2
SLDTEXTSTYLE39
 70
     0
 40
0.0
 41
0.792094111
 50
0.0
 71
     0
 42
0.2
  3
TXT
  4
bigfont
  0
STYLE
  5
105
330
3
100
AcDbSymbolTableRecord
100
AcDbTextStyleTableRecord
  2
SLDTEXTSTYLE40
 70
     0
 40
0.0
 41
0.7524200822
 50
0.0
 71
     0
 42
0.2
  3
TXT
  4
bigfont
  0
STYLE
  5
107
330
3
100
AcDbSymbolTableRecord
100
AcDbTextStyleTableRecord
  2
SLDTEXTSTYLE41
 70
     0
 40
0.0
 41
0.7444852764
 50
0.0
 71
     0
 42
0.2
  3
TXT
  4
bigfont
  0
STYLE
  5
109
330
3
100
AcDbSymbolTableRecord
100
AcDbTextStyleTableRecord
  2
SLDTEXTSTYLE42
 70
     0
 40
0.0
 41
0.9882353278
 50
0.0
 71
     0
 42
0.2
  3
TXT
  4
bigfont
  0
STYLE
  5
10E
330
3
100
AcDbSymbolTableRecord
100
AcDbTextStyleTableRecord
  2
SLDTEXTSTYLE43
 70
     0
 40
0.0
 41
0.8067226891
 50
0.0
 71
     0
 42
0.2
  3
TXT
  4
bigfont
  0
STYLE
  5
111
330
3
100
AcDbSymbolTableRecord
100
AcDbTextStyleTableRecord
  2
SLDTEXTSTYLE44
 70
     0
 40
0.0
 41
1.0267379373
 50
0.0
 71
     0
 42
0.2
  3
TXT
  4
bigfont
  0
STYLE
  5
11D
330
3
100
AcDbSymbolTableRecord
100
AcDbTextStyleTableRecord
  2
SLDTEXTSTYLE45
 70
     0
 40
0.0
 41
0.5700490181
 50
0.0
 71
     0
 42
0.2
  3
TXT
  4
bigfont
  0
STYLE
  5
276
330
3
100
AcDbSymbolTableRecord
100
AcDbTextStyleTableRecord
  2
SLDTEXTSTYLE46
 70
     0
 40
0.0
 41
0.6454545455
 50
0.0
 71
     0
 42
0.2
  3
TXT
  4
bigfont
  0
STYLE
  5
28F
330
3
100
AcDbSymbolTableRecord
100
AcDbTextStyleTableRecord
  2
SLDTEXTSTYLE47
 70
     0
 40
0.0
 41
1.0
 50
0.0
 71
     0
 42
0.2
  3
ISOCP
  4
bigfont
  0
STYLE
  5
29A
330
3
100
AcDbSymbolTableRecord
100
AcDbTextStyleTableRecord
  2
SLDTEXTSTYLE48
 70
     0
 40
0.0
 41
0.96
 50
0.0
 71
     0
 42
0.2
  3
ISOCP
  4
bigfont
  0
ENDTAB
  0
TABLE
  2
VIEW
  5
6
330
0
100
AcDbSymbolTable
 70
     0
  0
ENDTAB
  0
TABLE
  2
UCS
  5
7
330
0
100
AcDbSymbolTable
 70
     0
  0
ENDTAB
  0
TABLE
  2
APPID
  5
9
330
0
100
AcDbSymbolTable
 70
     1
  0
APPID
  5
12
330
9
100
AcDbSymbolTableRecord
100
AcDbRegAppTableRecord
  2
ACAD
 70
     0
  0
ENDTAB
  0
TABLE
  2
DIMSTYLE
  5
A
330
0
100
AcDbSymbolTable
 70
     3
100
AcDbDimStyleTable
  0
DIMSTYLE
105
27
330
A
100
AcDbSymbolTableRecord
100
AcDbDimStyleTableRecord
  2
ISO-25
 70
     0
 41
2.5
 42
0.625
 43
3.75
 44
1.25
 73
     0
 74
     0
 77
     1
 78
     8
140
2.5
141
2.5
143
0.0393700787
147
0.625
171
     3
172
     1
178
     0
271
     2
272
     2
274
     3
278
    44
283
     0
284
     8
340
11
  0
DIMSTYLE
105
290
102
{ACAD_REACTORS
330
28E
330
29E
330
2AA
330
2B4
330
2BE
330
2C8
102
}
330
A
100
AcDbSymbolTableRecord
100
AcDbDimStyleTableRecord
  2
SLDDIMSTYLE0
 70
     0
 41
3.0
 44
0.0
 45
0.000000001
 73
     0
 74
     0
 77
     3
 78
    12
 79
     3
140
3.5
147
0.875
173
     1
178
     0
271
     0
272
     3
276
     2
284
    12
340
28F
341
291
343
291
344
291
  0
DIMSTYLE
105
2D3
102
{ACAD_REACTORS
330
2D2
330
2DF
102
}
330
A
100
AcDbSymbolTableRecord
100
AcDbDimStyleTableRecord
  2
SLDDIMSTYLE1
 70
     0
 41
3.0
 44
0.0
 45
0.000000001
 73
     0
 74
     0
 77
     3
 78
    12
 79
     3
140
3.5
147
0.875
173
     1
178
     0
271
     2
272
     3
276
     2
284
    12
340
28F
341
291
343
291
344
291
  0
ENDTAB
  0
TABLE
  2
BLOCK_RECORD
  5
1
330
0
100
AcDbSymbolTable
 70
    21
  0
BLOCK_RECORD
  5
1F
330
1
100
AcDbSymbolTableRecord
100
AcDbBlockTableRecord
  2
*Model_Space
340
22
  0
BLOCK_RECORD
  5
1B
330
1
100
AcDbSymbolTableRecord
100
AcDbBlockTableRecord
  2
*Paper_Space
340
1E
  0
BLOCK_RECORD
  5
48
330
1
100
AcDbSymbolTableRecord
100
AcDbBlockTableRecord
  2
Ãﬁ€Ø∏1
340
0
102
{BLKREFS
331
209
102
}
  0
BLOCK_RECORD
  5
4D
330
1
100
AcDbSymbolTableRecord
100
AcDbBlockTableRecord
  2
SW_NOTE_0
340
0
102
{BLKREFS
331
53
102
}
  0
BLOCK_RECORD
  5
84
330
1
100
AcDbSymbolTableRecord
100
AcDbBlockTableRecord
  2
SW_NOTE_1
340
0
102
{BLKREFS
331
89
102
}
  0
BLOCK_RECORD
  5
8A
330
1
100
AcDbSymbolTableRecord
100
AcDbBlockTableRecord
  2
SW_NOTE_2
340
0
102
{BLKREFS
331
8F
102
}
  0
BLOCK_RECORD
  5
90
330
1
100
AcDbSymbolTableRecord
100
AcDbBlockTableRecord
  2
SW_NOTE_3
340
0
102
{BLKREFS
331
95
102
}
  0
BLOCK_RECORD
  5
96
330
1
100
AcDbSymbolTableRecord
100
AcDbBlockTableRecord
  2
SW_NOTE_4
340
0
102
{BLKREFS
331
9B
102
}
  0
BLOCK_RECORD
  5
9C
330
1
100
AcDbSymbolTableRecord
100
AcDbBlockTableRecord
  2
SW_NOTE_5
340
0
102
{BLKREFS
331
A1
102
}
  0
BLOCK_RECORD
  5
A2
330
1
100
AcDbSymbolTableRecord
100
AcDbBlockTableRecord
  2
SW_NOTE_6
340
0
102
{BLKREFS
331
A7
102
}
  0
BLOCK_RECORD
  5
C4
330
1
100
AcDbSymbolTableRecord
100
AcDbBlockTableRecord
  2
SW_NOTE_7
340
0
102
{BLKREFS
331
CA
102
}
  0
BLOCK_RECORD
  5
EF
330
1
100
AcDbSymbolTableRecord
100
AcDbBlockTableRecord
  2
Ãﬁ€Ø∏2
340
0
102
{BLKREFS
331
20A
102
}
  0
BLOCK_RECORD
  5
10B
330
1
100
AcDbSymbolTableRecord
100
AcDbBlockTableRecord
  2
Ãﬁ€Ø∏3
340
0
102
{BLKREFS
331
20B
102
}
  0
BLOCK_RECORD
  5
291
330
1
100
AcDbSymbolTableRecord
100
AcDbBlockTableRecord
  2
_NONE
340
0
  0
BLOCK_RECORD
  5
294
330
1
100
AcDbSymbolTableRecord
100
AcDbBlockTableRecord
  2
*D13
340
0
  0
BLOCK_RECORD
  5
29F
330
1
100
AcDbSymbolTableRecord
100
AcDbBlockTableRecord
  2
*D14
340
0
  0
BLOCK_RECORD
  5
2AB
330
1
100
AcDbSymbolTableRecord
100
AcDbBlockTableRecord
  2
*D15
340
0
  0
BLOCK_RECORD
  5
2B5
330
1
100
AcDbSymbolTableRecord
100
AcDbBlockTableRecord
  2
*D16
340
0
  0
BLOCK_RECORD
  5
2BF
330
1
100
AcDbSymbolTableRecord
100
AcDbBlockTableRecord
  2
*D17
340
0
  0
BLOCK_RECORD
  5
2C9
330
1
100
AcDbSymbolTableRecord
100
AcDbBlockTableRecord
  2
*D18
340
0
  0
BLOCK_RECORD
  5
2D4
330
1
100
AcDbSymbolTableRecord
100
AcDbBlockTableRecord
  2
*D19
340
0
  0
BLOCK_RECORD
  5
2E0
330
1
100
AcDbSymbolTableRecord
100
AcDbBlockTableRecord
  2
*D20
340
0
  0
ENDTAB
  0
ENDSEC
  0
SECTION
  2
BLOCKS
  0
BLOCK
  5
20
330
1F
100
AcDbEntity
  8
0
100
AcDbBlockBegin
  2
*Model_Space
 70
     0
 10
0.0
 20
0.0
 30
0.0
  3
*Model_Space
  1

  0
ENDBLK
  5
21
330
1F
100
AcDbEntity
  8
0
100
AcDbBlockEnd
  0
BLOCK
  5
1C
330
1B
100
AcDbEntity
 67
     1
  8
0
100
AcDbBlockBegin
  2
*Paper_Space
 70
     0
 10
0.0
 20
0.0
 30
0.0
  3
*Paper_Space
  1

  0
ENDBLK
  5
1D
330
1B
100
AcDbEntity
 67
     1
  8
0
100
AcDbBlockEnd
  0
BLOCK
  5
49
330
48
100
AcDbEntity
  8
0
100
AcDbBlockBegin
  2
Ãﬁ€Ø∏1
 70
     0
 10
0.0
 20
0.0
 30
0.0
  3
Ãﬁ€Ø∏1
  1

  0
MTEXT
  5
4C
330
48
100
AcDbEntity
  8
SLD-0
100
AcDbMText
 10
164.6045786384
 20
16.0502247309
 30
0.0
 40
5.0
 41
0.0
 71
     1
 72
     1
  1
Ç`ÇP
  7
SLDTEXTSTYLE0
 73
     1
 44
1.0
  0
INSERT
  5
53
330
48
100
AcDbEntity
  8
SLD-0
 62
     7
100
AcDbBlockReference
  2
SW_NOTE_0
 10
166.803081844
 20
32.5742695116
 30
0.0
  0
MTEXT
  5
55
330
48
100
AcDbEntity
  8
SLD-0
100
AcDbMText
 10
54.125496416
 20
21.5810758994
 30
0.0
 40
1.8520833333
 41
0.0
 71
     1
 72
     1
  1
Å}10Åå
  7
SLDTEXTSTYLE2
 73
     1
 44
1.0
  0
MTEXT
  5
56
330
48
100
AcDbEntity
  8
SLD-0
100
AcDbMText
 10
54.125496416
 20
25.6270120338
 30
0.0
 40
1.8520833333
 41
0.0
 71
     1
 72
     1
  1
Å}20Åå
  7
SLDTEXTSTYLE2
 73
     1
 44
1.0
  0
MTEXT
  5
57
330
48
100
AcDbEntity
  8
SLD-0
100
AcDbMText
 10
54.2218282287
 20
29.38395273
 30
0.0
 40
1.8520833333
 41
0.0
 71
     1
 72
     1
  1
Å}30Åå
  7
SLDTEXTSTYLE2
 73
     1
 44
1.0
  0
MTEXT
  5
58
330
48
100
AcDbEntity
  8
SLD-0
100
AcDbMText
 10
54.5108236669
 20
33.4298888644
 30
0.0
 40
1.8520833333
 41
0.0
 71
     1
 72
     1
  1
Å}1ÅK
  7
SLDTEXTSTYLE2
 73
     1
 44
1.0
  0
MTEXT
  5
59
330
48
100
AcDbEntity
  8
SLD-0
100
AcDbMText
 10
32.9778893909
 20
53.2424041579
 30
0.0
 40
1.8520833333
 41
0.0
 71
     1
 72
     1
  1
ïÅí åˆç∑ JIS-B 0419-mH
  7
SLDTEXTSTYLE2
 73
     1
 44
1.0
  0
MTEXT
  5
5A
330
48
100
AcDbEntity
  8
SLD-0
100
AcDbMText
 10
0.5668387306
 20
53.1781530719
 30
0.0
 40
1.8520833333
 41
0.0
 71
     1
 72
     1
  1
åˆç∑ï\é¶ï˚éÆ JIS-B 0024
  7
SLDTEXTSTYLE2
 73
     1
 44
1.0
  0
MTEXT
  5
5B
330
48
100
AcDbEntity
  8
SLD-0
100
AcDbMText
 10
1.2858753262
 20
49.4906407582
 30
0.0
 40
2.1166666667
 41
0.0
 71
     1
 72
     1
  1
ã@äBâ¡çHê°ñ@ÉmïÅí ãñóeç∑Åiìôãâ m JIS-B 0024)
  7
SLDTEXTSTYLE2
 73
     1
 44
1.0
  0
MTEXT
  5
5D
330
48
100
AcDbEntity
  8
SLD-0
100
AcDbMText
 10
50.5468740638
 20
57.3896224449
 30
0.0
 40
2.0
 41
0.0
 71
     1
 72
     1
  1
ÇSÇO
  7
SLDTEXTSTYLE3
 73
     1
 44
1.0
  0
MTEXT
  5
5E
330
48
100
AcDbEntity
  8
SLD-0
100
AcDbMText
 10
33.3603009569
 20
57.4394192188
 30
0.0
 40
2.0
 41
0.0
 71
     1
 72
     1
  1
ÇPÇQÅDÇT
  7
SLDTEXTSTYLE3
 73
     1
 44
1.0
  0
MTEXT
  5
60
330
48
100
AcDbEntity
  8
SLD-0
100
AcDbMText
 10
-0.0991571749
 20
61.632797972
 30
0.0
 40
2.0
 41
0.0
 71
     1
 72
     1
  1
∂ØƒµÃíl
  7
SLDTEXTSTYLE4
 73
     1
 44
1.0
  0
MTEXT
  5
61
330
48
100
AcDbEntity
  8
SLD-0
100
AcDbMText
 10
51.5153025763
 20
61.3605038576
 30
0.0
 40
2.0
 41
0.0
 71
     1
 72
     1
  1
ÇW
  7
SLDTEXTSTYLE3
 73
     1
 44
1.0
  0
MTEXT
  5
63
330
48
100
AcDbEntity
  8
SLD-0
100
AcDbMText
 10
54.7731516969
 20
65.4569959078
 30
0.0
 40
2.0
 41
0.0
 71
     1
 72
     1
  1
ÇTÇOÇÅ
  7
SLDTEXTSTYLE5
 73
     1
 44
1.0
  0
MTEXT
  5
64
330
48
100
AcDbEntity
  8
SLD-0
100
AcDbMText
 10
57.6283779681
 20
69.9561394067
 30
0.0
 40
1.0583333333
 41
0.0
 71
     1
 72
     1
  1
50
  7
SLDTEXTSTYLE2
 73
     1
 44
1.0
  0
MTEXT
  5
65
330
48
100
AcDbEntity
  8
SLD-0
100
AcDbMText
 10
46.6118416388
 20
69.899782249
 30
0.0
 40
1.0583333333
 41
0.0
 71
     1
 72
     1
  1
25
  7
SLDTEXTSTYLE2
 73
     1
 44
1.0
  0
MTEXT
  5
66
330
48
100
AcDbEntity
  8
SLD-0
100
AcDbMText
 10
35.6584055461
 20
69.9321163653
 30
0.0
 40
1.0583333333
 41
0.0
 71
     1
 72
     1
  1
6.3
  7
SLDTEXTSTYLE2
 73
     1
 44
1.0
  0
MTEXT
  5
67
330
48
100
AcDbEntity
  8
SLD-0
100
AcDbMText
 10
26.1849730764
 20
69.9141676761
 30
0.0
 40
1.0583333333
 41
0.0
 71
     1
 72
     1
  1
1.6
  7
SLDTEXTSTYLE2
 73
     1
 44
1.0
  0
MTEXT
  5
68
330
48
100
AcDbEntity
  8
SLD-0
100
AcDbMText
 10
15.2543236783
 20
69.8350908467
 30
0.0
 40
1.0583333333
 41
0.0
 71
     1
 72
     1
  1
0.2
  7
SLDTEXTSTYLE2
 73
     1
 44
1.0
  0
MTEXT
  5
69
330
48
100
AcDbEntity
  8
SLD-0
100
AcDbMText
 10
33.9213378753
 20
61.0378485122
 30
0.0
 40
2.0
 41
0.0
 71
     1
 72
     1
  1
ÇQÅDÇT
  7
SLDTEXTSTYLE3
 73
     1
 44
1.0
  0
MTEXT
  5
6A
330
48
100
AcDbEntity
  8
SLD-0
100
AcDbMText
 10
19.8315514938
 20
61.2957681436
 30
0.0
 40
2.0
 41
0.0
 71
     1
 72
     1
  1
ÇOÅDÇW
  7
SLDTEXTSTYLE3
 73
     1
 44
1.0
  0
MTEXT
  5
6B
330
48
100
AcDbEntity
  8
SLD-0
100
AcDbMText
 10
44.296418687
 20
65.2141873972
 30
0.0
 40
2.0
 41
0.0
 71
     1
 72
     1
  1
ÇQÇTÇÅ
  7
SLDTEXTSTYLE5
 73
     1
 44
1.0
  0
MTEXT
  5
6C
330
48
100
AcDbEntity
  8
SLD-0
100
AcDbMText
 10
33.3674536121
 20
65.2508375576
 30
0.0
 40
2.0
 41
0.0
 71
     1
 72
     1
  1
ÇUÅDÇRÇÅ
  7
SLDTEXTSTYLE5
 73
     1
 44
1.0
  0
MTEXT
  5
6D
330
48
100
AcDbEntity
  8
SLD-0
100
AcDbMText
 10
23.8783981319
 20
65.4476823654
 30
0.0
 40
2.0
 41
0.0
 71
     1
 72
     1
  1
ÇPÅDÇUÇÅ
  7
SLDTEXTSTYLE5
 73
     1
 44
1.0
  0
MTEXT
  5
6F
330
48
100
AcDbEntity
  8
SLD-0
100
AcDbMText
 10
25.9106843831
 20
12.8062830738
 30
0.0
 40
2.0
 41
0.0
 71
     1
 72
     1
  1
2
  7
SLDTEXTSTYLE6
 73
     1
 44
1.0
  0
MTEXT
  5
70
330
48
100
AcDbEntity
  8
SLD-0
100
AcDbMText
 10
25.4301004406
 20
17.1315385567
 30
0.0
 40
2.0
 41
0.0
 71
     1
 72
     1
  1
1.2
  7
SLDTEXTSTYLE6
 73
     1
 44
1.0
  0
MTEXT
  5
71
330
48
100
AcDbEntity
  8
SLD-0
100
AcDbMText
 10
25.2699057931
 20
21.1364047446
 30
0.0
 40
2.0
 41
0.0
 71
     1
 72
     1
  1
0.8
  7
SLDTEXTSTYLE6
 73
     1
 44
1.0
  0
MTEXT
  5
72
330
48
100
AcDbEntity
  8
SLD-0
100
AcDbMText
 10
25.2699057931
 20
25.4616602275
 30
0.0
 40
2.0
 41
0.0
 71
     1
 72
     1
  1
0.5
  7
SLDTEXTSTYLE6
 73
     1
 44
1.0
  0
MTEXT
  5
73
330
48
100
AcDbEntity
  8
SLD-0
100
AcDbMText
 10
25.1823312068
 20
29.474470628
 30
0.0
 40
2.0
 41
0.0
 71
     1
 72
     1
  1
0.3
  7
SLDTEXTSTYLE6
 73
     1
 44
1.0
  0
MTEXT
  5
74
330
48
100
AcDbEntity
  8
SLD-0
100
AcDbMText
 10
25.1097111456
 20
33.4713926033
 30
0.0
 40
2.0
 41
0.0
 71
     1
 72
     1
  1
0.2
  7
SLDTEXTSTYLE6
 73
     1
 44
1.0
  0
MTEXT
  5
76
330
48
100
AcDbEntity
  8
SLD-0
100
AcDbMText
 10
166.5615849014
 20
26.9924798834
 30
0.0
 40
3.0
 41
0.0
 71
     1
 72
     1
  1
é⁄ìx
  7
SLDTEXTSTYLE7
 73
     1
 44
1.0
  0
MTEXT
  5
78
330
48
100
AcDbEntity
  8
SLD-0
100
AcDbMText
 10
157.9559901129
 20
5.122929648
 30
0.0
 40
2.1166666667
 41
0.0
 71
     1
 72
     1
  1
Solid Works
  7
SLDTEXTSTYLE8
 73
     1
 44
1.0
  0
MTEXT
  5
7A
330
48
100
AcDbEntity
  8
SLD-0
100
AcDbMText
 10
182.5612464193
 20
59.6875055411
 30
0.0
 40
2.2000000477
 41
0.0
 71
     1
 72
     1
  1
K
  7
SLDTEXTSTYLE9
 73
     1
 44
1.0
  0
MTEXT
  5
7B
330
48
100
AcDbEntity
  8
SLD-0
100
AcDbMText
 10
182.5612464193
 20
7.1875055411
 30
0.0
 40
2.2000000477
 41
0.0
 71
     1
 72
     1
  1
L
  7
SLDTEXTSTYLE9
 73
     1
 44
1.0
  0
MTEXT
  5
7D
330
48
100
AcDbEntity
  8
SLD-0
100
AcDbMText
 10
105.6205344442
 20
7.3422544577
 30
0.0
 40
2.2000000477
 41
0.0
 71
     1
 72
     1
  1
15
  7
SLDTEXTSTYLE10
 73
     1
 44
1.0
  0
MTEXT
  5
7E
330
48
100
AcDbEntity
  8
SLD-0
100
AcDbMText
 10
55.6205420736
 20
7.3422544577
 30
0.0
 40
2.2000000477
 41
0.0
 71
     1
 72
     1
  1
14
  7
SLDTEXTSTYLE10
 73
     1
 44
1.0
  0
MTEXT
  5
7F
330
48
100
AcDbEntity
  8
SLD-0
100
AcDbMText
 10
5.6205420736
 20
7.3422544577
 30
0.0
 40
2.2000000477
 41
0.0
 71
     1
 72
     1
  1
13
  7
SLDTEXTSTYLE10
 73
     1
 44
1.0
  0
MTEXT
  5
80
330
48
100
AcDbEntity
  8
SLD-0
100
AcDbMText
 10
155.6205382589
 20
7.3422544577
 30
0.0
 40
2.2000000477
 41
0.0
 71
     1
 72
     1
  1
16
  7
SLDTEXTSTYLE10
 73
     1
 44
1.0
  0
MTEXT
  5
82
330
48
100
AcDbEntity
  8
SLD-0
100
AcDbMText
 10
73.3377939704
 20
16.0502247309
 30
0.0
 40
5.0
 41
0.0
 71
     1
 72
     1
  1
íÜë∫óØê∏ñßçHã∆äîéÆâÔé–
  7
SLDTEXTSTYLE11
 73
     1
 44
1.0
  0
MTEXT
  5
83
330
48
100
AcDbEntity
  8
SLD-0
100
AcDbMText
 10
139.7987896446
 20
27.0071465819
 30
0.0
 40
3.0
 41
0.0
 71
     1
 72
     1
  1
îNÅ@åéÅ@ì˙
  7
SLDTEXTSTYLE7
 73
     1
 44
1.0
  0
INSERT
  5
89
330
48
100
AcDbEntity
  8
SLD-0
 62
     7
100
AcDbBlockReference
  2
SW_NOTE_1
 10
118.4811533446
 20
22.3263121856
 30
0.0
  0
INSERT
  5
8F
330
48
100
AcDbEntity
  8
SLD-0
 62
     7
100
AcDbBlockReference
  2
SW_NOTE_2
 10
100.4811533446
 20
22.3263121856
 30
0.0
  0
INSERT
  5
95
330
48
100
AcDbEntity
  8
SLD-0
 62
     7
100
AcDbBlockReference
  2
SW_NOTE_3
 10
82.4811533446
 20
22.3263121856
 30
0.0
  0
INSERT
  5
9B
330
48
100
AcDbEntity
  8
SLD-0
 62
     7
100
AcDbBlockReference
  2
SW_NOTE_4
 10
64.4811533446
 20
22.3263121856
 30
0.0
  0
INSERT
  5
A1
330
48
100
AcDbEntity
  8
SLD-0
 62
     7
100
AcDbBlockReference
  2
SW_NOTE_5
 10
64.4811533446
 20
32.4865068332
 30
0.0
  0
INSERT
  5
A7
330
48
100
AcDbEntity
  8
SLD-0
 62
     7
100
AcDbBlockReference
  2
SW_NOTE_6
 10
109.5683944303
 20
32.3975120421
 30
0.0
  0
MTEXT
  5
A9
330
48
100
AcDbEntity
  8
SLD-0
100
AcDbMText
 10
121.0650021079
 20
41.4134595244
 30
0.0
 40
3.0
 41
0.0
 71
     1
 72
     1
  1
ïiÅ@Å@Å@ñº
  7
SLDTEXTSTYLE12
 73
     1
 44
1.0
  0
MTEXT
  5
AA
330
48
100
AcDbEntity
  8
SLD-0
100
AcDbMText
 10
74.9630556328
 20
41.4134595244
 30
0.0
 40
3.0
 41
0.0
 71
     1
 72
     1
  1
ïiÅ@Å@Å@î‘
  7
SLDTEXTSTYLE12
 73
     1
 44
1.0
  0
MTEXT
  5
AB
330
48
100
AcDbEntity
  8
SLD-0
100
AcDbMText
 10
13.7401965939
 20
65.3449380284
 30
0.0
 40
2.0
 41
0.0
 71
     1
 72
     1
  1
ÇOÅDÇQÇÅ
  7
SLDTEXTSTYLE5
 73
     1
 44
1.0
  0
MTEXT
  5
AC
330
48
100
AcDbEntity
  8
SLD-0
100
AcDbMText
 10
21.3438437796
 20
57.2111970634
 30
0.0
 40
2.0
 41
0.0
 71
     1
 72
     1
  1
ÇS
  7
SLDTEXTSTYLE3
 73
     1
 44
1.0
  0
MTEXT
  5
AD
330
48
100
AcDbEntity
  8
SLD-0
100
AcDbMText
 10
0.5027824996
 20
57.611232611
 30
0.0
 40
2.0
 41
0.0
 71
     1
 72
     1
  1
ï]âøí∑ÉT
  7
SLDTEXTSTYLE4
 73
     1
 44
1.0
  0
MTEXT
  5
AF
330
48
100
AcDbEntity
  8
SLD-0
100
AcDbMText
 10
0.7042745137
 20
65.6853199699
 30
0.0
 40
2.0
 41
0.0
 71
     1
 72
     1
  1
Çq
  7
SLDTEXTSTYLE13
 73
     1
 44
1.0
  0
MTEXT
  5
B1
330
48
100
AcDbEntity
  8
SLD-0
100
AcDbMText
 10
3.6158437227
 20
65.4224756241
 30
0.0
 40
2.0
 41
0.0
 71
     1
 72
     1
  1
ÇÅ
  7
SLDTEXTSTYLE14
 73
     1
 44
1.0
  0
MTEXT
  5
B2
330
48
100
AcDbEntity
  8
SLD-0
100
AcDbMText
 10
0.5603274489
 20
69.3198259259
 30
0.0
 40
2.0
 41
0.0
 71
     1
 72
     1
  1
édè„ãLçÜ
  7
SLDTEXTSTYLE4
 73
     1
 44
1.0
  0
MTEXT
  5
B4
330
48
100
AcDbEntity
  8
SLD-0
100
AcDbMText
 10
19.8564645077
 20
73.8778701665
 30
0.0
 40
2.7999999523
 41
0.0
 71
     1
 72
     1
  1
ïWèÄï\ñ ÉAÉâÉT
  7
SLDTEXTSTYLE15
 73
     1
 44
1.0
  0
MTEXT
  5
B6
330
48
100
AcDbEntity
  8
SLD-0
100
AcDbMText
 10
49.9234254117
 20
14.3833892036
 30
0.0
 40
1.5875
 41
0.0
 71
     1
 72
     1
  1
ëÊéOäpñ@
  7
SLDTEXTSTYLE16
 73
     1
 44
1.0
  0
MTEXT
  5
B8
330
48
100
AcDbEntity
  8
SLD-0
100
AcDbMText
 10
32.4733784673
 20
29.3732732269
 30
0.0
 40
2.0
 41
0.0
 71
     1
 72
     1
  1
ÇPÇOÉíâzÉGÇTÇOà»â∫
  7
SLDTEXTSTYLE17
 73
     1
 44
1.0
  0
MTEXT
  5
BA
330
48
100
AcDbEntity
  8
SLD-0
100
AcDbMText
 10
35.0924642579
 20
25.4696050396
 30
0.0
 40
2.0
 41
0.0
 71
     1
 72
     1
  1
50 ÅV  120 ÅV
  7
SLDTEXTSTYLE18
 73
     1
 44
1.0
  0
MTEXT
  5
BC
330
48
100
AcDbEntity
  8
SLD-0
100
AcDbMText
 10
34.0313270927
 20
21.694737643
 30
0.0
 40
2.0
 41
0.0
 71
     1
 72
     1
  1
120 ÅV  400 ÅV
  7
SLDTEXTSTYLE19
 73
     1
 44
1.0
  0
MTEXT
  5
BE
330
48
100
AcDbEntity
  8
SLD-0
100
AcDbMText
 10
23.1733485702
 20
21.4016755554
 30
0.0
 40
2.0
 41
0.0
 71
     1
 72
     1
  1
+
  7
SLDTEXTSTYLE20
 73
     1
 44
1.0
  0
MTEXT
  5
BF
330
48
100
AcDbEntity
  8
SLD-0
100
AcDbMText
 10
23.1720820907
 20
20.4729512664
 30
0.0
 40
2.0
 41
0.0
 71
     1
 72
     1
  1
-
  7
SLDTEXTSTYLE20
 73
     1
 44
1.0
  0
MTEXT
  5
C1
330
48
100
AcDbEntity
  8
SLD-0
100
AcDbMText
 10
34.7206822279
 20
33.3732732269
 30
0.0
 40
2.0
 41
0.0
 71
     1
 72
     1
  1
ÇPÇOà»â∫
  7
SLDTEXTSTYLE21
 73
     1
 44
1.0
  0
MTEXT
  5
C3
330
48
100
AcDbEntity
  8
SLD-0
100
AcDbMText
 10
5.4877995136
 20
21.482032398
 30
0.0
 40
2.0
 41
0.0
 71
     1
 72
     1
  1
400  "1000  "
  7
SLDTEXTSTYLE22
 73
     1
 44
1.0
  0
INSERT
  5
CA
330
48
100
AcDbEntity
  8
SLD-0
 62
     7
100
AcDbBlockReference
  2
SW_NOTE_7
 10
33.9112870556
 20
37.7775968121
 30
0.0
  0
MTEXT
  5
CC
330
48
100
AcDbEntity
  8
SLD-0
100
AcDbMText
 10
54.2899740453
 20
39.4306413591
 30
0.0
 40
2.5
 41
0.0
 71
     1
 72
     1
  1
äpìx
  7
SLDTEXTSTYLE24
 73
     1
 44
1.0
  0
MTEXT
  5
CE
330
48
100
AcDbEntity
  8
SLD-0
100
AcDbMText
 10
9.1009304765
 20
45.6244722819
 30
0.0
 40
2.5
 41
0.0
 71
     1
 72
     1
  1
í∑Å@Å@ÉT
  7
SLDTEXTSTYLE25
 73
     1
 44
1.0
  0
MTEXT
  5
D0
330
48
100
AcDbEntity
  8
SLD-0
100
AcDbMText
 10
22.2999572389
 20
41.7846669295
 30
0.0
 40
2.5
 41
0.0
 71
     1
 72
     1
  1
íÜãâ
  7
SLDTEXTSTYLE26
 73
     1
 44
1.0
  0
MTEXT
  5
D1
330
48
100
AcDbEntity
  8
SLD-0
100
AcDbMText
 10
2.3510357848
 20
41.6466509318
 30
0.0
 40
2.5
 41
0.0
 71
     1
 72
     1
  1
ê°ñ@ãÊï™
  7
SLDTEXTSTYLE25
 73
     1
 44
1.0
  0
MTEXT
  5
D2
330
48
100
AcDbEntity
  8
SLD-0
100
AcDbMText
 10
41.6009304765
 20
45.6244722819
 30
0.0
 40
2.5
 41
0.0
 71
     1
 72
     1
  1
äpÅ@Å@ìx
  7
SLDTEXTSTYLE25
 73
     1
 44
1.0
  0
MTEXT
  5
D4
330
48
100
AcDbEntity
  8
SLD-0
100
AcDbMText
 10
25.0352275613
 20
37.1497815582
 30
0.0
 40
2.0
 41
0.0
 71
     1
 72
     1
  1
0.1
  7
SLDTEXTSTYLE27
 73
     1
 44
1.0
  0
MTEXT
  5
D5
330
48
100
AcDbEntity
  8
SLD-0
100
AcDbMText
 10
23.1720820907
 20
32.4729512664
 30
0.0
 40
2.0
 41
0.0
 71
     1
 72
     1
  1
-
  7
SLDTEXTSTYLE20
 73
     1
 44
1.0
  0
MTEXT
  5
D6
330
48
100
AcDbEntity
  8
SLD-0
100
AcDbMText
 10
23.1733485702
 20
33.401673648
 30
0.0
 40
2.0
 41
0.0
 71
     1
 72
     1
  1
+
  7
SLDTEXTSTYLE20
 73
     1
 44
1.0
  0
MTEXT
  5
D8
330
48
100
AcDbEntity
  8
SLD-0
100
AcDbMText
 10
7.7951232083
 20
33.3857498054
 30
0.0
 40
2.0
 41
0.0
 71
     1
 72
     1
  1
6  "  30  "
  7
SLDTEXTSTYLE28
 73
     1
 44
1.0
  0
MTEXT
  5
D9
330
48
100
AcDbEntity
  8
SLD-0
100
AcDbMText
 10
23.1720820907
 20
28.4729512664
 30
0.0
 40
2.0
 41
0.0
 71
     1
 72
     1
  1
-
  7
SLDTEXTSTYLE20
 73
     1
 44
1.0
  0
MTEXT
  5
DA
330
48
100
AcDbEntity
  8
SLD-0
100
AcDbMText
 10
23.0546951066
 20
29.3958461658
 30
0.0
 40
2.0
 41
0.0
 71
     1
 72
     1
  1
+
  7
SLDTEXTSTYLE20
 73
     1
 44
1.0
  0
MTEXT
  5
DC
330
48
100
AcDbEntity
  8
SLD-0
100
AcDbMText
 10
6.6157436228
 20
29.4849765071
 30
0.0
 40
2.0
 41
0.0
 71
     1
 72
     1
  1
30  " 120  "
  7
SLDTEXTSTYLE29
 73
     1
 44
1.0
  0
MTEXT
  5
DD
330
48
100
AcDbEntity
  8
SLD-0
100
AcDbMText
 10
23.1720820907
 20
24.4729512664
 30
0.0
 40
2.0
 41
0.0
 71
     1
 72
     1
  1
-
  7
SLDTEXTSTYLE20
 73
     1
 44
1.0
  0
MTEXT
  5
DE
330
48
100
AcDbEntity
  8
SLD-0
100
AcDbMText
 10
23.1733485702
 20
25.4016755554
 30
0.0
 40
2.0
 41
0.0
 71
     1
 72
     1
  1
+
  7
SLDTEXTSTYLE20
 73
     1
 44
1.0
  0
MTEXT
  5
E0
330
48
100
AcDbEntity
  8
SLD-0
100
AcDbMText
 10
5.4877995136
 20
25.376217336
 30
0.0
 40
2.0
 41
0.0
 71
     1
 72
     1
  1
120  " 400  "
  7
SLDTEXTSTYLE30
 73
     1
 44
1.0
  0
MTEXT
  5
E1
330
48
100
AcDbEntity
  8
SLD-0
100
AcDbMText
 10
23.1720820907
 20
16.4729512664
 30
0.0
 40
2.0
 41
0.0
 71
     1
 72
     1
  1
-
  7
SLDTEXTSTYLE20
 73
     1
 44
1.0
  0
MTEXT
  5
E2
330
48
100
AcDbEntity
  8
SLD-0
100
AcDbMText
 10
23.1733485702
 20
17.4016755554
 30
0.0
 40
2.0
 41
0.0
 71
     1
 72
     1
  1
+
  7
SLDTEXTSTYLE20
 73
     1
 44
1.0
  0
MTEXT
  5
E4
330
48
100
AcDbEntity
  8
SLD-0
100
AcDbMText
 10
4.3686877319
 20
17.6451711546
 30
0.0
 40
2.0
 41
0.0
 71
     1
 72
     1
  1
1000  "2000  "
  7
SLDTEXTSTYLE31
 73
     1
 44
1.0
  0
MTEXT
  5
E5
330
48
100
AcDbEntity
  8
SLD-0
100
AcDbMText
 10
23.1720820907
 20
11.9729522201
 30
0.0
 40
2.0
 41
0.0
 71
     1
 72
     1
  1
-
  7
SLDTEXTSTYLE20
 73
     1
 44
1.0
  0
MTEXT
  5
E6
330
48
100
AcDbEntity
  8
SLD-0
100
AcDbMText
 10
23.1733485702
 20
12.9016755554
 30
0.0
 40
2.0
 41
0.0
 71
     1
 72
     1
  1
+
  7
SLDTEXTSTYLE20
 73
     1
 44
1.0
  0
MTEXT
  5
E8
330
48
100
AcDbEntity
  8
SLD-0
100
AcDbMText
 10
4.3657436228
 20
13.0878465063
 30
0.0
 40
2.0
 41
0.0
 71
     1
 72
     1
  1
2000  "4000  "
  7
SLDTEXTSTYLE32
 73
     1
 44
1.0
  0
MTEXT
  5
E9
330
48
100
AcDbEntity
  8
SLD-0
100
AcDbMText
 10
23.1720820907
 20
36.4729512664
 30
0.0
 40
2.0
 41
0.0
 71
     1
 72
     1
  1
-
  7
SLDTEXTSTYLE20
 73
     1
 44
1.0
  0
MTEXT
  5
EA
330
48
100
AcDbEntity
  8
SLD-0
100
AcDbMText
 10
23.1733485702
 20
37.401673648
 30
0.0
 40
2.0
 41
0.0
 71
     1
 72
     1
  1
+
  7
SLDTEXTSTYLE20
 73
     1
 44
1.0
  0
MTEXT
  5
EC
330
48
100
AcDbEntity
  8
SLD-0
100
AcDbMText
 10
0.8223781817
 20
37.4656158541
 30
0.0
 40
2.0
 41
0.0
 71
     1
 72
     1
  1
ÇPÉíâzÉGÇUà»â∫
  7
SLDTEXTSTYLE33
 73
     1
 44
1.0
  0
MTEXT
  5
ED
330
48
100
AcDbEntity
  8
SLD-0
 62
     7
100
AcDbMText
 10
156.9615179496
 20
40.9537125219
 30
0.0
 40
2.6458333333
 41
0.0
 71
     1
 72
     1
  1
çﬁÅ@éø
  7
SLDTEXTSTYLE2
 73
     1
 44
1.0
  0
MTEXT
  5
EE
330
48
100
AcDbEntity
  8
SLD-0
 62
     7
100
AcDbMText
 10
171.8750213975
 20
40.9537125219
 30
0.0
 40
2.6458333333
 41
0.0
 71
     1
 72
     1
  1
å¬êî
  7
SLDTEXTSTYLE2
 73
     1
 44
1.0
  0
ENDBLK
  5
4A
330
48
100
AcDbEntity
  8
0
100
AcDbBlockEnd
  0
BLOCK
  5
4E
330
4D
100
AcDbEntity
  8
0
100
AcDbBlockBegin
  2
SW_NOTE_0
 70
     0
 10
0.0
 20
0.0
 30
0.0
  3
SW_NOTE_0
  1

  0
MTEXT
  5
51
330
4D
100
AcDbEntity
  8
SLD-0
 62
     0
100
AcDbMText
 10
0.0
 20
3.8672032193
 30
0.0
 40
3.0
 41
0.0
 71
     1
 72
     1
  1
ñá
  7
SLDTEXTSTYLE1
 73
     1
 44
1.0
  0
MTEXT
  5
52
330
4D
100
AcDbEntity
  8
SLD-0
 62
     0
100
AcDbMText
 10
0.0
 20
0.2672032812
 30
0.0
 40
3.0
 41
0.0
 71
     1
 72
     1
  1
êî
  7
SLDTEXTSTYLE1
 73
     1
 44
1.0
  0
ENDBLK
  5
4F
330
4D
100
AcDbEntity
  8
0
100
AcDbBlockEnd
  0
BLOCK
  5
85
330
84
100
AcDbEntity
  8
0
100
AcDbBlockBegin
  2
SW_NOTE_1
 70
     0
 10
0.0
 20
0.0
 30
0.0
  3
SW_NOTE_1
  1

  0
MTEXT
  5
87
330
84
100
AcDbEntity
  8
SLD-0
 62
     0
100
AcDbMText
 10
0.0
 20
3.8672032193
 30
0.0
 40
3.0
 41
0.0
 71
     1
 72
     1
  1
çÏ
  7
SLDTEXTSTYLE1
 73
     1
 44
1.0
  0
MTEXT
  5
88
330
84
100
AcDbEntity
  8
SLD-0
 62
     0
100
AcDbMText
 10
0.0
 20
0.2672032812
 30
0.0
 40
3.0
 41
0.0
 71
     1
 72
     1
  1
ê¨
  7
SLDTEXTSTYLE1
 73
     1
 44
1.0
  0
ENDBLK
  5
86
330
84
100
AcDbEntity
  8
0
100
AcDbBlockEnd
  0
BLOCK
  5
8B
330
8A
100
AcDbEntity
  8
0
100
AcDbBlockBegin
  2
SW_NOTE_2
 70
     0
 10
0.0
 20
0.0
 30
0.0
  3
SW_NOTE_2
  1

  0
MTEXT
  5
8D
330
8A
100
AcDbEntity
  8
SLD-0
 62
     0
100
AcDbMText
 10
0.0
 20
3.8672032193
 30
0.0
 40
3.0
 41
0.0
 71
     1
 72
     1
  1
ê›
  7
SLDTEXTSTYLE1
 73
     1
 44
1.0
  0
MTEXT
  5
8E
330
8A
100
AcDbEntity
  8
SLD-0
 62
     0
100
AcDbMText
 10
0.0
 20
0.2672032812
 30
0.0
 40
3.0
 41
0.0
 71
     1
 72
     1
  1
åv
  7
SLDTEXTSTYLE1
 73
     1
 44
1.0
  0
ENDBLK
  5
8C
330
8A
100
AcDbEntity
  8
0
100
AcDbBlockEnd
  0
BLOCK
  5
91
330
90
100
AcDbEntity
  8
0
100
AcDbBlockBegin
  2
SW_NOTE_3
 70
     0
 10
0.0
 20
0.0
 30
0.0
  3
SW_NOTE_3
  1

  0
MTEXT
  5
93
330
90
100
AcDbEntity
  8
SLD-0
 62
     0
100
AcDbMText
 10
0.0
 20
3.8672032193
 30
0.0
 40
3.0
 41
0.0
 71
     1
 72
     1
  1
åü
  7
SLDTEXTSTYLE1
 73
     1
 44
1.0
  0
MTEXT
  5
94
330
90
100
AcDbEntity
  8
SLD-0
 62
     0
100
AcDbMText
 10
0.0
 20
0.2672032812
 30
0.0
 40
3.0
 41
0.0
 71
     1
 72
     1
  1
ê}
  7
SLDTEXTSTYLE1
 73
     1
 44
1.0
  0
ENDBLK
  5
92
330
90
100
AcDbEntity
  8
0
100
AcDbBlockEnd
  0
BLOCK
  5
97
330
96
100
AcDbEntity
  8
0
100
AcDbBlockBegin
  2
SW_NOTE_4
 70
     0
 10
0.0
 20
0.0
 30
0.0
  3
SW_NOTE_4
  1

  0
MTEXT
  5
99
330
96
100
AcDbEntity
  8
SLD-0
 62
     0
100
AcDbMText
 10
0.0
 20
3.8672032193
 30
0.0
 40
3.0
 41
0.0
 71
     1
 72
     1
  1
è≥
  7
SLDTEXTSTYLE1
 73
     1
 44
1.0
  0
MTEXT
  5
9A
330
96
100
AcDbEntity
  8
SLD-0
 62
     0
100
AcDbMText
 10
0.0
 20
0.2672032812
 30
0.0
 40
3.0
 41
0.0
 71
     1
 72
     1
  1
îF
  7
SLDTEXTSTYLE1
 73
     1
 44
1.0
  0
ENDBLK
  5
98
330
96
100
AcDbEntity
  8
0
100
AcDbBlockEnd
  0
BLOCK
  5
9D
330
9C
100
AcDbEntity
  8
0
100
AcDbBlockBegin
  2
SW_NOTE_5
 70
     0
 10
0.0
 20
0.0
 30
0.0
  3
SW_NOTE_5
  1

  0
MTEXT
  5
9F
330
9C
100
AcDbEntity
  8
SLD-0
 62
     0
100
AcDbMText
 10
0.0
 20
3.8672032193
 30
0.0
 40
3.0
 41
0.0
 71
     1
 72
     1
  1
ã@
  7
SLDTEXTSTYLE1
 73
     1
 44
1.0
  0
MTEXT
  5
A0
330
9C
100
AcDbEntity
  8
SLD-0
 62
     0
100
AcDbMText
 10
0.0
 20
0.2672032812
 30
0.0
 40
3.0
 41
0.0
 71
     1
 72
     1
  1
éÌ
  7
SLDTEXTSTYLE1
 73
     1
 44
1.0
  0
ENDBLK
  5
9E
330
9C
100
AcDbEntity
  8
0
100
AcDbBlockEnd
  0
BLOCK
  5
A3
330
A2
100
AcDbEntity
  8
0
100
AcDbBlockBegin
  2
SW_NOTE_6
 70
     0
 10
0.0
 20
0.0
 30
0.0
  3
SW_NOTE_6
  1

  0
MTEXT
  5
A5
330
A2
100
AcDbEntity
  8
SLD-0
 62
     0
100
AcDbMText
 10
0.0
 20
3.8672032193
 30
0.0
 40
3.0
 41
0.0
 71
     1
 72
     1
  1
ê}
  7
SLDTEXTSTYLE1
 73
     1
 44
1.0
  0
MTEXT
  5
A6
330
A2
100
AcDbEntity
  8
SLD-0
 62
     0
100
AcDbMText
 10
0.0
 20
0.2672032812
 30
0.0
 40
3.0
 41
0.0
 71
     1
 72
     1
  1
î‘
  7
SLDTEXTSTYLE1
 73
     1
 44
1.0
  0
ENDBLK
  5
A4
330
A2
100
AcDbEntity
  8
0
100
AcDbBlockEnd
  0
BLOCK
  5
C5
330
C4
100
AcDbEntity
  8
0
100
AcDbBlockBegin
  2
SW_NOTE_7
 70
     0
 10
0.0
 20
0.0
 30
0.0
  3
SW_NOTE_7
  1

  0
MTEXT
  5
C8
330
C4
100
AcDbEntity
  8
SLD-0
 62
     0
100
AcDbMText
 10
0.0
 20
3.2226693494
 30
0.0
 40
2.5
 41
0.0
 71
     1
 72
     1
  1
íZÉCï”Ém
  7
SLDTEXTSTYLE23
 73
     1
 44
1.0
  0
MTEXT
  5
C9
330
C4
100
AcDbEntity
  8
SLD-0
 62
     0
100
AcDbMText
 10
0.0
 20
0.2226693234
 30
0.0
 40
2.5
 41
0.0
 71
     1
 72
     1
  1
í∑ÉTãÊï™
  7
SLDTEXTSTYLE23
 73
     1
 44
1.0
  0
ENDBLK
  5
C6
330
C4
100
AcDbEntity
  8
0
100
AcDbBlockEnd
  0
BLOCK
  5
F0
330
EF
100
AcDbEntity
  8
0
100
AcDbBlockBegin
  2
Ãﬁ€Ø∏2
 70
     0
 10
0.0
 20
0.0
 30
0.0
  3
Ãﬁ€Ø∏2
  1

  0
MTEXT
  5
F3
330
EF
100
AcDbEntity
  8
SLD-0
100
AcDbMText
 10
107.1102473621
 20
11.647550955
 30
0.0
 40
3.2000000477
 41
0.0
 71
     1
 72
     1
  1
é¿é{
  7
SLDTEXTSTYLE34
 73
     1
 44
1.0
  0
MTEXT
  5
F5
330
EF
100
AcDbEntity
  8
SLD-0
100
AcDbMText
 10
123.0707627632
 20
9.1611687946
 30
0.0
 40
3.0
 41
0.0
 71
     1
 72
     1
  1
ïœ çX éû
  7
SLDTEXTSTYLE35
 73
     1
 44
1.0
  0
MTEXT
  5
F7
330
EF
100
AcDbEntity
  8
SLD-0
100
AcDbMText
 10
131.9130096402
 20
13.9028219066
 30
0.0
 40
3.0
 41
0.0
 71
     1
 72
     1
  1
è≥ îF
  7
SLDTEXTSTYLE36
 73
     1
 44
1.0
  0
MTEXT
  5
F8
330
EF
100
AcDbEntity
  8
SLD-0
100
AcDbMText
 10
121.8795116177
 20
13.9028219066
 30
0.0
 40
3.0
 41
0.0
 71
     1
 72
     1
  1
åü ê}
  7
SLDTEXTSTYLE36
 73
     1
 44
1.0
  0
MTEXT
  5
F9
330
EF
100
AcDbEntity
  8
SLD-0
100
AcDbMText
 10
-0.0254190603
 20
2.7165794402
 30
0.0
 40
2.2000000477
 41
0.0
 71
     1
 72
     1
  1
L
  7
SLDTEXTSTYLE9
 73
     1
 44
1.0
  0
MTEXT
  5
FA
330
EF
100
AcDbEntity
  8
SLD-0
100
AcDbMText
 10
-0.0254190603
 20
55.2165794402
 30
0.0
 40
2.2000000477
 41
0.0
 71
     1
 72
     1
  1
K
  7
SLDTEXTSTYLE9
 73
     1
 44
1.0
  0
MTEXT
  5
FB
330
EF
100
AcDbEntity
  8
SLD-0
100
AcDbMText
 10
76.915315803
 20
2.8713283568
 30
0.0
 40
2.2000000477
 41
0.0
 71
     1
 72
     1
  1
2
  7
SLDTEXTSTYLE9
 73
     1
 44
1.0
  0
MTEXT
  5
FC
330
EF
100
AcDbEntity
  8
SLD-0
100
AcDbMText
 10
126.915315803
 20
2.8713283568
 30
0.0
 40
2.2000000477
 41
0.0
 71
     1
 72
     1
  1
3
  7
SLDTEXTSTYLE9
 73
     1
 44
1.0
  0
MTEXT
  5
FD
330
EF
100
AcDbEntity
  8
SLD-0
100
AcDbMText
 10
176.915315803
 20
2.8713283568
 30
0.0
 40
2.2000000477
 41
0.0
 71
     1
 72
     1
  1
4
  7
SLDTEXTSTYLE9
 73
     1
 44
1.0
  0
MTEXT
  5
FE
330
EF
100
AcDbEntity
  8
SLD-0
100
AcDbMText
 10
26.915315803
 20
2.8713283568
 30
0.0
 40
2.2000000477
 41
0.0
 71
     1
 72
     1
  1
1
  7
SLDTEXTSTYLE9
 73
     1
 44
1.0
  0
MTEXT
  5
100
330
EF
100
AcDbEntity
  8
SLD-0
100
AcDbMText
 10
96.3065726122
 20
9.2656772998
 30
0.0
 40
2.5
 41
0.0
 71
     1
 72
     1
  1
No.
  7
SLDTEXTSTYLE37
 73
     1
 44
1.0
  0
MTEXT
  5
102
330
EF
100
AcDbEntity
  8
SLD-0
100
AcDbMText
 10
3.8024826401
 20
11.2472370532
 30
0.0
 40
2.5
 41
0.0
 71
     1
 72
     1
  1
ïœçXãLçÜ
  7
SLDTEXTSTYLE38
 73
     1
 44
1.0
  0
MTEXT
  5
104
330
EF
100
AcDbEntity
  8
SLD-0
100
AcDbMText
 10
85.3111122555
 20
11.6238207329
 30
0.0
 40
3.2000000477
 41
0.0
 71
     1
 72
     1
  1
àÛ
  7
SLDTEXTSTYLE39
 73
     1
 44
1.0
  0
MTEXT
  5
106
330
EF
100
AcDbEntity
  8
SLD-0
100
AcDbMText
 10
67.7753304845
 20
11.5425723936
 30
0.0
 40
3.2000000477
 41
0.0
 71
     1
 72
     1
  1
ì˙Å@ït
  7
SLDTEXTSTYLE40
 73
     1
 44
1.0
  0
MTEXT
  5
108
330
EF
100
AcDbEntity
  8
SLD-0
100
AcDbMText
 10
26.4548379848
 20
11.078514067
 30
0.0
 40
3.2000000477
 41
0.0
 71
     1
 72
     1
  1
ïœÅ@çXÅ@ì‡Å@óe
  7
SLDTEXTSTYLE41
 73
     1
 44
1.0
  0
MTEXT
  5
10A
330
EF
100
AcDbEntity
  8
SLD-0
100
AcDbMText
 10
94.4832258316
 20
12.3216217426
 30
0.0
 40
2.5
 41
0.0
 71
     1
 72
     1
  1
ïœçX
  7
SLDTEXTSTYLE42
 73
     1
 44
1.0
  0
ENDBLK
  5
F1
330
EF
100
AcDbEntity
  8
0
100
AcDbBlockEnd
  0
BLOCK
  5
10C
330
10B
100
AcDbEntity
  8
0
100
AcDbBlockBegin
  2
Ãﬁ€Ø∏3
 70
     0
 10
0.0
 20
0.0
 30
0.0
  3
Ãﬁ€Ø∏3
  1

  0
MTEXT
  5
10F
330
10B
100
AcDbEntity
  8
SLD-0
100
AcDbMText
 10
7.1073182143
 20
76.8750142948
 30
0.0
 40
2.5
 41
0.0
 71
     1
 72
     1
  1
çdÅ@Å@Å@ÉT
  7
SLDTEXTSTYLE43
 73
     1
 44
1.0
  0
MTEXT
  5
110
330
10B
100
AcDbEntity
  8
SLD-0
100
AcDbMText
 10
1.0669035822
 20
22.0189879106
 30
0.0
 40
3.175
 41
0.0
 71
     1
 72
     1
  1
ãLéñ
  7
SLDTEXTSTYLE2
 73
     1
 44
1.0
  0
MTEXT
  5
112
330
10B
100
AcDbEntity
  8
SLD-0
100
AcDbMText
 10
6.5928932458
 20
34.6387000726
 30
0.0
 40
2.5
 41
0.0
 71
     1
 72
     1
  1
ñ éÊÇË
  7
SLDTEXTSTYLE44
 73
     1
 44
1.0
  0
MTEXT
  5
113
330
10B
100
AcDbEntity
  8
SLD-0
100
AcDbMText
 10
2.7828194191
 20
51.4030249102
 30
0.0
 40
2.5
 41
0.0
 71
     1
 72
     1
  1
ï\ñ édè„Ç∞
  7
SLDTEXTSTYLE44
 73
     1
 44
1.0
  0
MTEXT
  5
114
330
10B
100
AcDbEntity
  8
SLD-0
100
AcDbMText
 10
12.0238487899
 20
21.5324740554
 30
0.0
 40
3.175
 41
0.0
 71
     1
 72
     1
  1
t=
  7
SLDTEXTSTYLE2
 73
     1
 44
1.0
  0
MTEXT
  5
115
330
10B
100
AcDbEntity
  8
SLD-0
100
AcDbMText
 10
3.581682728
 20
10.8549468286
 30
0.0
 40
2.38125
 41
0.0
 71
     1
 72
     1
  1
áu
  7
SLDTEXTSTYLE2
 73
     1
 44
1.0
  0
MTEXT
  5
116
330
10B
100
AcDbEntity
  8
SLD-0
100
AcDbMText
 10
0.0673459066
 20
14.8846000572
 30
0.0
 40
2.6458333333
 41
0.0
 71
     1
 72
     1
  1
ï\ñ êœ
  7
SLDTEXTSTYLE2
 73
     1
 44
1.0
  0
MTEXT
  5
117
330
10B
100
AcDbEntity
  8
SLD-0
100
AcDbMText
 10
3.72944657
 20
3.2739290897
 30
0.0
 40
2.6458333333
 41
0.0
 71
     1
 72
     1
  1
kg
  7
SLDTEXTSTYLE2
 73
     1
 44
1.0
  0
MTEXT
  5
118
330
10B
100
AcDbEntity
  8
SLD-0
100
AcDbMText
 10
5.2582885541
 20
96.5541898269
 30
0.0
 40
2.2000000477
 41
0.0
 71
     1
 72
     1
  1
16
  7
SLDTEXTSTYLE10
 73
     1
 44
1.0
  0
MTEXT
  5
119
330
10B
100
AcDbEntity
  8
SLD-0
100
AcDbMText
 10
32.1989967145
 20
44.2089749832
 30
0.0
 40
2.2000000477
 41
0.0
 71
     1
 72
     1
  1
B
  7
SLDTEXTSTYLE9
 73
     1
 44
1.0
  0
MTEXT
  5
11A
330
10B
100
AcDbEntity
  8
SLD-0
100
AcDbMText
 10
6.9090188063
 20
91.450087537
 30
0.0
 40
2.5
 41
0.0
 71
     1
 72
     1
  1
îMÅ@èàÅ@óù
  7
SLDTEXTSTYLE43
 73
     1
 44
1.0
  0
MTEXT
  5
11B
330
10B
100
AcDbEntity
  8
SLD-0
100
AcDbMText
 10
5.6457246431
 20
64.5803975956
 30
0.0
 40
2.5
 41
0.0
 71
     1
 72
     1
  1
ï\ñ èàóù
  7
SLDTEXTSTYLE44
 73
     1
 44
1.0
  0
MTEXT
  5
11C
330
10B
100
AcDbEntity
  8
SLD-0
100
AcDbMText
 10
32.1989967145
 20
96.7089749832
 30
0.0
 40
2.2000000477
 41
0.0
 71
     1
 72
     1
  1
A
  7
SLDTEXTSTYLE9
 73
     1
 44
1.0
  0
MTEXT
  5
11E
330
10B
100
AcDbEntity
  8
SLD-0
100
AcDbMText
 10
0.6319857713
 20
7.4359760318
 30
0.0
 40
3.2000000477
 41
0.0
 71
     1
 72
     1
  1
èd ó 
  7
SLDTEXTSTYLE45
 73
     1
 44
1.0
  0
ENDBLK
  5
10D
330
10B
100
AcDbEntity
  8
0
100
AcDbBlockEnd
  0
BLOCK
  5
292
330
291
100
AcDbEntity
  8
0
100
AcDbBlockBegin
  2
_NONE
 70
     0
 10
0.0
 20
0.0
 30
0.0
  3
_NONE
  1

  0
ENDBLK
  5
293
330
291
100
AcDbEntity
  8
0
100
AcDbBlockEnd
  0
BLOCK
  5
295
330
294
100
AcDbEntity
  8
0
100
AcDbBlockBegin
  2
*D13
 70
     1
 10
0.0
 20
0.0
 30
0.0
  3
*D13
  1

  0
LINE
  5
297
330
294
100
AcDbEntity
  8
AM_5
100
AcDbLine
 10
154.9973789644
 20
123.1581266973
 30
0.0
 11
154.9973789644
 21
97.8788449245
 31
0.0
  0
LINE
  5
298
330
294
100
AcDbEntity
  8
AM_5
100
AcDbLine
 10
185.0
 20
119.0
 30
0.0
 11
185.0
 21
97.8788449245
 31
0.0
  0
LINE
  5
299
330
294
100
AcDbEntity
  8
AM_5
100
AcDbLine
 10
158.4973789644
 20
98.8788449245
 30
0.0
 11
181.5
 21
98.8788449245
 31
0.0
  0
MTEXT
  5
29B
330
294
100
AcDbEntity
  8
AM_5
100
AcDbMText
 10
167.4854622054
 20
104.1388717945
 30
0.1
 40
3.5
 41
0.0
 71
     1
 72
     1
  1
30
  7
SLDTEXTSTYLE48
 73
     1
 44
1.0
  0
SOLID
  5
29C
330
294
100
AcDbEntity
  8
AM_5
100
AcDbTrace
 10
158.4973789644
 20
99.4621782578
 30
0.0
 11
158.4973789644
 21
98.2955115912
 31
0.0
 12
154.9973789644
 22
98.8788449245
 32
0.0
 13
154.9973789644
 23
98.8788449245
 33
0.0
  0
SOLID
  5
29D
330
294
100
AcDbEntity
  8
AM_5
100
AcDbTrace
 10
181.5
 20
99.4621782578
 30
0.0
 11
181.5
 21
98.2955115912
 31
0.0
 12
185.0
 22
98.8788449245
 32
0.0
 13
185.0
 23
98.8788449245
 33
0.0
  0
ENDBLK
  5
296
330
294
100
AcDbEntity
  8
0
100
AcDbBlockEnd
  0
BLOCK
  5
2A0
330
29F
100
AcDbEntity
  8
0
100
AcDbBlockBegin
  2
*D14
 70
     1
 10
0.0
 20
0.0
 30
0.0
  3
*D14
  1

  0
LINE
  5
2A2
330
29F
100
AcDbEntity
  8
AM_5
100
AcDbLine
 10
149.1581725412
 20
124.9973326973
 30
0.0
 11
203.2201087107
 21
124.9973326973
 31
0.0
  0
LINE
  5
2A3
330
29F
100
AcDbEntity
  8
AM_5
100
AcDbLine
 10
176.0
 20
130.0
 30
0.0
 11
203.2201087107
 21
130.0
 31
0.0
  0
LINE
  5
2A4
330
29F
100
AcDbEntity
  8
AM_5
100
AcDbLine
 10
202.2201087107
 20
121.4973326973
 30
0.0
 11
202.2201087107
 21
117.9973326973
 31
0.0
  0
LINE
  5
2A5
330
29F
100
AcDbEntity
  8
AM_5
100
AcDbLine
 10
202.2201087107
 20
133.5
 30
0.0
 11
202.2201087107
 21
137.0
 31
0.0
  0
LINE
  5
2A6
330
29F
100
AcDbEntity
  8
AM_5
100
AcDbLine
 10
202.2201087107
 20
124.9973326973
 30
0.0
 11
202.2201087107
 21
130.0
 31
0.0
  0
MTEXT
  5
2A7
330
29F
100
AcDbEntity
  8
AM_5
100
AcDbMText
 10
196.9600818406
 20
126.2420527102
 30
0.1
 40
3.5
 41
0.0
 71
     1
 72
     1
  1
5
  7
SLDTEXTSTYLE48
 11
6.123233995736766E-17
 21
1.0
 31
0.0
 73
     1
 44
1.0
  0
SOLID
  5
2A8
330
29F
100
AcDbEntity
  8
AM_5
100
AcDbTrace
 10
201.6367753773
 20
121.4973326973
 30
0.0
 11
202.803442044
 21
121.4973326973
 31
0.0
 12
202.2201087107
 22
124.9973326973
 32
0.0
 13
202.2201087107
 23
124.9973326973
 33
0.0
  0
SOLID
  5
2A9
330
29F
100
AcDbEntity
  8
AM_5
100
AcDbTrace
 10
201.6367753773
 20
133.5
 30
0.0
 11
202.803442044
 21
133.5
 31
0.0
 12
202.2201087107
 22
130.0
 32
0.0
 13
202.2201087107
 23
130.0
 33
0.0
  0
ENDBLK
  5
2A1
330
29F
100
AcDbEntity
  8
0
100
AcDbBlockEnd
  0
BLOCK
  5
2AC
330
2AB
100
AcDbEntity
  8
0
100
AcDbBlockBegin
  2
*D15
 70
     1
 10
0.0
 20
0.0
 30
0.0
  3
*D15
  1

  0
LINE
  5
2AE
330
2AB
100
AcDbEntity
  8
AM_5
100
AcDbLine
 10
176.0
 20
130.0
 30
0.0
 11
245.402645693
 21
130.0
 31
0.0
  0
LINE
  5
2AF
330
2AB
100
AcDbEntity
  8
AM_5
100
AcDbLine
 10
176.0
 20
-130.0
 30
0.0
 11
245.402645693
 21
-130.0
 31
0.0
  0
LINE
  5
2B0
330
2AB
100
AcDbEntity
  8
AM_5
100
AcDbLine
 10
244.402645693
 20
126.5
 30
0.0
 11
244.402645693
 21
-126.5
 31
0.0
  0
MTEXT
  5
2B1
330
2AB
100
AcDbEntity
  8
AM_5
100
AcDbMText
 10
239.1422743348
 20
-3.7698409152
 30
0.1
 40
3.5
 41
0.0
 71
     1
 72
     1
  1
260
  7
SLDTEXTSTYLE48
 11
6.123233995736766E-17
 21
1.0
 31
0.0
 73
     1
 44
1.0
  0
SOLID
  5
2B2
330
2AB
100
AcDbEntity
  8
AM_5
100
AcDbTrace
 10
243.8193123597
 20
126.5
 30
0.0
 11
244.9859790264
 21
126.5
 31
0.0
 12
244.402645693
 22
130.0
 32
0.0
 13
244.402645693
 23
130.0
 33
0.0
  0
SOLID
  5
2B3
330
2AB
100
AcDbEntity
  8
AM_5
100
AcDbTrace
 10
243.8193123597
 20
-126.5
 30
0.0
 11
244.9859790264
 21
-126.5
 31
0.0
 12
244.402645693
 22
-130.0
 32
0.0
 13
244.402645693
 23
-130.0
 33
0.0
  0
ENDBLK
  5
2AD
330
2AB
100
AcDbEntity
  8
0
100
AcDbBlockEnd
  0
BLOCK
  5
2B6
330
2B5
100
AcDbEntity
  8
0
100
AcDbBlockBegin
  2
*D16
 70
     1
 10
0.0
 20
0.0
 30
0.0
  3
*D16
  1

  0
LINE
  5
2B8
330
2B5
100
AcDbEntity
  8
AM_5
100
AcDbLine
 10
185.0
 20
-121.0
 30
0.0
 11
185.0
 21
-162.3482406556
 31
0.0
  0
LINE
  5
2B9
330
2B5
100
AcDbEntity
  8
AM_5
100
AcDbLine
 10
-185.0
 20
-121.0
 30
0.0
 11
-185.0
 21
-162.3482406556
 31
0.0
  0
LINE
  5
2BA
330
2B5
100
AcDbEntity
  8
AM_5
100
AcDbLine
 10
181.5
 20
-161.3482406556
 30
0.0
 11
-181.5
 21
-161.3482406556
 31
0.0
  0
MTEXT
  5
2BB
330
2B5
100
AcDbEntity
  8
AM_5
100
AcDbMText
 10
-3.7698409152
 20
-156.0882137856
 30
0.1
 40
3.5
 41
0.0
 71
     1
 72
     1
  1
370
  7
SLDTEXTSTYLE48
 73
     1
 44
1.0
  0
SOLID
  5
2BC
330
2B5
100
AcDbEntity
  8
AM_5
100
AcDbTrace
 10
181.5
 20
-160.7649073223
 30
0.0
 11
181.5
 21
-161.931573989
 31
0.0
 12
185.0
 22
-161.3482406556
 32
0.0
 13
185.0
 23
-161.3482406556
 33
0.0
  0
SOLID
  5
2BD
330
2B5
100
AcDbEntity
  8
AM_5
100
AcDbTrace
 10
-181.5
 20
-160.7649073223
 30
0.0
 11
-181.5
 21
-161.931573989
 31
0.0
 12
-185.0
 22
-161.3482406556
 32
0.0
 13
-185.0
 23
-161.3482406556
 33
0.0
  0
ENDBLK
  5
2B7
330
2B5
100
AcDbEntity
  8
0
100
AcDbBlockEnd
  0
BLOCK
  5
2C0
330
2BF
100
AcDbEntity
  8
0
100
AcDbBlockBegin
  2
*D17
 70
     1
 10
0.0
 20
0.0
 30
0.0
  3
*D17
  1

  0
LINE
  5
2C2
330
2BF
100
AcDbEntity
  8
AM_5
100
AcDbLine
 10
169.9987035039
 20
-104.0553572529
 30
0.0
 11
169.9987035039
 21
-83.2067995442
 31
0.0
  0
LINE
  5
2C3
330
2BF
100
AcDbEntity
  8
AM_5
100
AcDbLine
 10
185.0
 20
-119.0
 30
0.0
 11
185.0
 21
-83.2067995442
 31
0.0
  0
LINE
  5
2C4
330
2BF
100
AcDbEntity
  8
AM_5
100
AcDbLine
 10
173.4987035039
 20
-84.2067995442
 30
0.0
 11
181.5
 21
-84.2067995442
 31
0.0
  0
MTEXT
  5
2C5
330
2BF
100
AcDbEntity
  8
AM_5
100
AcDbMText
 10
175.3408138086
 20
-78.9467726742
 30
0.1
 40
3.5
 41
0.0
 71
     1
 72
     1
  1
15
  7
SLDTEXTSTYLE48
 73
     1
 44
1.0
  0
SOLID
  5
2C6
330
2BF
100
AcDbEntity
  8
AM_5
100
AcDbTrace
 10
173.4987035039
 20
-83.6234662109
 30
0.0
 11
173.4987035039
 21
-84.7901328775
 31
0.0
 12
169.9987035039
 22
-84.2067995442
 32
0.0
 13
169.9987035039
 23
-84.2067995442
 33
0.0
  0
SOLID
  5
2C7
330
2BF
100
AcDbEntity
  8
AM_5
100
AcDbTrace
 10
181.5
 20
-83.6234662109
 30
0.0
 11
181.5
 21
-84.7901328775
 31
0.0
 12
185.0
 22
-84.2067995442
 32
0.0
 13
185.0
 23
-84.2067995442
 33
0.0
  0
ENDBLK
  5
2C1
330
2BF
100
AcDbEntity
  8
0
100
AcDbBlockEnd
  0
BLOCK
  5
2CA
330
2C9
100
AcDbEntity
  8
0
100
AcDbBlockBegin
  2
*D18
 70
     1
 10
0.0
 20
0.0
 30
0.0
  3
*D18
  1

  0
LINE
  5
2CC
330
2C9
100
AcDbEntity
  8
AM_5
100
AcDbLine
 10
160.8235174706
 20
-101.997823377
 30
0.0
 11
152.5155858656
 21
-101.997823377
 31
0.0
  0
LINE
  5
2CD
330
2C9
100
AcDbEntity
  8
AM_5
100
AcDbLine
 10
174.0
 20
-130.0
 30
0.0
 11
152.5155858656
 21
-130.0
 31
0.0
  0
LINE
  5
2CE
330
2C9
100
AcDbEntity
  8
AM_5
100
AcDbLine
 10
153.5155858656
 20
-105.497823377
 30
0.0
 11
153.5155858656
 21
-126.5
 31
0.0
  0
MTEXT
  5
2CF
330
2C9
100
AcDbEntity
  8
AM_5
100
AcDbMText
 10
148.2552145074
 20
-118.5121389653
 30
0.1
 40
3.5
 41
0.0
 71
     1
 72
     1
  1
28
  7
SLDTEXTSTYLE48
 11
6.123233995736766E-17
 21
1.0
 31
0.0
 73
     1
 44
1.0
  0
SOLID
  5
2D0
330
2C9
100
AcDbEntity
  8
AM_5
100
AcDbTrace
 10
152.9322525323
 20
-105.497823377
 30
0.0
 11
154.0989191989
 21
-105.497823377
 31
0.0
 12
153.5155858656
 22
-101.997823377
 32
0.0
 13
153.5155858656
 23
-101.997823377
 33
0.0
  0
SOLID
  5
2D1
330
2C9
100
AcDbEntity
  8
AM_5
100
AcDbTrace
 10
152.9322525323
 20
-126.5
 30
0.0
 11
154.0989191989
 21
-126.5
 31
0.0
 12
153.5155858656
 22
-130.0
 32
0.0
 13
153.5155858656
 23
-130.0
 33
0.0
  0
ENDBLK
  5
2CB
330
2C9
100
AcDbEntity
  8
0
100
AcDbBlockEnd
  0
BLOCK
  5
2D5
330
2D4
100
AcDbEntity
  8
0
100
AcDbBlockBegin
  2
*D19
 70
     1
 10
0.0
 20
0.0
 30
0.0
  3
*D19
  1

  0
LINE
  5
2D7
330
2D4
100
AcDbEntity
  8
AM_5
100
AcDbLine
 10
170.9987030039
 20
-98.9284764529
 30
0.0
 11
197.0040943082
 21
-98.9284764529
 31
0.0
  0
LINE
  5
2D8
330
2D4
100
AcDbEntity
  8
AM_5
100
AcDbLine
 10
170.9987035039
 20
-105.0553572529
 30
0.0
 11
197.0040943082
 21
-105.0553572529
 31
0.0
  0
LINE
  5
2D9
330
2D4
100
AcDbEntity
  8
AM_5
100
AcDbLine
 10
196.0040943082
 20
-95.4284764529
 30
0.0
 11
196.0040943082
 21
-91.9284764529
 31
0.0
  0
LINE
  5
2DA
330
2D4
100
AcDbEntity
  8
AM_5
100
AcDbLine
 10
196.0040943082
 20
-108.5553572529
 30
0.0
 11
196.0040943082
 21
-122.0597808186
 31
0.0
  0
LINE
  5
2DB
330
2D4
100
AcDbEntity
  8
AM_5
100
AcDbLine
 10
196.0040943082
 20
-98.9284764529
 30
0.0
 11
196.0040943082
 21
-105.0553572529
 31
0.0
  0
MTEXT
  5
2DC
330
2D4
100
AcDbEntity
  8
AM_5
100
AcDbMText
 10
190.7440674382
 20
-121.0098216082
 30
0.1
 40
3.5
 41
0.0
 71
     1
 72
     1
  1
6.13
  7
SLDTEXTSTYLE48
 11
6.123233995736766E-17
 21
1.0
 31
0.0
 73
     1
 44
1.0
  0
SOLID
  5
2DD
330
2D4
100
AcDbEntity
  8
AM_5
100
AcDbTrace
 10
195.4207609749
 20
-95.4284764529
 30
0.0
 11
196.5874276416
 21
-95.4284764529
 31
0.0
 12
196.0040943082
 22
-98.9284764529
 32
0.0
 13
196.0040943082
 23
-98.9284764529
 33
0.0
  0
SOLID
  5
2DE
330
2D4
100
AcDbEntity
  8
AM_5
100
AcDbTrace
 10
195.4207609749
 20
-108.5553572529
 30
0.0
 11
196.5874276416
 21
-108.5553572529
 31
0.0
 12
196.0040943082
 22
-105.0553572529
 32
0.0
 13
196.0040943082
 23
-105.0553572529
 33
0.0
  0
ENDBLK
  5
2D6
330
2D4
100
AcDbEntity
  8
0
100
AcDbBlockEnd
  0
BLOCK
  5
2E1
330
2E0
100
AcDbEntity
  8
0
100
AcDbBlockBegin
  2
*D20
 70
     1
 10
0.0
 20
0.0
 30
0.0
  3
*D20
  1

  0
LINE
  5
2E3
330
2E0
100
AcDbEntity
  8
AM_5
100
AcDbLine
 10
153.9973789644
 20
124.1581266973
 30
0.0
 11
141.9973789644
 21
124.1581266973
 31
0.0
  0
LINE
  5
2E4
330
2E0
100
AcDbEntity
  8
AM_5
100
AcDbLine
 10
153.9973789644
 20
125.8365396973
 30
0.0
 11
141.9973789644
 21
125.8365396973
 31
0.0
  0
LINE
  5
2E5
330
2E0
100
AcDbEntity
  8
AM_5
100
AcDbLine
 10
142.9973789644
 20
120.6581266973
 30
0.0
 11
142.9973789644
 21
117.1581266973
 31
0.0
  0
LINE
  5
2E6
330
2E0
100
AcDbEntity
  8
AM_5
100
AcDbLine
 10
142.9973789644
 20
129.3365396973
 30
0.0
 11
142.9973789644
 21
142.4865396973
 31
0.0
  0
LINE
  5
2E7
330
2E0
100
AcDbEntity
  8
AM_5
100
AcDbLine
 10
142.9973789644
 20
124.1581266973
 30
0.0
 11
142.9973789644
 21
125.8365396973
 31
0.0
  0
MTEXT
  5
2E8
330
2E0
100
AcDbEntity
  8
AM_5
100
AcDbMText
 10
137.7373520944
 20
133.7092871248
 30
0.1
 40
3.5
 41
0.0
 71
     1
 72
     1
  1
1.68
  7
SLDTEXTSTYLE48
 11
6.123233995736766E-17
 21
1.0
 31
0.0
 73
     1
 44
1.0
  0
SOLID
  5
2E9
330
2E0
100
AcDbEntity
  8
AM_5
100
AcDbTrace
 10
142.4140456311
 20
120.6581266973
 30
0.0
 11
143.5807122978
 21
120.6581266973
 31
0.0
 12
142.9973789644
 22
124.1581266973
 32
0.0
 13
142.9973789644
 23
124.1581266973
 33
0.0
  0
SOLID
  5
2EA
330
2E0
100
AcDbEntity
  8
AM_5
100
AcDbTrace
 10
142.4140456311
 20
129.3365396973
 30
0.0
 11
143.5807122978
 21
129.3365396973
 31
0.0
 12
142.9973789644
 22
125.8365396973
 32
0.0
 13
142.9973789644
 23
125.8365396973
 33
0.0
  0
ENDBLK
  5
2E2
330
2E0
100
AcDbEntity
  8
0
100
AcDbBlockEnd
  0
ENDSEC
  0
SECTION
  2
ENTITIES
  0
LINE
  5
11F
330
1F
100
AcDbEntity
  8
SLD-0
  6
Continuous
 62
     7
100
AcDbLine
 10
21.75
 20
582.75
 30
0.0
 11
21.75
 21
11.25
 31
0.0
  0
LINE
  5
120
330
1F
100
AcDbEntity
  8
SLD-0
  6
Continuous
 62
     7
100
AcDbLine
 10
820.25
 20
582.75
 30
0.0
 11
820.25
 21
11.25
 31
0.0
  0
LINE
  5
121
330
1F
100
AcDbEntity
  8
SLD-0
  6
Continuous
 62
     7
100
AcDbLine
 10
21.75
 20
11.25
 30
0.0
 11
820.25
 21
11.25
 31
0.0
  0
LINE
  5
122
330
1F
100
AcDbEntity
  8
SLD-0
  6
Continuous
 62
     7
100
AcDbLine
 10
21.75
 20
582.75
 30
0.0
 11
820.25
 21
582.75
 31
0.0
  0
LINE
  5
123
330
1F
100
AcDbEntity
  8
SLD-0
  6
Continuous
 62
     7
100
AcDbLine
 10
21.75
 20
55.75
 30
0.0
 11
157.75
 21
55.75
 31
0.0
  0
LINE
  5
124
330
1F
100
AcDbEntity
  8
SLD-0
  6
Continuous
 62
     7
100
AcDbLine
 10
21.75
 20
50.75
 30
0.0
 11
157.75
 21
50.75
 31
0.0
  0
LINE
  5
125
330
1F
100
AcDbEntity
  8
SLD-0
  6
Continuous
 62
     7
100
AcDbLine
 10
21.75
 20
45.75
 30
0.0
 11
157.75
 21
45.75
 31
0.0
  0
LINE
  5
126
330
1F
100
AcDbEntity
  8
SLD-0
  6
Continuous
 62
     7
100
AcDbLine
 10
21.75
 20
40.75
 30
0.0
 11
157.75
 21
40.75
 31
0.0
  0
LINE
  5
127
330
1F
100
AcDbEntity
  8
SLD-0
  6
Continuous
 62
     7
100
AcDbLine
 10
21.75
 20
35.75
 30
0.0
 11
157.75
 21
35.75
 31
0.0
  0
LINE
  5
128
330
1F
100
AcDbEntity
  8
SLD-0
  6
Continuous
 62
     7
100
AcDbLine
 10
21.75
 20
30.75
 30
0.0
 11
157.75
 21
30.75
 31
0.0
  0
LINE
  5
129
330
1F
100
AcDbEntity
  8
SLD-0
  6
Continuous
 62
     7
100
AcDbLine
 10
21.75
 20
25.75
 30
0.0
 11
157.75
 21
25.75
 31
0.0
  0
LINE
  5
12A
330
1F
100
AcDbEntity
  8
SLD-0
  6
Continuous
 62
     7
100
AcDbLine
 10
21.75
 20
20.75
 30
0.0
 11
157.75
 21
20.75
 31
0.0
  0
LINE
  5
12B
330
1F
100
AcDbEntity
  8
SLD-0
  6
Continuous
 62
     7
100
AcDbLine
 10
36.75
 20
55.75
 30
0.0
 11
36.75
 21
11.25
 31
0.0
  0
LINE
  5
12C
330
1F
100
AcDbEntity
  8
SLD-0
  6
Continuous
 62
     7
100
AcDbLine
 10
85.75
 20
55.75
 30
0.0
 11
85.75
 21
11.25
 31
0.0
  0
LINE
  5
12D
330
1F
100
AcDbEntity
  8
SLD-0
  6
Continuous
 62
     7
100
AcDbLine
 10
100.75
 20
55.75
 30
0.0
 11
100.75
 21
11.25
 31
0.0
  0
LINE
  5
12E
330
1F
100
AcDbEntity
  8
SLD-0
  6
Continuous
 62
     7
100
AcDbLine
 10
110.75
 20
55.75
 30
0.0
 11
110.75
 21
11.25
 31
0.0
  0
LINE
  5
12F
330
1F
100
AcDbEntity
  8
SLD-0
  6
Continuous
 62
     7
100
AcDbLine
 10
122.75
 20
55.75
 30
0.0
 11
122.75
 21
11.25
 31
0.0
  0
LINE
  5
130
330
1F
100
AcDbEntity
  8
SLD-0
  6
Continuous
 62
     7
100
AcDbLine
 10
137.75
 20
55.75
 30
0.0
 11
137.75
 21
11.25
 31
0.0
  0
LINE
  5
131
330
1F
100
AcDbEntity
  8
SLD-0
  6
Continuous
 62
     7
100
AcDbLine
 10
820.25
 20
283.1499938965
 30
0.0
 11
820.25
 21
11.3500003815
 31
0.0
  0
LINE
  5
132
330
1F
100
AcDbEntity
  8
SLD-0
  6
Continuous
 62
     7
100
AcDbLine
 10
434.25
 20
11.25
 30
0.0
 11
820.25
 21
11.25
 31
0.0
  0
LINE
  5
133
330
1F
100
AcDbEntity
  8
SLD-0
  6
Continuous
 62
     7
100
AcDbLine
 10
703.75
 20
19.25
 30
0.0
 11
820.1499996185
 21
19.25
 31
0.0
  0
LINE
  5
134
330
1F
100
AcDbEntity
  8
SLD-0
  6
Continuous
 62
     7
100
AcDbLine
 10
703.75
 20
29.25
 30
0.0
 11
820.1499996185
 21
29.25
 31
0.0
  0
LINE
  5
135
330
1F
100
AcDbEntity
  8
SLD-0
  6
Continuous
 62
     7
100
AcDbLine
 10
703.75
 20
39.25
 30
0.0
 11
820.1499996185
 21
39.25
 31
0.0
  0
LINE
  5
136
330
1F
100
AcDbEntity
  8
SLD-0
  6
Continuous
 62
     7
100
AcDbLine
 10
703.75
 20
44.25
 30
0.0
 11
820.1499996185
 21
44.25
 31
0.0
  0
LINE
  5
137
330
1F
100
AcDbEntity
  8
SLD-0
  6
Continuous
 62
     7
100
AcDbLine
 10
703.75
 20
52.25
 30
0.0
 11
820.1499996185
 21
52.25
 31
0.0
  0
LINE
  5
138
330
1F
100
AcDbEntity
  8
SLD-0
  6
Continuous
 62
     7
100
AcDbLine
 10
639.25
 20
76.25
 30
0.0
 11
820.1499996185
 21
76.25
 31
0.0
  0
LINE
  5
139
330
1F
100
AcDbEntity
  8
SLD-0
  6
Continuous
 62
     7
100
AcDbLine
 10
809.75
 20
76.25
 30
0.0
 11
809.75
 21
29.25
 31
0.0
  0
LINE
  5
13A
330
1F
100
AcDbEntity
  8
SLD-0
  6
Continuous
 62
     7
100
AcDbLine
 10
793.25
 20
76.25
 30
0.0
 11
793.25
 21
39.25
 31
0.0
  0
LINE
  5
13B
330
1F
100
AcDbEntity
  8
SLD-0
  6
Continuous
 62
     7
100
AcDbLine
 10
752.75
 20
76.25
 30
0.0
 11
752.75
 21
29.25
 31
0.0
  0
LINE
  5
13C
330
1F
100
AcDbEntity
  8
SLD-0
  6
Continuous
 62
     7
100
AcDbLine
 10
703.75
 20
76.25
 30
0.0
 11
703.75
 21
11.25
 31
0.0
  0
LINE
  5
13D
330
1F
100
AcDbEntity
  8
SLD-0
  6
HIDDEN
 62
     7
100
AcDbLine
 10
749.25
 20
76.25
 30
0.0
 11
749.25
 21
44.25
 31
0.0
  0
LINE
  5
13E
330
1F
100
AcDbEntity
  8
SLD-0
  6
Continuous
 62
     7
100
AcDbLine
 10
745.75
 20
76.25
 30
0.0
 11
745.75
 21
44.25
 31
0.0
  0
LINE
  5
13F
330
1F
100
AcDbEntity
  8
SLD-0
  6
HIDDEN
 62
     7
100
AcDbLine
 10
742.25
 20
76.25
 30
0.0
 11
742.25
 21
44.25
 31
0.0
  0
LINE
  5
140
330
1F
100
AcDbEntity
  8
SLD-0
  6
HIDDEN
 62
     7
100
AcDbLine
 10
738.75
 20
76.25
 30
0.0
 11
738.75
 21
44.25
 31
0.0
  0
LINE
  5
141
330
1F
100
AcDbEntity
  8
SLD-0
  6
HIDDEN
 62
     7
100
AcDbLine
 10
735.25
 20
76.25
 30
0.0
 11
735.25
 21
44.25
 31
0.0
  0
LINE
  5
142
330
1F
100
AcDbEntity
  8
SLD-0
  6
HIDDEN
 62
     7
100
AcDbLine
 10
731.75
 20
76.25
 30
0.0
 11
731.75
 21
44.25
 31
0.0
  0
LINE
  5
143
330
1F
100
AcDbEntity
  8
SLD-0
  6
HIDDEN
 62
     7
100
AcDbLine
 10
728.25
 20
76.25
 30
0.0
 11
728.25
 21
44.25
 31
0.0
  0
LINE
  5
144
330
1F
100
AcDbEntity
  8
SLD-0
  6
HIDDEN
 62
     7
100
AcDbLine
 10
724.75
 20
76.25
 30
0.0
 11
724.75
 21
44.25
 31
0.0
  0
LINE
  5
145
330
1F
100
AcDbEntity
  8
SLD-0
  6
HIDDEN
 62
     7
100
AcDbLine
 10
721.25
 20
76.25
 30
0.0
 11
721.25
 21
44.25
 31
0.0
  0
LINE
  5
146
330
1F
100
AcDbEntity
  8
SLD-0
  6
HIDDEN
 62
     7
100
AcDbLine
 10
717.75
 20
76.25
 30
0.0
 11
717.75
 21
44.25
 31
0.0
  0
LINE
  5
147
330
1F
100
AcDbEntity
  8
SLD-0
  6
HIDDEN
 62
     7
100
AcDbLine
 10
714.25
 20
76.25
 30
0.0
 11
714.25
 21
44.25
 31
0.0
  0
LINE
  5
148
330
1F
100
AcDbEntity
  8
SLD-0
  6
HIDDEN
 62
     7
100
AcDbLine
 10
710.75
 20
76.25
 30
0.0
 11
710.75
 21
44.25
 31
0.0
  0
LINE
  5
149
330
1F
100
AcDbEntity
  8
SLD-0
  6
Continuous
 62
     7
100
AcDbLine
 10
707.25
 20
76.25
 30
0.0
 11
707.25
 21
44.25
 31
0.0
  0
LINE
  5
14A
330
1F
100
AcDbEntity
  8
SLD-0
  6
Continuous
 62
     7
100
AcDbLine
 10
703.75
 20
58.25
 30
0.0
 11
820.1499996185
 21
58.25
 31
0.0
  0
LINE
  5
14B
330
1F
100
AcDbEntity
  8
SLD-0
  6
Continuous
 62
     7
100
AcDbLine
 10
703.75
 20
64.25
 30
0.0
 11
820.1499996185
 21
64.25
 31
0.0
  0
LINE
  5
14C
330
1F
100
AcDbEntity
  8
SLD-0
  6
Continuous
 62
     7
100
AcDbLine
 10
703.75
 20
70.25
 30
0.0
 11
820.1499996185
 21
70.25
 31
0.0
  0
LINE
  5
14D
330
1F
100
AcDbEntity
  8
SLD-0
  6
Continuous
 62
     7
100
AcDbLine
 10
761.75
 20
29.25
 30
0.0
 11
761.75
 21
19.25
 31
0.0
  0
LINE
  5
14E
330
1F
100
AcDbEntity
  8
SLD-0
  6
Continuous
 62
     7
100
AcDbLine
 10
757.75
 20
29.25
 30
0.0
 11
757.75
 21
19.25
 31
0.0
  0
LINE
  5
14F
330
1F
100
AcDbEntity
  8
SLD-0
  6
Continuous
 62
     7
100
AcDbLine
 10
707.75
 20
39.25
 30
0.0
 11
707.75
 21
19.25
 31
0.0
  0
LINE
  5
150
330
1F
100
AcDbEntity
  8
SLD-0
  6
Continuous
 62
     7
100
AcDbLine
 10
775.75
 20
29.25
 30
0.0
 11
775.75
 21
19.25
 31
0.0
  0
LINE
  5
151
330
1F
100
AcDbEntity
  8
SLD-0
  6
Continuous
 62
     7
100
AcDbLine
 10
799.75
 20
29.25
 30
0.0
 11
799.75
 21
19.25
 31
0.0
  0
LINE
  5
152
330
1F
100
AcDbEntity
  8
SLD-0
  6
Continuous
 62
     7
100
AcDbLine
 10
775.75
 20
25.25
 30
0.0
 11
820.25
 21
25.25
 31
0.0
  0
LINE
  5
153
330
1F
100
AcDbEntity
  8
SLD-0
  6
Continuous
 62
     7
100
AcDbLine
 10
639.25
 20
68.25
 30
0.0
 11
703.75
 21
68.25
 31
0.0
  0
LINE
  5
154
330
1F
100
AcDbEntity
  8
SLD-0
  6
Continuous
 62
     7
100
AcDbLine
 10
639.25
 20
64.25
 30
0.0
 11
703.75
 21
64.25
 31
0.0
  0
LINE
  5
155
330
1F
100
AcDbEntity
  8
SLD-0
  6
Continuous
 62
     7
100
AcDbLine
 10
639.25
 20
60.25
 30
0.0
 11
703.75
 21
60.25
 31
0.0
  0
LINE
  5
156
330
1F
100
AcDbEntity
  8
SLD-0
  6
Continuous
 62
     7
100
AcDbLine
 10
639.25
 20
56.25
 30
0.0
 11
703.75
 21
56.25
 31
0.0
  0
LINE
  5
157
330
1F
100
AcDbEntity
  8
SLD-0
  6
Continuous
 62
     7
100
AcDbLine
 10
639.25
 20
52.25
 30
0.0
 11
703.75
 21
52.25
 31
0.0
  0
LINE
  5
158
330
1F
100
AcDbEntity
  8
SLD-0
  6
Continuous
 62
     7
100
AcDbLine
 10
639.25
 20
48.25
 30
0.0
 11
703.75
 21
48.25
 31
0.0
  0
LINE
  5
159
330
1F
100
AcDbEntity
  8
SLD-0
  6
Continuous
 62
     7
100
AcDbLine
 10
639.25
 20
44.25
 30
0.0
 11
703.75
 21
44.25
 31
0.0
  0
LINE
  5
15A
330
1F
100
AcDbEntity
  8
SLD-0
100
AcDbLine
 10
639.25
 20
36.25
 30
0.0
 11
614.25
 21
36.25
 31
0.0
  0
LINE
  5
15B
330
1F
100
AcDbEntity
  8
SLD-0
  6
Continuous
 62
     7
100
AcDbLine
 10
691.75
 20
72.25
 30
0.0
 11
691.75
 21
64.25
 31
0.0
  0
LINE
  5
15C
330
1F
100
AcDbEntity
  8
0
  6
Continuous
 62
     7
370
     0
100
AcDbLine
 10
805.75
 20
39.25
 30
0.0
 11
805.75
 21
29.25
 31
0.0
  0
LINE
  5
15D
330
1F
100
AcDbEntity
  8
SLD-0
100
AcDbLine
 10
614.25
 20
36.25
 30
0.0
 11
614.25
 21
11.25
 31
0.0
  0
LINE
  5
15E
330
1F
100
AcDbEntity
  8
SLD-0
  6
Continuous
 62
     7
100
AcDbLine
 10
681.75
 20
72.25
 30
0.0
 11
681.75
 21
56.25
 31
0.0
  0
LINE
  5
15F
330
1F
100
AcDbEntity
  8
SLD-0
  6
Continuous
 62
     7
100
AcDbLine
 10
671.75
 20
72.25
 30
0.0
 11
671.75
 21
52.25
 31
0.0
  0
LINE
  5
160
330
1F
100
AcDbEntity
  8
SLD-0
  6
Continuous
 62
     7
100
AcDbLine
 10
661.75
 20
72.25
 30
0.0
 11
661.75
 21
64.25
 31
0.0
  0
LINE
  5
161
330
1F
100
AcDbEntity
  8
SLD-0
  6
Continuous
 62
     7
100
AcDbLine
 10
651.75
 20
72.25
 30
0.0
 11
651.75
 21
56.25
 31
0.0
  0
LINE
  5
162
330
1F
100
AcDbEntity
  8
SLD-0
  6
Continuous
 62
     7
100
AcDbLine
 10
639.25
 20
76.25
 30
0.0
 11
639.25
 21
11.25
 31
0.0
  0
LINE
  5
163
330
1F
100
AcDbEntity
  8
SLD-0
 62
     7
370
     0
100
AcDbLine
 10
793.25
 20
19.25
 30
0.0
 11
793.25
 21
11.25
 31
0.0
  0
LINE
  5
164
330
1F
100
AcDbEntity
  8
SLD-0
  6
Continuous
 62
     7
100
AcDbLine
 10
671.75
 20
48.25
 30
0.0
 11
671.75
 21
20.25
 31
0.0
  0
LINE
  5
165
330
1F
100
AcDbEntity
  8
SLD-0
  6
Continuous
 62
     7
100
AcDbLine
 10
688.75
 20
44.25
 30
0.0
 11
688.75
 21
20.25
 31
0.0
  0
LINE
  5
166
330
1F
100
AcDbEntity
  8
SLD-0
  6
Continuous
 62
     7
100
AcDbLine
 10
639.25
 20
36.25
 30
0.0
 11
703.75
 21
36.25
 31
0.0
  0
LINE
  5
167
330
1F
100
AcDbEntity
  8
SLD-0
  6
Continuous
 62
     7
100
AcDbLine
 10
639.25
 20
32.25
 30
0.0
 11
703.75
 21
32.25
 31
0.0
  0
LINE
  5
168
330
1F
100
AcDbEntity
  8
SLD-0
  6
Continuous
 62
     7
100
AcDbLine
 10
639.25
 20
28.25
 30
0.0
 11
703.75
 21
28.25
 31
0.0
  0
LINE
  5
169
330
1F
100
AcDbEntity
  8
SLD-0
  6
Continuous
 62
     7
100
AcDbLine
 10
639.25
 20
24.25
 30
0.0
 11
703.75
 21
24.25
 31
0.0
  0
LINE
  5
16A
330
1F
100
AcDbEntity
  8
SLD-0
  6
Continuous
 62
     7
100
AcDbLine
 10
639.25
 20
20.25
 30
0.0
 11
671.75
 21
20.25
 31
0.0
  0
LINE
  5
16B
330
1F
100
AcDbEntity
  8
SLD-0
  6
Continuous
 62
     7
100
AcDbLine
 10
639.25
 20
16.25
 30
0.0
 11
671.75
 21
16.25
 31
0.0
  0
LINE
  5
16C
330
1F
100
AcDbEntity
  8
SLD-0
  6
Continuous
 62
     7
100
AcDbLine
 10
659.75
 20
44.25
 30
0.0
 11
659.75
 21
11.25
 31
0.0
  0
LINE
  5
16D
330
1F
100
AcDbEntity
  8
SLD-0
  6
Continuous
 62
     7
100
AcDbLine
 10
671.75
 20
20.25
 30
0.0
 11
671.75
 21
11.25
 31
0.0
  0
LINE
  5
16E
330
1F
100
AcDbEntity
  8
SLD-0
  6
Continuous
 62
     7
100
AcDbLine
 10
671.75
 20
20.25
 30
0.0
 11
703.75
 21
20.25
 31
0.0
  0
LINE
  5
16F
330
1F
100
AcDbEntity
  8
SLD-0
  6
Continuous
 62
     7
100
AcDbLine
 10
639.25
 20
40.25
 30
0.0
 11
671.75
 21
40.25
 31
0.0
  0
LINE
  5
170
330
1F
100
AcDbEntity
  8
SLD-0
  6
Continuous
 62
     7
100
AcDbLine
 10
799.75
 20
19.25
 30
0.0
 11
799.75
 21
11.25
 31
0.0
  0
LINE
  5
171
330
1F
100
AcDbEntity
  8
SLD-0
  6
Continuous
 62
     7
100
AcDbLine
 10
743.75
 20
29.25
 30
0.0
 11
743.75
 21
19.25
 31
0.0
  0
LINE
  5
172
330
1F
100
AcDbEntity
  8
SLD-0
  6
Continuous
 62
     7
100
AcDbLine
 10
739.75
 20
29.25
 30
0.0
 11
739.75
 21
19.25
 31
0.0
  0
LINE
  5
173
330
1F
100
AcDbEntity
  8
SLD-0
  6
Continuous
 62
     7
100
AcDbLine
 10
725.75
 20
29.25
 30
0.0
 11
725.75
 21
19.25
 31
0.0
  0
LINE
  5
174
330
1F
100
AcDbEntity
  8
SLD-0
  6
Continuous
 62
     7
100
AcDbLine
 10
721.75
 20
29.25
 30
0.0
 11
721.75
 21
19.25
 31
0.0
  0
LINE
  5
175
330
1F
100
AcDbEntity
  8
SLD-0
  6
Continuous
 62
     7
100
AcDbLine
 10
421.0
 20
11.25
 30
0.0
 11
421.0
 21
-0.25
 31
0.0
  0
LINE
  5
176
330
1F
100
AcDbEntity
  8
SLD-0
  6
CENTER
 62
     7
100
AcDbLine
 10
680.25
 20
15.75
 30
0.0
 11
672.25
 21
15.75
 31
0.0
  0
LINE
  5
177
330
1F
100
AcDbEntity
  8
SLD-0
  6
CENTER
 62
     7
100
AcDbLine
 10
676.25
 20
19.75
 30
0.0
 11
676.25
 21
11.75
 31
0.0
  0
LINE
  5
178
330
1F
100
AcDbEntity
  8
SLD-0
  6
CENTER
 62
     7
100
AcDbLine
 10
681.25
 20
15.75
 30
0.0
 11
689.25
 21
15.75
 31
0.0
  0
LINE
  5
179
330
1F
100
AcDbEntity
  8
SLD-0
  6
Continuous
 62
     7
100
AcDbLine
 10
688.5
 20
18.5
 30
0.0
 11
688.5
 21
13.0
 31
0.0
  0
LINE
  5
17A
330
1F
100
AcDbEntity
  8
SLD-0
  6
Continuous
 62
     7
100
AcDbLine
 10
682.0
 20
17.25
 30
0.0
 11
682.0
 21
14.25
 31
0.0
  0
LINE
  5
17B
330
1F
100
AcDbEntity
  8
SLD-0
  6
Continuous
 62
     7
100
AcDbLine
 10
682.0
 20
17.25
 30
0.0
 11
688.5
 21
18.5
 31
0.0
  0
LINE
  5
17C
330
1F
100
AcDbEntity
  8
SLD-0
  6
Continuous
 62
     7
100
AcDbLine
 10
682.0
 20
14.25
 30
0.0
 11
688.5
 21
13.0
 31
0.0
  0
LINE
  5
17D
330
1F
100
AcDbEntity
  8
SLD-0
  6
Continuous
 62
     7
100
AcDbLine
 10
654.75
 20
70.75
 30
0.0
 11
656.7499847412
 21
70.7500038147
 31
0.0
  0
LINE
  5
17E
330
1F
100
AcDbEntity
  8
SLD-0
370
     0
100
AcDbLine
 10
789.75
 20
538.25
 30
0.0
 11
820.25
 21
538.25
 31
0.0
  0
LINE
  5
17F
330
1F
100
AcDbEntity
  8
SLD-0
370
     0
100
AcDbLine
 10
789.75
 20
521.25
 30
0.0
 11
820.25
 21
521.25
 31
0.0
  0
LINE
  5
180
330
1F
100
AcDbEntity
  8
SLD-0
  6
Continuous
 62
     7
100
AcDbLine
 10
654.75
 20
70.75
 30
0.0
 11
655.75
 21
69.0179519653
 31
0.0
  0
LINE
  5
181
330
1F
100
AcDbEntity
  8
SLD-0
  6
Continuous
 62
     7
100
AcDbLine
 10
657.2421382391
 20
71.6024127619
 30
0.0
 11
655.75
 21
69.0179519653
 31
0.0
  0
LINE
  5
182
330
1F
100
AcDbEntity
  8
SLD-0
100
AcDbLine
 10
697.7070654682
 20
68.9181174078
 30
0.0
 11
699.1992090097
 21
71.5025858338
 31
0.0
  0
LINE
  5
183
330
1F
100
AcDbEntity
  8
SLD-0
100
AcDbLine
 10
697.7070654682
 20
68.9181174078
 30
0.0
 11
696.7070654682
 21
70.6501682154
 31
0.0
  0
LINE
  5
184
330
1F
100
AcDbEntity
  8
SLD-0
100
AcDbLine
 10
698.7070654682
 20
70.6501682154
 30
0.0
 11
696.7070654682
 21
70.6501682154
 31
0.0
  0
LINE
  5
185
330
1F
100
AcDbEntity
  8
SLD-0
370
     0
100
AcDbLine
 10
789.75
 20
506.25
 30
0.0
 11
820.25
 21
506.25
 31
0.0
  0
LINE
  5
186
330
1F
100
AcDbEntity
  8
SLD-0
370
     0
100
AcDbLine
 10
639.25
 20
72.25
 30
0.0
 11
703.75
 21
72.25
 31
0.0
  0
LINE
  5
187
330
1F
100
AcDbEntity
  8
SLD-0
370
     0
100
AcDbLine
 10
149.75
 20
55.75
 30
0.0
 11
149.75
 21
16.25
 31
0.0
  0
LINE
  5
188
330
1F
100
AcDbEntity
  8
SLD-0
  6
Continuous
 62
     7
100
AcDbLine
 10
665.75
 20
70.65
 30
0.0
 11
666.75
 21
68.9179481506
 31
0.0
  0
LINE
  5
189
330
1F
100
AcDbEntity
  8
SLD-0
  6
Continuous
 62
     7
100
AcDbLine
 10
668.2421437279
 20
71.5024127619
 30
0.0
 11
666.75
 21
68.9179481506
 31
0.0
  0
LINE
  5
18A
330
1F
100
AcDbEntity
  8
0
  6
Continuous
 62
     7
370
     0
100
AcDbLine
 10
748.75
 20
39.25
 30
0.0
 11
748.75
 21
29.25
 31
0.0
  0
LINE
  5
18B
330
1F
100
AcDbEntity
  8
SLD-0
370
     0
100
AcDbLine
 10
157.75
 20
55.75
 30
0.0
 11
157.75
 21
11.25
 31
0.0
  0
LINE
  5
18C
330
1F
100
AcDbEntity
  8
SLD-0
  6
Continuous
 62
     7
100
AcDbLine
 10
685.7070654682
 20
70.5501692572
 30
0.0
 11
686.7070654682
 21
68.8181174078
 31
0.0
  0
LINE
  5
18D
330
1F
100
AcDbEntity
  8
SLD-0
  6
Continuous
 62
     7
100
AcDbLine
 10
688.1992015396
 20
71.4025858338
 30
0.0
 11
686.7070654682
 21
68.8181174078
 31
0.0
  0
LINE
  5
18E
330
1F
100
AcDbEntity
  8
SLD-0
  6
Continuous
 62
     7
100
AcDbLine
 10
675.25
 20
70.65
 30
0.0
 11
676.25
 21
68.9179481506
 31
0.0
  0
LINE
  5
18F
330
1F
100
AcDbEntity
  8
SLD-0
  6
Continuous
 62
     7
100
AcDbLine
 10
677.7421371552
 20
71.5024127619
 30
0.0
 11
676.25
 21
68.9179481506
 31
0.0
  0
LINE
  5
190
330
1F
100
AcDbEntity
  8
SLD-0
  6
Continuous
 62
     7
100
AcDbLine
 10
665.75
 20
70.65
 30
0.0
 11
667.7500152588
 21
70.6499961853
 31
0.0
  0
LINE
  5
191
330
1F
100
AcDbEntity
  8
SLD-0
  6
Continuous
 62
     7
100
AcDbLine
 10
675.25
 20
70.65
 30
0.0
 11
677.25
 21
70.6500038147
 31
0.0
  0
LINE
  5
192
330
1F
100
AcDbEntity
  8
SLD-0
  6
Continuous
 62
     7
100
AcDbLine
 10
685.7070654682
 20
70.5501692572
 30
0.0
 11
687.707036858
 21
70.5501768865
 31
0.0
  0
LINE
  5
193
330
1F
100
AcDbEntity
  8
SLD-0
  6
Continuous
 62
     7
100
AcDbLine
 10
401.0
 20
7.75
 30
0.0
 11
441.0
 21
7.75
 31
0.0
  0
LINE
  5
194
330
1F
100
AcDbEntity
  8
SLD-0
  6
Continuous
 62
     7
100
AcDbLine
 10
441.0
 20
11.25
 30
0.0
 11
441.0
 21
7.75
 31
0.0
  0
LINE
  5
195
330
1F
100
AcDbEntity
  8
SLD-0
  6
Continuous
 62
     7
100
AcDbLine
 10
401.0
 20
11.25
 30
0.0
 11
401.0
 21
7.75
 31
0.0
  0
LINE
  5
196
330
1F
100
AcDbEntity
  8
SLD-0
  6
Continuous
 62
     7
100
AcDbLine
 10
411.0
 20
11.25
 30
0.0
 11
411.0
 21
7.75
 31
0.0
  0
LINE
  5
197
330
1F
100
AcDbEntity
  8
SLD-0
  6
Continuous
 62
     7
100
AcDbLine
 10
431.0
 20
11.25
 30
0.0
 11
431.0
 21
7.75
 31
0.0
  0
LINE
  5
198
330
1F
100
AcDbEntity
  8
SLD-0
  6
Continuous
 62
     7
100
AcDbLine
 10
406.0
 20
11.25
 30
0.0
 11
406.0
 21
7.75
 31
0.0
  0
LINE
  5
199
330
1F
100
AcDbEntity
  8
SLD-0
  6
Continuous
 62
     7
100
AcDbLine
 10
416.0
 20
11.25
 30
0.0
 11
416.0
 21
7.75
 31
0.0
  0
LINE
  5
19A
330
1F
100
AcDbEntity
  8
SLD-0
  6
Continuous
 62
     7
100
AcDbLine
 10
436.0
 20
11.25
 30
0.0
 11
436.0
 21
7.75
 31
0.0
  0
LINE
  5
19B
330
1F
100
AcDbEntity
  8
SLD-0
  6
Continuous
 62
     7
100
AcDbLine
 10
426.0
 20
11.25
 30
0.0
 11
426.0
 21
7.75
 31
0.0
  0
LINE
  5
19C
330
1F
100
AcDbEntity
  8
SLD-0
  6
Continuous
 62
     7
100
AcDbLine
 10
7.75
 20
297.0
 30
0.0
 11
21.75
 21
297.0
 31
0.0
  0
LINE
  5
19D
330
1F
100
AcDbEntity
  8
SLD-0
  6
Continuous
 62
     7
100
AcDbLine
 10
820.25
 20
297.0
 30
0.0
 11
833.25
 21
297.0
 31
0.0
  0
LINE
  5
19E
330
1F
100
AcDbEntity
  8
SLD-0
  6
Continuous
 62
     7
100
AcDbLine
 10
22.5999755859
 20
54.9000015259
 30
0.0
 11
22.5999755859
 21
51.5999984741
 31
0.0
  0
LINE
  5
19F
330
1F
100
AcDbEntity
  8
SLD-0
  6
Continuous
 62
     7
100
AcDbLine
 10
22.5999755859
 20
54.9000015259
 30
0.0
 11
25.9000244141
 21
54.9000015259
 31
0.0
  0
LINE
  5
1A0
330
1F
100
AcDbEntity
  8
SLD-0
  6
Continuous
 62
     7
100
AcDbLine
 10
22.5999755859
 20
51.5999984741
 30
0.0
 11
25.9000244141
 21
51.5999984741
 31
0.0
  0
LINE
  5
1A1
330
1F
100
AcDbEntity
  8
SLD-0
  6
Continuous
 62
     7
100
AcDbLine
 10
25.9000244141
 20
54.9000015259
 30
0.0
 11
25.9000244141
 21
51.5999984741
 31
0.0
  0
LINE
  5
1A2
330
1F
100
AcDbEntity
  8
SLD-0
  6
Continuous
 62
     7
100
AcDbLine
 10
26.4000244141
 20
54.5999603271
 30
0.0
 11
29.0999755859
 21
51.8999710083
 31
0.0
  0
LINE
  5
1A3
330
1F
100
AcDbEntity
  8
SLD-0
  6
Continuous
 62
     7
100
AcDbLine
 10
26.4000244141
 20
51.8999710083
 30
0.0
 11
29.1000366211
 21
54.6000022888
 31
0.0
  0
LINE
  5
1A4
330
1F
100
AcDbEntity
  8
SLD-0
  6
Continuous
 62
     7
100
AcDbLine
 10
22.5999755859
 20
39.9000015259
 30
0.0
 11
22.5999755859
 21
36.5999984741
 31
0.0
  0
LINE
  5
1A5
330
1F
100
AcDbEntity
  8
SLD-0
  6
Continuous
 62
     7
100
AcDbLine
 10
22.5999755859
 20
39.9000015259
 30
0.0
 11
25.9000244141
 21
39.9000015259
 31
0.0
  0
LINE
  5
1A6
330
1F
100
AcDbEntity
  8
SLD-0
  6
Continuous
 62
     7
100
AcDbLine
 10
22.5999755859
 20
36.5999984741
 30
0.0
 11
25.9000244141
 21
36.5999984741
 31
0.0
  0
LINE
  5
1A7
330
1F
100
AcDbEntity
  8
SLD-0
  6
Continuous
 62
     7
100
AcDbLine
 10
25.9000244141
 20
39.9000015259
 30
0.0
 11
25.9000244141
 21
36.5999984741
 31
0.0
  0
LINE
  5
1A8
330
1F
100
AcDbEntity
  8
SLD-0
  6
Continuous
 62
     7
100
AcDbLine
 10
26.4000244141
 20
39.6000099182
 30
0.0
 11
29.0999755859
 21
36.9000205994
 31
0.0
  0
LINE
  5
1A9
330
1F
100
AcDbEntity
  8
SLD-0
  6
Continuous
 62
     7
100
AcDbLine
 10
26.4000244141
 20
36.9000205994
 30
0.0
 11
29.0999755859
 21
39.6000099182
 31
0.0
  0
LINE
  5
1AA
330
1F
100
AcDbEntity
  8
SLD-0
  6
Continuous
 62
     7
100
AcDbLine
 10
22.5999755859
 20
34.9000015259
 30
0.0
 11
22.5999755859
 21
31.6000003815
 31
0.0
  0
LINE
  5
1AB
330
1F
100
AcDbEntity
  8
SLD-0
  6
Continuous
 62
     7
100
AcDbLine
 10
22.5999755859
 20
34.9000015259
 30
0.0
 11
25.9000244141
 21
34.9000015259
 31
0.0
  0
LINE
  5
1AC
330
1F
100
AcDbEntity
  8
SLD-0
  6
Continuous
 62
     7
100
AcDbLine
 10
22.5999755859
 20
31.6000003815
 30
0.0
 11
25.9000244141
 21
31.6000003815
 31
0.0
  0
LINE
  5
1AD
330
1F
100
AcDbEntity
  8
SLD-0
  6
Continuous
 62
     7
100
AcDbLine
 10
25.9000244141
 20
34.9000015259
 30
0.0
 11
25.9000244141
 21
31.6000003815
 31
0.0
  0
LINE
  5
1AE
330
1F
100
AcDbEntity
  8
SLD-0
  6
Continuous
 62
     7
100
AcDbLine
 10
26.4000244141
 20
34.600025177
 30
0.0
 11
29.1000366211
 21
31.8999938965
 31
0.0
  0
LINE
  5
1AF
330
1F
100
AcDbEntity
  8
SLD-0
  6
Continuous
 62
     7
100
AcDbLine
 10
26.4000244141
 20
31.9000358582
 30
0.0
 11
29.0999755859
 21
34.600025177
 31
0.0
  0
LINE
  5
1B0
330
1F
100
AcDbEntity
  8
SLD-0
  6
Continuous
 62
     7
100
AcDbLine
 10
22.5999755859
 20
29.8999996185
 30
0.0
 11
22.5999755859
 21
26.6000003815
 31
0.0
  0
LINE
  5
1B1
330
1F
100
AcDbEntity
  8
SLD-0
  6
Continuous
 62
     7
100
AcDbLine
 10
22.5999755859
 20
29.8999996185
 30
0.0
 11
25.9000244141
 21
29.8999996185
 31
0.0
  0
LINE
  5
1B2
330
1F
100
AcDbEntity
  8
SLD-0
  6
Continuous
 62
     7
100
AcDbLine
 10
22.5999755859
 20
26.6000003815
 30
0.0
 11
25.9000244141
 21
26.6000003815
 31
0.0
  0
LINE
  5
1B3
330
1F
100
AcDbEntity
  8
SLD-0
  6
Continuous
 62
     7
100
AcDbLine
 10
25.9000244141
 20
29.8999996185
 30
0.0
 11
25.9000244141
 21
26.6000003815
 31
0.0
  0
LINE
  5
1B4
330
1F
100
AcDbEntity
  8
SLD-0
  6
Continuous
 62
     7
100
AcDbLine
 10
26.4000244141
 20
29.5999965668
 30
0.0
 11
29.1000366211
 21
26.9000091553
 31
0.0
  0
LINE
  5
1B5
330
1F
100
AcDbEntity
  8
SLD-0
  6
Continuous
 62
     7
100
AcDbLine
 10
26.4000244141
 20
26.8999671936
 30
0.0
 11
29.1000366211
 21
29.5999965668
 31
0.0
  0
LINE
  5
1B6
330
1F
100
AcDbEntity
  8
SLD-0
  6
Continuous
 62
     7
100
AcDbLine
 10
22.5999755859
 20
24.8999996185
 30
0.0
 11
22.5999755859
 21
21.6000003815
 31
0.0
  0
LINE
  5
1B7
330
1F
100
AcDbEntity
  8
SLD-0
  6
Continuous
 62
     7
100
AcDbLine
 10
22.5999755859
 20
24.8999996185
 30
0.0
 11
25.9000244141
 21
24.8999996185
 31
0.0
  0
LINE
  5
1B8
330
1F
100
AcDbEntity
  8
SLD-0
  6
Continuous
 62
     7
100
AcDbLine
 10
22.5999755859
 20
21.6000003815
 30
0.0
 11
25.9000244141
 21
21.6000003815
 31
0.0
  0
LINE
  5
1B9
330
1F
100
AcDbEntity
  8
SLD-0
  6
Continuous
 62
     7
100
AcDbLine
 10
25.9000244141
 20
24.8999996185
 30
0.0
 11
25.9000244141
 21
21.6000003815
 31
0.0
  0
LINE
  5
1BA
330
1F
100
AcDbEntity
  8
SLD-0
  6
Continuous
 62
     7
100
AcDbLine
 10
26.4000244141
 20
24.5999698639
 30
0.0
 11
29.0999755859
 21
21.8999824524
 31
0.0
  0
LINE
  5
1BB
330
1F
100
AcDbEntity
  8
SLD-0
  6
Continuous
 62
     7
100
AcDbLine
 10
26.4000244141
 20
21.8999824524
 30
0.0
 11
29.1000366211
 21
24.6000137329
 31
0.0
  0
LINE
  5
1BC
330
1F
100
AcDbEntity
  8
SLD-0
370
     0
100
AcDbLine
 10
789.75
 20
498.25
 30
0.0
 11
820.25
 21
498.25
 31
0.0
  0
LINE
  5
1BD
330
1F
100
AcDbEntity
  8
SLD-0
370
     0
100
AcDbLine
 10
789.75
 20
490.25
 30
0.0
 11
820.25
 21
490.25
 31
0.0
  0
LINE
  5
1BE
330
1F
100
AcDbEntity
  8
SLD-0
  6
Continuous
 62
     7
100
AcDbLine
 10
137.75
 20
16.25
 30
0.0
 11
157.75
 21
16.25
 31
0.0
  0
LINE
  5
1BF
330
1F
100
AcDbEntity
  8
SLD-0
370
     0
100
AcDbLine
 10
800.75
 20
514.25
 30
0.0
 11
800.75
 21
490.25
 31
0.0
  0
LINE
  5
1C0
330
1F
100
AcDbEntity
  8
SLD-0
  6
Continuous
 62
     7
100
AcDbLine
 10
22.5999755859
 20
44.9000015259
 30
0.0
 11
25.9000244141
 21
44.9000015259
 31
0.0
  0
LINE
  5
1C1
330
1F
100
AcDbEntity
  8
SLD-0
  6
Continuous
 62
     7
100
AcDbLine
 10
22.5999755859
 20
44.9000015259
 30
0.0
 11
22.5999755859
 21
41.5999984741
 31
0.0
  0
LINE
  5
1C2
330
1F
100
AcDbEntity
  8
SLD-0
  6
Continuous
 62
     7
100
AcDbLine
 10
22.5999755859
 20
41.5999984741
 30
0.0
 11
25.9000244141
 21
41.5999984741
 31
0.0
  0
LINE
  5
1C3
330
1F
100
AcDbEntity
  8
SLD-0
  6
Continuous
 62
     7
100
AcDbLine
 10
25.9000244141
 20
44.9000015259
 30
0.0
 11
25.9000244141
 21
41.5999984741
 31
0.0
  0
LINE
  5
1C4
330
1F
100
AcDbEntity
  8
SLD-0
  6
Continuous
 62
     7
100
AcDbLine
 10
26.4000244141
 20
44.5999908447
 30
0.0
 11
29.0999755859
 21
41.9000053406
 31
0.0
  0
LINE
  5
1C5
330
1F
100
AcDbEntity
  8
SLD-0
  6
Continuous
 62
     7
100
AcDbLine
 10
26.4000244141
 20
41.9000053406
 30
0.0
 11
29.0999755859
 21
44.5999908447
 31
0.0
  0
LINE
  5
1C6
330
1F
100
AcDbEntity
  8
SLD-0
  6
Continuous
 62
     7
100
AcDbLine
 10
22.5999755859
 20
49.9000015259
 30
0.0
 11
25.9000244141
 21
49.9000015259
 31
0.0
  0
LINE
  5
1C7
330
1F
100
AcDbEntity
  8
SLD-0
  6
Continuous
 62
     7
100
AcDbLine
 10
22.5999755859
 20
49.9000015259
 30
0.0
 11
22.5999755859
 21
46.5999984741
 31
0.0
  0
LINE
  5
1C8
330
1F
100
AcDbEntity
  8
SLD-0
  6
Continuous
 62
     7
100
AcDbLine
 10
22.5999755859
 20
46.5999984741
 30
0.0
 11
25.9000244141
 21
46.5999984741
 31
0.0
  0
LINE
  5
1C9
330
1F
100
AcDbEntity
  8
SLD-0
  6
Continuous
 62
     7
100
AcDbLine
 10
25.9000244141
 20
49.9000015259
 30
0.0
 11
25.9000244141
 21
46.5999984741
 31
0.0
  0
LINE
  5
1CA
330
1F
100
AcDbEntity
  8
SLD-0
  6
Continuous
 62
     7
100
AcDbLine
 10
26.4000244141
 20
49.5999755859
 30
0.0
 11
29.0999755859
 21
46.8999862671
 31
0.0
  0
LINE
  5
1CB
330
1F
100
AcDbEntity
  8
SLD-0
  6
Continuous
 62
     7
100
AcDbLine
 10
26.4000244141
 20
46.8999862671
 30
0.0
 11
29.0999755859
 21
49.5999755859
 31
0.0
  0
LINE
  5
1CC
330
1F
100
AcDbEntity
  8
SLD-0
  6
Continuous
 62
     7
100
AcDbLine
 10
789.75
 20
578.25
 30
0.0
 11
820.25
 21
578.25
 31
0.0
  0
LINE
  5
1CD
330
1F
100
AcDbEntity
  8
SLD-0
  6
Continuous
 62
     7
100
AcDbLine
 10
789.75
 20
582.6500244141
 30
0.0
 11
789.75
 21
490.25
 31
0.0
  0
LINE
  5
1CE
330
1F
100
AcDbEntity
  8
SLD-0
  6
Continuous
 62
     7
100
AcDbLine
 10
789.75
 20
568.25
 30
0.0
 11
820.25
 21
568.25
 31
0.0
  0
LINE
  5
1CF
330
1F
100
AcDbEntity
  8
SLD-0
  6
Continuous
 62
     7
100
AcDbLine
 10
789.75
 20
563.75
 30
0.0
 11
820.25
 21
563.75
 31
0.0
  0
LINE
  5
1D0
330
1F
100
AcDbEntity
  8
SLD-0
  6
Continuous
 62
     7
100
AcDbLine
 10
789.75
 20
555.75
 30
0.0
 11
820.25
 21
555.75
 31
0.0
  0
LINE
  5
1D1
330
1F
100
AcDbEntity
  8
SLD-0
  6
Continuous
 62
     7
100
AcDbLine
 10
789.75
 20
551.25
 30
0.0
 11
820.25
 21
551.25
 31
0.0
  0
LINE
  5
1D2
330
1F
100
AcDbEntity
  8
SLD-0
  6
Continuous
 62
     7
100
AcDbLine
 10
789.75
 20
543.25
 30
0.0
 11
820.25
 21
543.25
 31
0.0
  0
LINE
  5
1D3
330
1F
100
AcDbEntity
  8
SLD-0
  6
Continuous
 62
     7
100
AcDbLine
 10
789.75
 20
526.25
 30
0.0
 11
820.25
 21
526.25
 31
0.0
  0
LINE
  5
1D4
330
1F
100
AcDbEntity
  8
SLD-0
  6
Continuous
 62
     7
100
AcDbLine
 10
789.75
 20
514.25
 30
0.0
 11
820.25
 21
514.25
 31
0.0
  0
LINE
  5
1D5
330
1F
100
AcDbEntity
  8
SLD-0
  6
Continuous
 62
     7
100
AcDbLine
 10
421.0
 20
582.75
 30
0.0
 11
421.0
 21
594.25
 31
0.0
  0
LINE
  5
1D6
330
1F
100
AcDbEntity
  8
SLD-0
  6
Continuous
 62
     7
100
AcDbLine
 10
371.0
 20
11.25
 30
0.0
 11
371.0
 21
8.25
 31
0.0
  0
LINE
  5
1D7
330
1F
100
AcDbEntity
  8
SLD-0
  6
Continuous
 62
     7
100
AcDbLine
 10
321.0
 20
11.25
 30
0.0
 11
321.0
 21
8.25
 31
0.0
  0
LINE
  5
1D8
330
1F
100
AcDbEntity
  8
SLD-0
  6
Continuous
 62
     7
100
AcDbLine
 10
271.0
 20
11.25
 30
0.0
 11
271.0
 21
8.25
 31
0.0
  0
LINE
  5
1D9
330
1F
100
AcDbEntity
  8
SLD-0
  6
Continuous
 62
     7
100
AcDbLine
 10
221.0
 20
11.25
 30
0.0
 11
221.0
 21
8.25
 31
0.0
  0
LINE
  5
1DA
330
1F
100
AcDbEntity
  8
SLD-0
  6
Continuous
 62
     7
100
AcDbLine
 10
171.0
 20
11.25
 30
0.0
 11
171.0
 21
8.25
 31
0.0
  0
LINE
  5
1DB
330
1F
100
AcDbEntity
  8
SLD-0
  6
Continuous
 62
     7
100
AcDbLine
 10
121.0
 20
11.25
 30
0.0
 11
121.0
 21
8.25
 31
0.0
  0
LINE
  5
1DC
330
1F
100
AcDbEntity
  8
SLD-0
  6
Continuous
 62
     7
100
AcDbLine
 10
71.0
 20
11.25
 30
0.0
 11
71.0
 21
8.25
 31
0.0
  0
LINE
  5
1DD
330
1F
100
AcDbEntity
  8
SLD-0
  6
Continuous
 62
     7
100
AcDbLine
 10
471.0
 20
11.25
 30
0.0
 11
471.0
 21
8.25
 31
0.0
  0
LINE
  5
1DE
330
1F
100
AcDbEntity
  8
SLD-0
  6
Continuous
 62
     7
100
AcDbLine
 10
521.0
 20
11.25
 30
0.0
 11
521.0
 21
8.25
 31
0.0
  0
LINE
  5
1DF
330
1F
100
AcDbEntity
  8
SLD-0
  6
Continuous
 62
     7
100
AcDbLine
 10
571.0
 20
11.25
 30
0.0
 11
571.0
 21
8.25
 31
0.0
  0
LINE
  5
1E0
330
1F
100
AcDbEntity
  8
SLD-0
  6
Continuous
 62
     7
100
AcDbLine
 10
621.0
 20
11.25
 30
0.0
 11
621.0
 21
8.25
 31
0.0
  0
LINE
  5
1E1
330
1F
100
AcDbEntity
  8
SLD-0
  6
Continuous
 62
     7
100
AcDbLine
 10
671.0
 20
11.25
 30
0.0
 11
671.0
 21
8.25
 31
0.0
  0
LINE
  5
1E2
330
1F
100
AcDbEntity
  8
SLD-0
  6
Continuous
 62
     7
100
AcDbLine
 10
721.0
 20
11.25
 30
0.0
 11
721.0
 21
8.25
 31
0.0
  0
LINE
  5
1E3
330
1F
100
AcDbEntity
  8
SLD-0
  6
Continuous
 62
     7
100
AcDbLine
 10
771.0
 20
11.25
 30
0.0
 11
771.0
 21
8.25
 31
0.0
  0
LINE
  5
1E4
330
1F
100
AcDbEntity
  8
SLD-0
  6
Continuous
 62
     7
100
AcDbLine
 10
820.25
 20
349.5
 30
0.0
 11
823.25
 21
349.5
 31
0.0
  0
LINE
  5
1E5
330
1F
100
AcDbEntity
  8
SLD-0
  6
Continuous
 62
     7
100
AcDbLine
 10
820.25
 20
402.0
 30
0.0
 11
823.25
 21
402.0
 31
0.0
  0
LINE
  5
1E6
330
1F
100
AcDbEntity
  8
SLD-0
  6
Continuous
 62
     7
100
AcDbLine
 10
820.25
 20
454.5
 30
0.0
 11
823.25
 21
454.5
 31
0.0
  0
LINE
  5
1E7
330
1F
100
AcDbEntity
  8
SLD-0
  6
Continuous
 62
     7
100
AcDbLine
 10
820.25
 20
507.0
 30
0.0
 11
823.25
 21
507.0
 31
0.0
  0
LINE
  5
1E8
330
1F
100
AcDbEntity
  8
SLD-0
  6
Continuous
 62
     7
100
AcDbLine
 10
820.25
 20
559.5
 30
0.0
 11
823.25
 21
559.5
 31
0.0
  0
LINE
  5
1E9
330
1F
100
AcDbEntity
  8
SLD-0
  6
Continuous
 62
     7
100
AcDbLine
 10
820.25
 20
244.5
 30
0.0
 11
823.25
 21
244.5
 31
0.0
  0
LINE
  5
1EA
330
1F
100
AcDbEntity
  8
SLD-0
  6
Continuous
 62
     7
100
AcDbLine
 10
820.25
 20
192.0
 30
0.0
 11
823.25
 21
192.0
 31
0.0
  0
LINE
  5
1EB
330
1F
100
AcDbEntity
  8
SLD-0
  6
Continuous
 62
     7
100
AcDbLine
 10
820.25
 20
139.5
 30
0.0
 11
823.25
 21
139.5
 31
0.0
  0
LINE
  5
1EC
330
1F
100
AcDbEntity
  8
SLD-0
  6
Continuous
 62
     7
100
AcDbLine
 10
820.25
 20
87.0
 30
0.0
 11
823.25
 21
87.0
 31
0.0
  0
LINE
  5
1ED
330
1F
100
AcDbEntity
  8
SLD-0
  6
Continuous
 62
     7
100
AcDbLine
 10
820.25
 20
34.5
 30
0.0
 11
823.25
 21
34.5
 31
0.0
  0
LINE
  5
1EE
330
1F
100
AcDbEntity
  8
SLD-0
  6
Continuous
 62
     7
100
AcDbLine
 10
371.0
 20
582.75
 30
0.0
 11
371.0
 21
585.75
 31
0.0
  0
LINE
  5
1EF
330
1F
100
AcDbEntity
  8
SLD-0
  6
Continuous
 62
     7
100
AcDbLine
 10
321.0
 20
582.75
 30
0.0
 11
321.0
 21
585.75
 31
0.0
  0
LINE
  5
1F0
330
1F
100
AcDbEntity
  8
SLD-0
  6
Continuous
 62
     7
100
AcDbLine
 10
271.0
 20
582.75
 30
0.0
 11
271.0
 21
585.75
 31
0.0
  0
LINE
  5
1F1
330
1F
100
AcDbEntity
  8
SLD-0
  6
Continuous
 62
     7
100
AcDbLine
 10
221.0
 20
582.75
 30
0.0
 11
221.0
 21
585.75
 31
0.0
  0
LINE
  5
1F2
330
1F
100
AcDbEntity
  8
SLD-0
  6
Continuous
 62
     7
100
AcDbLine
 10
171.0
 20
582.75
 30
0.0
 11
171.0
 21
585.75
 31
0.0
  0
LINE
  5
1F3
330
1F
100
AcDbEntity
  8
SLD-0
  6
Continuous
 62
     7
100
AcDbLine
 10
121.0
 20
582.75
 30
0.0
 11
121.0
 21
585.75
 31
0.0
  0
LINE
  5
1F4
330
1F
100
AcDbEntity
  8
SLD-0
  6
Continuous
 62
     7
100
AcDbLine
 10
71.0
 20
582.75
 30
0.0
 11
71.0
 21
585.75
 31
0.0
  0
LINE
  5
1F5
330
1F
100
AcDbEntity
  8
SLD-0
  6
Continuous
 62
     7
100
AcDbLine
 10
471.0
 20
582.75
 30
0.0
 11
471.0
 21
585.75
 31
0.0
  0
LINE
  5
1F6
330
1F
100
AcDbEntity
  8
SLD-0
  6
Continuous
 62
     7
100
AcDbLine
 10
521.0
 20
582.75
 30
0.0
 11
521.0
 21
585.75
 31
0.0
  0
LINE
  5
1F7
330
1F
100
AcDbEntity
  8
SLD-0
  6
Continuous
 62
     7
100
AcDbLine
 10
571.0
 20
582.75
 30
0.0
 11
571.0
 21
585.75
 31
0.0
  0
LINE
  5
1F8
330
1F
100
AcDbEntity
  8
SLD-0
  6
Continuous
 62
     7
100
AcDbLine
 10
621.0
 20
582.75
 30
0.0
 11
621.0
 21
585.75
 31
0.0
  0
LINE
  5
1F9
330
1F
100
AcDbEntity
  8
SLD-0
  6
Continuous
 62
     7
100
AcDbLine
 10
671.0
 20
582.75
 30
0.0
 11
671.0
 21
585.75
 31
0.0
  0
LINE
  5
1FA
330
1F
100
AcDbEntity
  8
SLD-0
  6
Continuous
 62
     7
100
AcDbLine
 10
721.0
 20
582.75
 30
0.0
 11
721.0
 21
585.75
 31
0.0
  0
LINE
  5
1FB
330
1F
100
AcDbEntity
  8
SLD-0
  6
Continuous
 62
     7
100
AcDbLine
 10
771.0
 20
582.75
 30
0.0
 11
771.0
 21
585.75
 31
0.0
  0
LINE
  5
1FC
330
1F
100
AcDbEntity
  8
SLD-0
  6
Continuous
 62
     7
100
AcDbLine
 10
21.75
 20
349.5
 30
0.0
 11
18.75
 21
349.5
 31
0.0
  0
LINE
  5
1FD
330
1F
100
AcDbEntity
  8
SLD-0
  6
Continuous
 62
     7
100
AcDbLine
 10
21.75
 20
402.0
 30
0.0
 11
18.75
 21
402.0
 31
0.0
  0
LINE
  5
1FE
330
1F
100
AcDbEntity
  8
SLD-0
  6
Continuous
 62
     7
100
AcDbLine
 10
21.75
 20
454.5
 30
0.0
 11
18.75
 21
454.5
 31
0.0
  0
LINE
  5
1FF
330
1F
100
AcDbEntity
  8
SLD-0
  6
Continuous
 62
     7
100
AcDbLine
 10
21.75
 20
507.0
 30
0.0
 11
18.75
 21
507.0
 31
0.0
  0
LINE
  5
200
330
1F
100
AcDbEntity
  8
SLD-0
  6
Continuous
 62
     7
100
AcDbLine
 10
21.75
 20
559.5
 30
0.0
 11
18.75
 21
559.5
 31
0.0
  0
LINE
  5
201
330
1F
100
AcDbEntity
  8
SLD-0
  6
Continuous
 62
     7
100
AcDbLine
 10
21.75
 20
244.5
 30
0.0
 11
18.75
 21
244.5
 31
0.0
  0
LINE
  5
202
330
1F
100
AcDbEntity
  8
SLD-0
  6
Continuous
 62
     7
100
AcDbLine
 10
21.75
 20
192.0
 30
0.0
 11
18.75
 21
192.0
 31
0.0
  0
LINE
  5
203
330
1F
100
AcDbEntity
  8
SLD-0
  6
Continuous
 62
     7
100
AcDbLine
 10
21.75
 20
139.5
 30
0.0
 11
18.75
 21
139.5
 31
0.0
  0
LINE
  5
204
330
1F
100
AcDbEntity
  8
SLD-0
  6
Continuous
 62
     7
100
AcDbLine
 10
21.75
 20
87.0
 30
0.0
 11
18.75
 21
87.0
 31
0.0
  0
LINE
  5
205
330
1F
100
AcDbEntity
  8
SLD-0
  6
Continuous
 62
     7
100
AcDbLine
 10
21.75
 20
34.5
 30
0.0
 11
18.75
 21
34.5
 31
0.0
  0
ARC
  5
206
330
1F
100
AcDbEntity
  8
SLD-0
  6
Continuous
 62
     7
100
AcDbCircle
 10
224.8499755859
 20
11.3500003815
 30
0.0
 40
0.1000000014901179
100
AcDbArc
 50
179.9999913486
 51
270.0000006832
  0
CIRCLE
  5
207
330
1F
100
AcDbEntity
  8
SLD-0
  6
Continuous
 62
     7
100
AcDbCircle
 10
676.25
 20
15.75
 30
0.0
 40
3.0
  0
CIRCLE
  5
208
330
1F
100
AcDbEntity
  8
SLD-0
  6
Continuous
 62
     7
100
AcDbCircle
 10
676.25
 20
15.75
 30
0.0
 40
1.5
  0
INSERT
  5
209
330
1F
100
AcDbEntity
  8
0
  6
Continuous
 62
     7
100
AcDbBlockReference
  2
Ãﬁ€Ø∏1
 10
639.5363486764
 20
2.1435500645
 30
0.0
  0
INSERT
  5
20A
330
1F
100
AcDbEntity
  8
0
  6
Continuous
 62
     7
100
AcDbBlockReference
  2
Ãﬁ€Ø∏2
 10
18.3561837116
 20
6.6144761654
 30
0.0
  0
INSERT
  5
20B
330
1F
100
AcDbEntity
  8
0
  6
Continuous
 62
     7
100
AcDbBlockReference
  2
Ãﬁ€Ø∏3
 10
789.8985983812
 20
490.5518787486
 30
0.0
  0
POINT
  5
20C
330
1F
100
AcDbEntity
  8
SLD-0
100
AcDbPoint
 10
841.0
 20
0.0
 30
0.0
  0
MTEXT
  5
20D
330
1F
100
AcDbEntity
  8
SLD-0
100
AcDbMText
 10
395.2714995146
 20
9.4858045222
 30
0.0
 40
2.2000000477
 41
0.0
 71
     1
 72
     1
  1
8
  7
SLDTEXTSTYLE9
 73
     1
 44
1.0
  0
MTEXT
  5
20E
330
1F
100
AcDbEntity
  8
SLD-0
100
AcDbMText
 10
345.2714995146
 20
9.4858045222
 30
0.0
 40
2.2000000477
 41
0.0
 71
     1
 72
     1
  1
7
  7
SLDTEXTSTYLE9
 73
     1
 44
1.0
  0
MTEXT
  5
20F
330
1F
100
AcDbEntity
  8
SLD-0
100
AcDbMText
 10
295.2714995146
 20
9.4858045222
 30
0.0
 40
2.2000000477
 41
0.0
 71
     1
 72
     1
  1
6
  7
SLDTEXTSTYLE9
 73
     1
 44
1.0
  0
MTEXT
  5
210
330
1F
100
AcDbEntity
  8
SLD-0
100
AcDbMText
 10
245.2714995146
 20
9.4858045222
 30
0.0
 40
2.2000000477
 41
0.0
 71
     1
 72
     1
  1
5
  7
SLDTEXTSTYLE9
 73
     1
 44
1.0
  0
MTEXT
  5
211
330
1F
100
AcDbEntity
  8
SLD-0
100
AcDbMText
 10
445.1568754911
 20
9.4858045222
 30
0.0
 40
2.2000000477
 41
0.0
 71
     1
 72
     1
  1
9
  7
SLDTEXTSTYLE9
 73
     1
 44
1.0
  0
MTEXT
  5
212
330
1F
100
AcDbEntity
  8
SLD-0
100
AcDbMText
 10
495.1568754911
 20
9.4858045222
 30
0.0
 40
2.2000000477
 41
0.0
 71
     1
 72
     1
  1
10
  7
SLDTEXTSTYLE10
 73
     1
 44
1.0
  0
MTEXT
  5
213
330
1F
100
AcDbEntity
  8
SLD-0
100
AcDbMText
 10
545.1568754911
 20
9.4858045222
 30
0.0
 40
2.2000000477
 41
0.0
 71
     1
 72
     1
  1
11
  7
SLDTEXTSTYLE10
 73
     1
 44
1.0
  0
MTEXT
  5
214
330
1F
100
AcDbEntity
  8
SLD-0
100
AcDbMText
 10
595.1568907499
 20
9.4858045222
 30
0.0
 40
2.2000000477
 41
0.0
 71
     1
 72
     1
  1
12
  7
SLDTEXTSTYLE10
 73
     1
 44
1.0
  0
MTEXT
  5
215
330
1F
100
AcDbEntity
  8
SLD-0
100
AcDbMText
 10
822.0975950956
 20
324.7608537318
 30
0.0
 40
2.2000000477
 41
0.0
 71
     1
 72
     1
  1
F
  7
SLDTEXTSTYLE9
 73
     1
 44
1.0
  0
MTEXT
  5
216
330
1F
100
AcDbEntity
  8
SLD-0
100
AcDbMText
 10
822.0975950956
 20
377.2608537318
 30
0.0
 40
2.2000000477
 41
0.0
 71
     1
 72
     1
  1
E
  7
SLDTEXTSTYLE9
 73
     1
 44
1.0
  0
MTEXT
  5
217
330
1F
100
AcDbEntity
  8
SLD-0
100
AcDbMText
 10
822.0975950956
 20
429.7608537318
 30
0.0
 40
2.2000000477
 41
0.0
 71
     1
 72
     1
  1
D
  7
SLDTEXTSTYLE9
 73
     1
 44
1.0
  0
MTEXT
  5
218
330
1F
100
AcDbEntity
  8
SLD-0
100
AcDbMText
 10
822.0975950956
 20
482.2608537318
 30
0.0
 40
2.2000000477
 41
0.0
 71
     1
 72
     1
  1
C
  7
SLDTEXTSTYLE9
 73
     1
 44
1.0
  0
MTEXT
  5
219
330
1F
100
AcDbEntity
  8
SLD-0
100
AcDbMText
 10
822.0975950956
 20
271.8310441615
 30
0.0
 40
2.2000000477
 41
0.0
 71
     1
 72
     1
  1
G
  7
SLDTEXTSTYLE9
 73
     1
 44
1.0
  0
MTEXT
  5
21A
330
1F
100
AcDbEntity
  8
SLD-0
100
AcDbMText
 10
822.0975950956
 20
219.3310594203
 30
0.0
 40
2.2000000477
 41
0.0
 71
     1
 72
     1
  1
H
  7
SLDTEXTSTYLE9
 73
     1
 44
1.0
  0
MTEXT
  5
21B
330
1F
100
AcDbEntity
  8
SLD-0
100
AcDbMText
 10
822.0975950956
 20
166.8310594203
 30
0.0
 40
2.2000000477
 41
0.0
 71
     1
 72
     1
  1
I
  7
SLDTEXTSTYLE9
 73
     1
 44
1.0
  0
MTEXT
  5
21C
330
1F
100
AcDbEntity
  8
SLD-0
100
AcDbMText
 10
822.0975950956
 20
114.3310517909
 30
0.0
 40
2.2000000477
 41
0.0
 71
     1
 72
     1
  1
J
  7
SLDTEXTSTYLE9
 73
     1
 44
1.0
  0
MTEXT
  5
21D
330
1F
100
AcDbEntity
  8
SLD-0
100
AcDbMText
 10
45.2714995146
 20
587.1060685756
 30
0.0
 40
2.2000000477
 41
0.0
 71
     1
 72
     1
  1
1
  7
SLDTEXTSTYLE9
 73
     1
 44
1.0
  0
MTEXT
  5
21E
330
1F
100
AcDbEntity
  8
SLD-0
100
AcDbMText
 10
395.2714995146
 20
587.1060685756
 30
0.0
 40
2.2000000477
 41
0.0
 71
     1
 72
     1
  1
8
  7
SLDTEXTSTYLE9
 73
     1
 44
1.0
  0
MTEXT
  5
21F
330
1F
100
AcDbEntity
  8
SLD-0
100
AcDbMText
 10
345.2714995146
 20
587.1060685756
 30
0.0
 40
2.2000000477
 41
0.0
 71
     1
 72
     1
  1
7
  7
SLDTEXTSTYLE9
 73
     1
 44
1.0
  0
MTEXT
  5
220
330
1F
100
AcDbEntity
  8
SLD-0
100
AcDbMText
 10
295.2714995146
 20
587.1060685756
 30
0.0
 40
2.2000000477
 41
0.0
 71
     1
 72
     1
  1
6
  7
SLDTEXTSTYLE9
 73
     1
 44
1.0
  0
MTEXT
  5
221
330
1F
100
AcDbEntity
  8
SLD-0
100
AcDbMText
 10
245.2714995146
 20
587.1060685756
 30
0.0
 40
2.2000000477
 41
0.0
 71
     1
 72
     1
  1
5
  7
SLDTEXTSTYLE9
 73
     1
 44
1.0
  0
MTEXT
  5
222
330
1F
100
AcDbEntity
  8
SLD-0
100
AcDbMText
 10
195.2714995146
 20
587.1060685756
 30
0.0
 40
2.2000000477
 41
0.0
 71
     1
 72
     1
  1
4
  7
SLDTEXTSTYLE9
 73
     1
 44
1.0
  0
MTEXT
  5
223
330
1F
100
AcDbEntity
  8
SLD-0
100
AcDbMText
 10
145.2714995146
 20
587.1060685756
 30
0.0
 40
2.2000000477
 41
0.0
 71
     1
 72
     1
  1
3
  7
SLDTEXTSTYLE9
 73
     1
 44
1.0
  0
MTEXT
  5
224
330
1F
100
AcDbEntity
  8
SLD-0
100
AcDbMText
 10
95.2714995146
 20
587.1060685756
 30
0.0
 40
2.2000000477
 41
0.0
 71
     1
 72
     1
  1
2
  7
SLDTEXTSTYLE9
 73
     1
 44
1.0
  0
MTEXT
  5
225
330
1F
100
AcDbEntity
  8
SLD-0
100
AcDbMText
 10
445.1568754911
 20
587.1060685756
 30
0.0
 40
2.2000000477
 41
0.0
 71
     1
 72
     1
  1
9
  7
SLDTEXTSTYLE9
 73
     1
 44
1.0
  0
MTEXT
  5
226
330
1F
100
AcDbEntity
  8
SLD-0
100
AcDbMText
 10
495.1568754911
 20
587.1060685756
 30
0.0
 40
2.2000000477
 41
0.0
 71
     1
 72
     1
  1
10
  7
SLDTEXTSTYLE10
 73
     1
 44
1.0
  0
MTEXT
  5
227
330
1F
100
AcDbEntity
  8
SLD-0
100
AcDbMText
 10
545.1568754911
 20
587.1060685756
 30
0.0
 40
2.2000000477
 41
0.0
 71
     1
 72
     1
  1
11
  7
SLDTEXTSTYLE10
 73
     1
 44
1.0
  0
MTEXT
  5
228
330
1F
100
AcDbEntity
  8
SLD-0
100
AcDbMText
 10
595.1568907499
 20
587.1060685756
 30
0.0
 40
2.2000000477
 41
0.0
 71
     1
 72
     1
  1
12
  7
SLDTEXTSTYLE10
 73
     1
 44
1.0
  0
MTEXT
  5
229
330
1F
100
AcDbEntity
  8
SLD-0
100
AcDbMText
 10
645.1568907499
 20
587.1060685756
 30
0.0
 40
2.2000000477
 41
0.0
 71
     1
 72
     1
  1
13
  7
SLDTEXTSTYLE10
 73
     1
 44
1.0
  0
MTEXT
  5
22A
330
1F
100
AcDbEntity
  8
SLD-0
100
AcDbMText
 10
695.1568907499
 20
587.1060685756
 30
0.0
 40
2.2000000477
 41
0.0
 71
     1
 72
     1
  1
14
  7
SLDTEXTSTYLE10
 73
     1
 44
1.0
  0
MTEXT
  5
22B
330
1F
100
AcDbEntity
  8
SLD-0
100
AcDbMText
 10
745.1568831205
 20
587.1060685756
 30
0.0
 40
2.2000000477
 41
0.0
 71
     1
 72
     1
  1
15
  7
SLDTEXTSTYLE10
 73
     1
 44
1.0
  0
MTEXT
  5
22C
330
1F
100
AcDbEntity
  8
SLD-0
100
AcDbMText
 10
18.3307646513
 20
587.2608537318
 30
0.0
 40
2.2000000477
 41
0.0
 71
     1
 72
     1
  1
A
  7
SLDTEXTSTYLE9
 73
     1
 44
1.0
  0
MTEXT
  5
22D
330
1F
100
AcDbEntity
  8
SLD-0
100
AcDbMText
 10
18.3307646513
 20
324.7608537318
 30
0.0
 40
2.2000000477
 41
0.0
 71
     1
 72
     1
  1
F
  7
SLDTEXTSTYLE9
 73
     1
 44
1.0
  0
MTEXT
  5
22E
330
1F
100
AcDbEntity
  8
SLD-0
100
AcDbMText
 10
18.3307646513
 20
377.2608537318
 30
0.0
 40
2.2000000477
 41
0.0
 71
     1
 72
     1
  1
E
  7
SLDTEXTSTYLE9
 73
     1
 44
1.0
  0
MTEXT
  5
22F
330
1F
100
AcDbEntity
  8
SLD-0
100
AcDbMText
 10
18.3307646513
 20
429.7608537318
 30
0.0
 40
2.2000000477
 41
0.0
 71
     1
 72
     1
  1
D
  7
SLDTEXTSTYLE9
 73
     1
 44
1.0
  0
MTEXT
  5
230
330
1F
100
AcDbEntity
  8
SLD-0
100
AcDbMText
 10
18.3307646513
 20
482.2608537318
 30
0.0
 40
2.2000000477
 41
0.0
 71
     1
 72
     1
  1
C
  7
SLDTEXTSTYLE9
 73
     1
 44
1.0
  0
MTEXT
  5
231
330
1F
100
AcDbEntity
  8
SLD-0
100
AcDbMText
 10
18.3307646513
 20
534.7608537318
 30
0.0
 40
2.2000000477
 41
0.0
 71
     1
 72
     1
  1
B
  7
SLDTEXTSTYLE9
 73
     1
 44
1.0
  0
MTEXT
  5
232
330
1F
100
AcDbEntity
  8
SLD-0
100
AcDbMText
 10
18.3307646513
 20
271.8310441615
 30
0.0
 40
2.2000000477
 41
0.0
 71
     1
 72
     1
  1
G
  7
SLDTEXTSTYLE9
 73
     1
 44
1.0
  0
MTEXT
  5
233
330
1F
100
AcDbEntity
  8
SLD-0
100
AcDbMText
 10
18.3307646513
 20
219.3310594203
 30
0.0
 40
2.2000000477
 41
0.0
 71
     1
 72
     1
  1
H
  7
SLDTEXTSTYLE9
 73
     1
 44
1.0
  0
MTEXT
  5
234
330
1F
100
AcDbEntity
  8
SLD-0
100
AcDbMText
 10
18.3307646513
 20
166.8310594203
 30
0.0
 40
2.2000000477
 41
0.0
 71
     1
 72
     1
  1
I
  7
SLDTEXTSTYLE9
 73
     1
 44
1.0
  0
MTEXT
  5
235
330
1F
100
AcDbEntity
  8
SLD-0
100
AcDbMText
 10
18.3307646513
 20
114.3310517909
 30
0.0
 40
2.2000000477
 41
0.0
 71
     1
 72
     1
  1
J
  7
SLDTEXTSTYLE9
 73
     1
 44
1.0
  0
MTEXT
  5
236
330
1F
100
AcDbEntity
  8
SLD-0
100
AcDbMText
 10
805.0060856557
 20
24.4282709641
 30
0.0
 40
3.175
 41
0.0
 71
     1
 72
     1
  1
1:1
  7
SLDTEXTSTYLE2
 73
     1
 44
1.0
  0
MTEXT
  5
237
330
1F
100
AcDbEntity
  8
SLD-0
100
AcDbMText
 10
813.0284851223
 20
7.2664797125
 30
0.0
 40
2.1166666667
 41
0.0
 71
     1
 72
     1
  1
Ver1.4
  7
SLDTEXTSTYLE8
 73
     1
 44
1.0
  0
MTEXT
  5
238
330
1F
100
AcDbEntity
  8
SLD-0
100
AcDbMText
 10
811.4113700739
 20
36.0369545419
 30
0.0
 40
3.175
 41
0.0
 71
     1
 72
     1
  1
1/2
  7
SLDTEXTSTYLE2
 73
     1
 44
1.0
  0
MTEXT
  5
239
330
1F
100
AcDbEntity
  8
SLD-0
 62
     7
100
AcDbMText
 10
821.7283346796
 20
-8.9028291849
 30
0.0
 40
3.175
 41
0.0
 71
     1
 72
     1
  1
1
  7
SLDTEXTSTYLE2
 73
     1
 44
1.0
  0
MTEXT
  5
23A
330
1F
100
AcDbEntity
  8
SLD-0
 62
     7
100
AcDbMText
 10
821.7283346796
 20
-15.0027355628
 30
0.0
 40
3.175
 41
0.0
 71
     1
 72
     1
  1
1
  7
SLDTEXTSTYLE2
 73
     1
 44
1.0
  0
MTEXT
  5
23B
330
1F
100
AcDbEntity
  8
SLD-0
 62
     7
100
AcDbMText
 10
821.7283346796
 20
-21.3564603635
 30
0.0
 40
3.175
 41
0.0
 71
     1
 72
     1
  1
1
  7
SLDTEXTSTYLE2
 73
     1
 44
1.0
  0
MTEXT
  5
23C
330
1F
100
AcDbEntity
  8
SLD-0
 62
     7
100
AcDbMText
 10
803.0329663511
 20
-8.9028291849
 30
0.0
 40
3.175
 41
0.0
 71
     1
 72
     1
  1
çwì¸ïi
  7
SLDTEXTSTYLE2
 73
     1
 44
1.0
  0
MTEXT
  5
23D
330
1F
100
AcDbEntity
  8
SLD-0
 62
     7
100
AcDbMText
 10
803.0329663511
 20
-15.0027355628
 30
0.0
 40
3.175
 41
0.0
 71
     1
 72
     1
  1
çwì¸ïi
  7
SLDTEXTSTYLE2
 73
     1
 44
1.0
  0
MTEXT
  5
23E
330
1F
100
AcDbEntity
  8
SLD-0
 62
     7
100
AcDbMText
 10
803.064785631
 20
-21.3564603635
 30
0.0
 40
3.175
 41
0.0
 71
     1
 72
     1
  1
çwì¸ïi
  7
SLDTEXTSTYLE2
 73
     1
 44
1.0
  0
MTEXT
  5
23F
330
1F
100
AcDbEntity
  8
SLD-0
 62
     7
100
AcDbMText
 10
762.5440603701
 20
-21.575395753
 30
0.0
 40
3.175
 41
0.0
 71
     1
 72
     1
  1
€Ø∂∏±≈¬∑ŒﬁŸƒ
  7
SLDTEXTSTYLE2
 73
     1
 44
1.0
  0
MTEXT
  5
240
330
1F
100
AcDbEntity
  8
SLD-0
 62
     7
100
AcDbMText
 10
762.5658655076
 20
-15.5992697038
 30
0.0
 40
3.175
 41
0.0
 71
     1
 72
     1
  1
À◊ªﬁ∂ﬁ»
  7
SLDTEXTSTYLE2
 73
     1
 44
1.0
  0
MTEXT
  5
241
330
1F
100
AcDbEntity
  8
SLD-0
 62
     7
100
AcDbMText
 10
762.5658655076
 20
-8.9028291849
 30
0.0
 40
3.175
 41
0.0
 71
     1
 72
     1
  1
 ﬁ»ªﬁ∂ﬁ»
  7
SLDTEXTSTYLE2
 73
     1
 44
1.0
  0
MTEXT
  5
242
330
1F
100
AcDbEntity
  8
SLD-0
100
AcDbMText
 10
711.0343266837
 20
-8.0608686483
 30
0.0
 40
5.2916666667
 41
0.0
 71
     1
 72
     1
  1
A52-104010
  7
SLDTEXTSTYLE2
 73
     1
 44
1.0
  0
MTEXT
  5
243
330
1F
100
AcDbEntity
  8
SLD-0
100
AcDbMText
 10
711.0424619527
 20
-14.0855685538
 30
0.0
 40
5.2916666667
 41
0.0
 71
     1
 72
     1
  1
A51-104008
  7
SLDTEXTSTYLE2
 73
     1
 44
1.0
  0
MTEXT
  5
244
330
1F
100
AcDbEntity
  8
SLD-0
100
AcDbMText
 10
711.0424619527
 20
-20.0557007846
 30
0.0
 40
5.2916666667
 41
0.0
 71
     1
 72
     1
  1
A11-004016
  7
SLDTEXTSTYLE2
 73
     1
 44
1.0
  0
MTEXT
  5
245
330
1F
100
AcDbEntity
  8
SLD-0
100
AcDbMText
 10
710.9610882833
 20
-45.8125239716
 30
0.0
 40
5.2916666667
 41
0.0
 71
     1
 72
     1
  1
A11-005016
  7
SLDTEXTSTYLE2
 73
     1
 44
1.0
  0
MTEXT
  5
246
330
1F
100
AcDbEntity
  8
SLD-0
100
AcDbMText
 10
710.9610882833
 20
-39.8423917408
 30
0.0
 40
5.2916666667
 41
0.0
 71
     1
 72
     1
  1
A51-105010
  7
SLDTEXTSTYLE2
 73
     1
 44
1.0
  0
MTEXT
  5
247
330
1F
100
AcDbEntity
  8
SLD-0
100
AcDbMText
 10
710.9529530144
 20
-33.8176918353
 30
0.0
 40
5.2916666667
 41
0.0
 71
     1
 72
     1
  1
A52-105013
  7
SLDTEXTSTYLE2
 73
     1
 44
1.0
  0
MTEXT
  5
248
330
1F
100
AcDbEntity
  8
SLD-0
 62
     7
100
AcDbMText
 10
762.4844918383
 20
-34.6596523719
 30
0.0
 40
3.175
 41
0.0
 71
     1
 72
     1
  1
 ﬁ»ªﬁ∂ﬁ»
  7
SLDTEXTSTYLE2
 73
     1
 44
1.0
  0
MTEXT
  5
249
330
1F
100
AcDbEntity
  8
SLD-0
 62
     7
100
AcDbMText
 10
762.4844918383
 20
-41.3560928907
 30
0.0
 40
3.175
 41
0.0
 71
     1
 72
     1
  1
À◊ªﬁ∂ﬁ»
  7
SLDTEXTSTYLE2
 73
     1
 44
1.0
  0
MTEXT
  5
24A
330
1F
100
AcDbEntity
  8
SLD-0
 62
     7
100
AcDbMText
 10
762.4626867007
 20
-47.33221894
 30
0.0
 40
3.175
 41
0.0
 71
     1
 72
     1
  1
€Ø∂∏±≈¬∑ŒﬁŸƒ
  7
SLDTEXTSTYLE2
 73
     1
 44
1.0
  0
MTEXT
  5
24B
330
1F
100
AcDbEntity
  8
SLD-0
 62
     7
100
AcDbMText
 10
802.9693220315
 20
-47.1132835505
 30
0.0
 40
3.175
 41
0.0
 71
     1
 72
     1
  1
çwì¸ïi
  7
SLDTEXTSTYLE2
 73
     1
 44
1.0
  0
MTEXT
  5
24C
330
1F
100
AcDbEntity
  8
SLD-0
 62
     7
100
AcDbMText
 10
802.9375027517
 20
-40.7595587498
 30
0.0
 40
3.175
 41
0.0
 71
     1
 72
     1
  1
çwì¸ïi
  7
SLDTEXTSTYLE2
 73
     1
 44
1.0
  0
MTEXT
  5
24D
330
1F
100
AcDbEntity
  8
SLD-0
 62
     7
100
AcDbMText
 10
802.9375027517
 20
-34.6596523719
 30
0.0
 40
3.175
 41
0.0
 71
     1
 72
     1
  1
çwì¸ïi
  7
SLDTEXTSTYLE2
 73
     1
 44
1.0
  0
MTEXT
  5
24E
330
1F
100
AcDbEntity
  8
SLD-0
 62
     7
100
AcDbMText
 10
821.7198704551
 20
-47.2661284458
 30
0.0
 40
3.175
 41
0.0
 71
     1
 72
     1
  1
1
  7
SLDTEXTSTYLE2
 73
     1
 44
1.0
  0
MTEXT
  5
24F
330
1F
100
AcDbEntity
  8
SLD-0
 62
     7
100
AcDbMText
 10
821.7084090333
 20
-40.8587341012
 30
0.0
 40
3.175
 41
0.0
 71
     1
 72
     1
  1
1
  7
SLDTEXTSTYLE2
 73
     1
 44
1.0
  0
MTEXT
  5
250
330
1F
100
AcDbEntity
  8
SLD-0
 62
     7
100
AcDbMText
 10
821.783303748
 20
-34.6596523719
 30
0.0
 40
3.175
 41
0.0
 71
     1
 72
     1
  1
1
  7
SLDTEXTSTYLE2
 73
     1
 44
1.0
  0
MTEXT
  5
251
330
1F
100
AcDbEntity
  8
SLD-0
 62
     7
100
AcDbMText
 10
821.6846375944
 20
-65.6320791955
 30
0.0
 40
3.175
 41
0.0
 71
     1
 72
     1
  1
1
  7
SLDTEXTSTYLE2
 73
     1
 44
1.0
  0
MTEXT
  5
252
330
1F
100
AcDbEntity
  8
SLD-0
 62
     7
100
AcDbMText
 10
821.5646146215
 20
-71.8311609248
 30
0.0
 40
3.175
 41
0.0
 71
     1
 72
     1
  1
1
  7
SLDTEXTSTYLE2
 73
     1
 44
1.0
  0
MTEXT
  5
253
330
1F
100
AcDbEntity
  8
SLD-0
 62
     7
100
AcDbMText
 10
821.5760760433
 20
-78.2385552694
 30
0.0
 40
3.175
 41
0.0
 71
     1
 72
     1
  1
1
  7
SLDTEXTSTYLE2
 73
     1
 44
1.0
  0
MTEXT
  5
254
330
1F
100
AcDbEntity
  8
SLD-0
 62
     7
100
AcDbMText
 10
803.1353336865
 20
-65.6320791955
 30
0.0
 40
3.175
 41
0.0
 71
     1
 72
     1
  1
çwì¸ïi
  7
SLDTEXTSTYLE2
 73
     1
 44
1.0
  0
MTEXT
  5
255
330
1F
100
AcDbEntity
  8
SLD-0
 62
     7
100
AcDbMText
 10
803.1353336865
 20
-71.7319855733
 30
0.0
 40
3.175
 41
0.0
 71
     1
 72
     1
  1
çwì¸ïi
  7
SLDTEXTSTYLE2
 73
     1
 44
1.0
  0
MTEXT
  5
256
330
1F
100
AcDbEntity
  8
SLD-0
 62
     7
100
AcDbMText
 10
803.1671529664
 20
-78.085710374
 30
0.0
 40
3.175
 41
0.0
 71
     1
 72
     1
  1
çwì¸ïi
  7
SLDTEXTSTYLE2
 73
     1
 44
1.0
  0
MTEXT
  5
257
330
1F
100
AcDbEntity
  8
SLD-0
 62
     7
100
AcDbMText
 10
762.6464277055
 20
-78.3046457635
 30
0.0
 40
3.175
 41
0.0
 71
     1
 72
     1
  1
€Ø∂∏±≈¬∑ŒﬁŸƒ
  7
SLDTEXTSTYLE2
 73
     1
 44
1.0
  0
MTEXT
  5
258
330
1F
100
AcDbEntity
  8
SLD-0
 62
     7
100
AcDbMText
 10
762.668232843
 20
-72.3285197143
 30
0.0
 40
3.175
 41
0.0
 71
     1
 72
     1
  1
À◊ªﬁ∂ﬁ»
  7
SLDTEXTSTYLE2
 73
     1
 44
1.0
  0
MTEXT
  5
259
330
1F
100
AcDbEntity
  8
SLD-0
 62
     7
100
AcDbMText
 10
762.668232843
 20
-65.6320791955
 30
0.0
 40
3.175
 41
0.0
 71
     1
 72
     1
  1
 ﬁ»ªﬁ∂ﬁ»
  7
SLDTEXTSTYLE2
 73
     1
 44
1.0
  0
MTEXT
  5
25A
330
1F
100
AcDbEntity
  8
SLD-0
100
AcDbMText
 10
710.8418479161
 20
-64.7901186589
 30
0.0
 40
5.2916666667
 41
0.0
 71
     1
 72
     1
  1
A52-106015
  7
SLDTEXTSTYLE2
 73
     1
 44
1.0
  0
MTEXT
  5
25B
330
1F
100
AcDbEntity
  8
SLD-0
100
AcDbMText
 10
710.8358932549
 20
-70.8148185643
 30
0.0
 40
5.2916666667
 41
0.0
 71
     1
 72
     1
  1
A51-106016
  7
SLDTEXTSTYLE2
 73
     1
 44
1.0
  0
MTEXT
  5
25C
330
1F
100
AcDbEntity
  8
SLD-0
100
AcDbMText
 10
710.8358932549
 20
-76.7849507952
 30
0.0
 40
5.2916666667
 41
0.0
 71
     1
 72
     1
  1
A11-006016
  7
SLDTEXTSTYLE2
 73
     1
 44
1.0
  0
MTEXT
  5
25D
330
1F
100
AcDbEntity
  8
SLD-0
100
AcDbMText
 10
711.0717502063
 20
-109.500499681
 30
0.0
 40
5.2916666667
 41
0.0
 71
     1
 72
     1
  1
A11-008016
  7
SLDTEXTSTYLE2
 73
     1
 44
1.0
  0
MTEXT
  5
25E
330
1F
100
AcDbEntity
  8
SLD-0
100
AcDbMText
 10
711.0717502063
 20
-103.5303674501
 30
0.0
 40
5.2916666667
 41
0.0
 71
     1
 72
     1
  1
A51-108020
  7
SLDTEXTSTYLE2
 73
     1
 44
1.0
  0
MTEXT
  5
25F
330
1F
100
AcDbEntity
  8
SLD-0
100
AcDbMText
 10
711.0636149374
 20
-97.5056675447
 30
0.0
 40
5.2916666667
 41
0.0
 71
     1
 72
     1
  1
A52-108020
  7
SLDTEXTSTYLE2
 73
     1
 44
1.0
  0
MTEXT
  5
260
330
1F
100
AcDbEntity
  8
SLD-0
 62
     7
100
AcDbMText
 10
762.5810638312
 20
-98.3476280813
 30
0.0
 40
3.175
 41
0.0
 71
     1
 72
     1
  1
 ﬁ»ªﬁ∂ﬁ»
  7
SLDTEXTSTYLE2
 73
     1
 44
1.0
  0
MTEXT
  5
261
330
1F
100
AcDbEntity
  8
SLD-0
 62
     7
100
AcDbMText
 10
762.5810638312
 20
-105.0440686001
 30
0.0
 40
3.175
 41
0.0
 71
     1
 72
     1
  1
À◊ªﬁ∂ﬁ»
  7
SLDTEXTSTYLE2
 73
     1
 44
1.0
  0
MTEXT
  5
262
330
1F
100
AcDbEntity
  8
SLD-0
 62
     7
100
AcDbMText
 10
762.5592586937
 20
-111.0201946493
 30
0.0
 40
3.175
 41
0.0
 71
     1
 72
     1
  1
€Ø∂∏±≈¬∑ŒﬁŸƒ
  7
SLDTEXTSTYLE2
 73
     1
 44
1.0
  0
MTEXT
  5
263
330
1F
100
AcDbEntity
  8
SLD-0
 62
     7
100
AcDbMText
 10
803.0799839546
 20
-110.8012592598
 30
0.0
 40
3.175
 41
0.0
 71
     1
 72
     1
  1
çwì¸ïi
  7
SLDTEXTSTYLE2
 73
     1
 44
1.0
  0
MTEXT
  5
264
330
1F
100
AcDbEntity
  8
SLD-0
 62
     7
100
AcDbMText
 10
803.0481646747
 20
-104.4475344591
 30
0.0
 40
3.175
 41
0.0
 71
     1
 72
     1
  1
çwì¸ïi
  7
SLDTEXTSTYLE2
 73
     1
 44
1.0
  0
MTEXT
  5
265
330
1F
100
AcDbEntity
  8
SLD-0
 62
     7
100
AcDbMText
 10
803.0481646747
 20
-98.3476280813
 30
0.0
 40
3.175
 41
0.0
 71
     1
 72
     1
  1
çwì¸ïi
  7
SLDTEXTSTYLE2
 73
     1
 44
1.0
  0
MTEXT
  5
266
330
1F
100
AcDbEntity
  8
SLD-0
 62
     7
100
AcDbMText
 10
821.8040035034
 20
-110.9541041551
 30
0.0
 40
3.175
 41
0.0
 71
     1
 72
     1
  1
1
  7
SLDTEXTSTYLE2
 73
     1
 44
1.0
  0
MTEXT
  5
267
330
1F
100
AcDbEntity
  8
SLD-0
 62
     7
100
AcDbMText
 10
821.7925420815
 20
-104.5467098105
 30
0.0
 40
3.175
 41
0.0
 71
     1
 72
     1
  1
1
  7
SLDTEXTSTYLE2
 73
     1
 44
1.0
  0
MTEXT
  5
268
330
1F
100
AcDbEntity
  8
SLD-0
 62
     7
100
AcDbMText
 10
821.5788691992
 20
-98.3476280813
 30
0.0
 40
3.175
 41
0.0
 71
     1
 72
     1
  1
1
  7
SLDTEXTSTYLE2
 73
     1
 44
1.0
  0
MTEXT
  5
269
330
1F
100
AcDbEntity
  8
SLD-0
 62
     7
100
AcDbMText
 10
888.6237095684
 20
-34.0458075544
 30
0.0
 40
2.38125
 41
0.0
 71
     1
 72
     1
  1
Ã◊›ºﬁ¬∑€Ø∂∏±≈¬∑Œﬁ¿›ŒﬁŸƒ
  7
SLDTEXTSTYLE2
 73
     1
 44
1.0
  0
MTEXT
  5
26A
330
1F
100
AcDbEntity
  8
SLD-0
100
AcDbMText
 10
837.5405628646
 20
-31.8703111045
 30
0.0
 40
5.2916666667
 41
0.0
 71
     1
 72
     1
  1
FBC006012S-2
  7
SLDTEXTSTYLE2
 73
     1
 44
1.0
  0
MTEXT
  5
26B
330
1F
100
AcDbEntity
  8
SLD-0
 62
     7
100
AcDbMText
 10
929.562886543
 20
-33.1710706833
 30
0.0
 40
3.175
 41
0.0
 71
     1
 72
     1
  1
çwì¸ïi
  7
SLDTEXTSTYLE2
 73
     1
 44
1.0
  0
MTEXT
  5
26C
330
1F
100
AcDbEntity
  8
SLD-0
 62
     7
100
AcDbMText
 10
948.2264355915
 20
-33.1710706833
 30
0.0
 40
3.175
 41
0.0
 71
     1
 72
     1
  1
1
  7
SLDTEXTSTYLE2
 73
     1
 44
1.0
  0
MTEXT
  5
26D
330
1F
100
AcDbEntity
  8
SLD-0
 62
     7
100
AcDbMText
 10
888.6237095684
 20
-21.940562715
 30
0.0
 40
2.38125
 41
0.0
 71
     1
 72
     1
  1
Ã◊›ºﬁ¬∑€Ø∂∏±≈¬∑Œﬁ¿›ŒﬁŸƒ
  7
SLDTEXTSTYLE2
 73
     1
 44
1.0
  0
MTEXT
  5
26E
330
1F
100
AcDbEntity
  8
SLD-0
100
AcDbMText
 10
837.7370766322
 20
-20.1486588349
 30
0.0
 40
5.2916666667
 41
0.0
 71
     1
 72
     1
  1
FBC006012G-2
  7
SLDTEXTSTYLE2
 73
     1
 44
1.0
  0
MTEXT
  5
26F
330
1F
100
AcDbEntity
  8
SLD-0
 62
     7
100
AcDbMText
 10
929.7275810307
 20
-21.0658258439
 30
0.0
 40
3.175
 41
0.0
 71
     1
 72
     1
  1
çwì¸ïi
  7
SLDTEXTSTYLE2
 73
     1
 44
1.0
  0
MTEXT
  5
270
330
1F
100
AcDbEntity
  8
SLD-0
 62
     7
100
AcDbMText
 10
948.4229493591
 20
-21.0658258439
 30
0.0
 40
3.175
 41
0.0
 71
     1
 72
     1
  1
1
  7
SLDTEXTSTYLE2
 73
     1
 44
1.0
  0
MTEXT
  5
271
330
1F
100
AcDbEntity
  8
SLD-0
100
AcDbMText
 10
837.5236608847
 20
-9.026676972
 30
0.0
 40
5.2916666667
 41
0.0
 71
     1
 72
     1
  1
FBC006012W
  7
SLDTEXTSTYLE2
 73
     1
 44
1.0
  0
MTEXT
  5
272
330
1F
100
AcDbEntity
  8
SLD-0
 62
     7
100
AcDbMText
 10
888.6237095684
 20
-10.7433743797
 30
0.0
 40
2.38125
 41
0.0
 71
     1
 72
     1
  1
Ã◊›ºﬁ¬∑€Ø∂∏±≈¬∑Œﬁ¿›ŒﬁŸƒ
  7
SLDTEXTSTYLE2
 73
     1
 44
1.0
  0
MTEXT
  5
273
330
1F
100
AcDbEntity
  8
SLD-0
 62
     7
100
AcDbMText
 10
929.522300552
 20
-9.8686375086
 30
0.0
 40
3.175
 41
0.0
 71
     1
 72
     1
  1
çwì¸ïi
  7
SLDTEXTSTYLE2
 73
     1
 44
1.0
  0
MTEXT
  5
274
330
1F
100
AcDbEntity
  8
SLD-0
 62
     7
100
AcDbMText
 10
948.2176688805
 20
-9.8686375086
 30
0.0
 40
3.175
 41
0.0
 71
     1
 72
     1
  1
1
  7
SLDTEXTSTYLE2
 73
     1
 44
1.0
  0
MTEXT
  5
275
330
1F
100
AcDbEntity
  8
SLD-0
 62
     7
100
AcDbMText
 10
793.8678965885
 20
18.386282777
 30
0.0
 40
2.6458333333
 41
0.0
 71
     1
 72
     1
  1
CAM
  7
SLDTEXTSTYLE2
 73
     1
 44
1.0
  0
MTEXT
  5
277
330
1F
100
AcDbEntity
  8
SLD-0
100
AcDbMText
 10
622.6547240258
 20
6.8344216355
 30
0.0
 40
2.1166666667
 41
0.0
 71
     1
 72
     1
  1
QRïiî‘ÅF   ê}éÌÅF
  7
SLDTEXTSTYLE46
 73
     1
 44
1.0
  0
MTEXT
  5
278
330
1F
100
AcDbEntity
  8
SLD-0
100
AcDbMText
 10
790.6000891224
 20
487.2439403887
 30
0.0
 40
3.175
 41
0.0
 71
     1
 72
     1
  1
¿ØÃﬂïîìhëïïsâ¬
  7
SLDTEXTSTYLE2
 73
     1
 44
1.0
  0
VIEWPORT
  5
279
330
1B
100
AcDbEntity
 67
     1
  8
0
100
AcDbViewport
 10
420.5
 20
297.0
 30
0.0
 40
889.778
 41
628.452
 68
     1
 69
     1
 12
420.5
 22
297.0
 13
0.0
 23
0.0
 14
10.0
 24
10.0
 15
10.0
 25
10.0
 16
0.0
 26
0.0
 36
1.0
 17
0.0
 27
0.0
 37
0.0
 42
50.0
 43
0.0
 44
0.0
 45
628.452
 50
0.0
 51
0.0
 72
   100
 90
   557152
  1

281
     0
 71
     1
 74
     0
110
0.0
120
0.0
130
0.0
111
1.0
121
0.0
131
0.0
112
0.0
122
1.0
132
0.0
 79
     0
146
0.0
  0
LINE
  5
27A
330
1B
100
AcDbEntity
 67
     1
  8
1
  6
Continuous
100
AcDbLine
 10
160.9973789644
 20
124.158126274
 30
0.0
 11
148.9973789644
 21
124.158126274
 31
0.0
  0
LINE
  5
27B
330
1B
100
AcDbEntity
 67
     1
  8
1
  6
Continuous
100
AcDbLine
 10
148.9973789644
 20
125.8365391205
 30
0.0
 11
160.9973789644
 21
125.8365391205
 31
0.0
  0
LINE
  5
27C
330
1B
100
AcDbEntity
 67
     1
  8
SLD-0
100
AcDbLine
 10
-175.0
 20
-130.0
 30
0.0
 11
175.0
 21
-130.0
 31
0.0
  0
LINE
  5
27D
330
1B
100
AcDbEntity
 67
     1
  8
SLD-0
100
AcDbLine
 10
185.0
 20
-120.0
 30
0.0
 11
185.0
 21
120.0
 31
0.0
  0
LINE
  5
27E
330
1B
100
AcDbEntity
 67
     1
  8
SLD-0
100
AcDbLine
 10
175.0
 20
130.0
 30
0.0
 11
-175.0
 21
130.0
 31
0.0
  0
LINE
  5
27F
330
1B
100
AcDbEntity
 67
     1
  8
SLD-0
100
AcDbLine
 10
-185.0
 20
120.0
 30
0.0
 11
-185.0
 21
-120.0
 31
0.0
  0
ARC
  5
280
330
1B
100
AcDbEntity
 67
     1
  8
1
  6
Continuous
100
AcDbCircle
 10
148.9973789644
 20
124.9973326973
 30
0.0
 40
0.8392064232204604
100
AcDbArc
 50
90.0
 51
270.0
  0
ARC
  5
281
330
1B
100
AcDbEntity
 67
     1
  8
1
  6
Continuous
100
AcDbCircle
 10
164.686899977
 20
-101.9538517691
 30
0.0
 40
2.863440399994743
100
AcDbArc
 50
93.492345
 51
180.037909
  0
ARC
  5
282
330
1B
100
AcDbEntity
 67
     1
  8
1
  6
Continuous
100
AcDbCircle
 10
169.9987035553
 20
-14.9921818803
 30
0.0
 40
90.06317537284524
100
AcDbArc
 50
266.5077483867
 51
273.4922516133
  0
ARC
  5
283
330
1B
100
AcDbEntity
 67
     1
  8
1
  6
Continuous
100
AcDbCircle
 10
175.3103500553
 20
-102.0299908531
 30
0.0
 40
2.863440399994378
100
AcDbArc
 50
273.4922410003
 51
359.801706
  0
ARC
  5
284
330
1B
100
AcDbEntity
 67
     1
  8
1
  6
Continuous
100
AcDbCircle
 10
148.1105130039
 20
-101.9358548529
 30
0.0
 40
30.06344034864472
100
AcDbArc
 50
359.8017056844
 51
359.962091
  0
ARC
  5
285
330
1B
100
AcDbEntity
 67
     1
  8
1
  6
Continuous
100
AcDbCircle
 10
175.3105069756
 20
-101.9538518529
 30
0.0
 40
2.863440423045839
100
AcDbArc
 50
359.9621005763
 51
86.507655
  0
ARC
  5
286
330
1B
100
AcDbEntity
 67
     1
  8
1
  6
Continuous
100
AcDbCircle
 10
169.9987029789
 20
-188.9919167995
 30
0.0
 40
90.06344048810635
100
AcDbArc
 50
86.5076549907
 51
93.4923443743
  0
ARC
  5
287
330
1B
100
AcDbEntity
 67
     1
  8
1
  6
Continuous
100
AcDbCircle
 10
164.6870570553
 20
-102.0299908531
 30
0.0
 40
2.863440399994456
100
AcDbArc
 50
180.198294
 51
266.5077589997
  0
ARC
  5
288
330
1B
100
AcDbEntity
 67
     1
  8
1
  6
Continuous
100
AcDbCircle
 10
191.8868939169
 20
-101.9358067015
 30
0.0
 40
30.06344032559326
100
AcDbArc
 50
180.0380015209
 51
180.1983860848
  0
ARC
  5
289
330
1B
100
AcDbEntity
 67
     1
  8
1
  6
Continuous
100
AcDbCircle
 10
160.9973789644
 20
124.9973326973
 30
0.0
 40
0.8392064232204604
100
AcDbArc
 50
270.0
 51
90.0
  0
ARC
  5
28A
330
1B
100
AcDbEntity
 67
     1
  8
SLD-0
100
AcDbCircle
 10
175.0
 20
-120.0
 30
0.0
 40
10.0
100
AcDbArc
 50
270.0
 51
0.0
  0
ARC
  5
28B
330
1B
100
AcDbEntity
 67
     1
  8
SLD-0
100
AcDbCircle
 10
175.0
 20
120.0
 30
0.0
 40
10.0
100
AcDbArc
 50
0.0
 51
90.0
  0
ARC
  5
28C
330
1B
100
AcDbEntity
 67
     1
  8
SLD-0
100
AcDbCircle
 10
-175.0
 20
120.0
 30
0.0
 40
10.0
100
AcDbArc
 50
90.0
 51
180.0
  0
ARC
  5
28D
330
1B
100
AcDbEntity
 67
     1
  8
SLD-0
100
AcDbCircle
 10
-175.0
 20
-120.0
 30
0.0
 40
10.0
100
AcDbArc
 50
180.0
 51
270.0
  0
DIMENSION
  5
28E
330
1B
100
AcDbEntity
 67
     1
  8
AM_5
100
AcDbDimension
  2
*D13
 10
154.9973789644
 20
102.1288449245
 30
0.0
 11
169.9986894822
 21
102.1288449245
 31
0.0
 70
   160
 71
     2
 42
-1.0
  3
SLDDIMSTYLE0
100
AcDbAlignedDimension
 13
185.0
 23
120.0
 33
0.0
 14
154.9973789644
 24
124.1581266973
 34
0.0
100
AcDbRotatedDimension
  0
DIMENSION
  5
29E
330
1B
100
AcDbEntity
 67
     1
  8
AM_5
100
AcDbDimension
  2
*D14
 10
198.9701087107
 20
124.9973326973
 30
0.0
 11
198.9701087107
 21
127.4986663486
 31
0.0
 70
   160
 71
     2
 42
-1.0
  3
SLDDIMSTYLE0
100
AcDbAlignedDimension
 13
175.0
 23
130.0
 33
0.0
 14
148.1581725412
 24
124.9973326973
 34
0.0
 50
90.0
100
AcDbRotatedDimension
  0
DIMENSION
  5
2AA
330
1B
100
AcDbEntity
 67
     1
  8
AM_5
100
AcDbDimension
  2
*D15
 10
241.1523012048
 20
130.0
 30
0.0
 11
241.1523012048
 21
0.0
 31
0.0
 70
   160
 71
     2
 42
-1.0
  3
SLDDIMSTYLE0
100
AcDbAlignedDimension
 13
175.0
 23
-130.0
 33
0.0
 14
175.0
 24
130.0
 34
0.0
 50
90.0
100
AcDbRotatedDimension
  0
DIMENSION
  5
2B4
330
1B
100
AcDbEntity
 67
     1
  8
AM_5
100
AcDbDimension
  2
*D16
 10
185.0
 20
-158.0982406556
 30
0.0
 11
0.0
 21
-158.0982406556
 31
0.0
 70
   160
 71
     2
 42
-1.0
  3
SLDDIMSTYLE0
100
AcDbAlignedDimension
 13
-185.0
 23
-120.0
 33
0.0
 14
185.0
 24
-120.0
 34
0.0
 50
0.0
100
AcDbRotatedDimension
  0
DIMENSION
  5
2BE
330
1B
100
AcDbEntity
 67
     1
  8
AM_5
100
AcDbDimension
  2
*D17
 10
169.9987035039
 20
-80.9567995442
 30
0.0
 11
177.499351752
 21
-80.9567995442
 31
0.0
 70
   160
 71
     2
 42
-1.0
  3
SLDDIMSTYLE0
100
AcDbAlignedDimension
 13
185.0
 23
-120.0
 33
0.0
 14
169.9987035039
 24
-105.0553572529
 34
0.0
100
AcDbRotatedDimension
  0
DIMENSION
  5
2C8
330
1B
100
AcDbEntity
 67
     1
  8
AM_5
100
AcDbDimension
  2
*D18
 10
150.2652413774
 20
-101.997823377
 30
0.0
 11
150.2652413774
 21
-115.9989116885
 31
0.0
 70
   160
 71
     2
 42
-1.0
  3
SLDDIMSTYLE0
100
AcDbAlignedDimension
 13
175.0
 23
-130.0
 33
0.0
 14
161.8235174706
 24
-101.997823377
 34
0.0
 50
90.0
100
AcDbRotatedDimension
  0
DIMENSION
  5
2D2
330
1B
100
AcDbEntity
 67
     1
  8
AM_5
100
AcDbDimension
  2
*D19
 10
192.7540943082
 20
-98.9284764529
 30
0.0
 11
192.7540943082
 21
-117.0575690358
 31
0.0
 70
   160
 71
     2
 42
-1.0
  3
SLDDIMSTYLE1
100
AcDbAlignedDimension
 13
169.9987035039
 23
-105.0553572529
 33
0.0
 14
169.9987030039
 24
-98.9284764529
 34
0.0
 50
90.0
100
AcDbRotatedDimension
  0
DIMENSION
  5
2DF
330
1B
100
AcDbEntity
 67
     1
  8
AM_5
100
AcDbDimension
  2
*D20
 10
139.7473789644
 20
124.1581266973
 30
0.0
 11
139.7473789644
 21
137.6615396973
 31
0.0
 70
   160
 71
     2
 42
-1.0
  3
SLDDIMSTYLE1
100
AcDbAlignedDimension
 13
154.9973789644
 23
125.8365396973
 33
0.0
 14
154.9973789644
 24
124.1581266973
 34
0.0
 50
90.0
100
AcDbRotatedDimension
  0
ENDSEC
  0
SECTION
  2
OBJECTS
  0
DICTIONARY
  5
C
330
0
100
AcDbDictionary
281
     1
  3
ACAD_GROUP
350
D
  3
ACAD_LAYOUT
350
1A
  3
ACAD_MLINESTYLE
350
17
  3
ACAD_PLOTSETTINGS
350
19
  3
ACAD_PLOTSTYLENAME
350
E
  0
DICTIONARY
  5
D
102
{ACAD_REACTORS
330
C
102
}
330
C
100
AcDbDictionary
281
     1
  0
DICTIONARY
  5
1A
102
{ACAD_REACTORS
330
C
102
}
330
C
100
AcDbDictionary
281
     1
  3
Model
350
22
  3
SW_Model_1
350
1E
  0
DICTIONARY
  5
17
102
{ACAD_REACTORS
330
C
102
}
330
C
100
AcDbDictionary
281
     1
  3
Standard
350
18
  0
DICTIONARY
  5
19
102
{ACAD_REACTORS
330
C
102
}
330
C
100
AcDbDictionary
281
     1
  0
ACDBDICTIONARYWDFLT
  5
E
102
{ACAD_REACTORS
330
C
102
}
330
C
100
AcDbDictionary
281
     1
  3
Normal
350
F
100
AcDbDictionaryWithDefault
340
F
  0
LAYOUT
  5
22
102
{ACAD_REACTORS
330
1A
102
}
330
1A
100
AcDbPlotSettings
  1

  2
none_device
  4

  6

 40
0.0
 41
0.0
 42
0.0
 43
0.0
 44
0.0
 45
0.0
 46
0.0
 47
0.0
 48
0.0
 49
0.0
140
0.0
141
0.0
142
1.0
143
1.0
 70
  1712
 72
     0
 73
     0
 74
     0
  7

 75
     0
147
1.0
148
0.0
149
0.0
100
AcDbLayout
  1
Model
 70
     1
 71
     0
 10
0.0
 20
0.0
 11
841.0
 21
594.0
 12
0.0
 22
0.0
 32
0.0
 14
0.0
 24
0.0
 34
0.0
 15
841.0
 25
594.0
 35
0.0
146
0.0
 13
0.0
 23
0.0
 33
0.0
 16
1.0
 26
0.0
 36
0.0
 17
0.0
 27
1.0
 37
0.0
 76
     0
330
1F
331
29
  0
LAYOUT
  5
1E
102
{ACAD_REACTORS
330
1A
102
}
330
1A
100
AcDbPlotSettings
  1

  2
none_device
  4
ISO_A1_(841.00_x_594.00_MM)
  6

 40
7.5
 41
20.0
 42
7.5
 43
20.0
 44
841.0
 45
594.0
 46
0.0
 47
0.0
 48
0.0
 49
0.0
140
0.0
141
0.0
142
1.0
143
1.0
 70
  4832
 72
     0
 73
     0
 74
     1
  7

 75
     0
147
1.0
148
0.0
149
0.0
100
AcDbLayout
  1
SW_Model_1
 70
     1
 71
     1
 10
0.0
 20
0.0
 11
841.0
 21
594.0
 12
0.0
 22
0.0
 32
0.0
 14
0.0
 24
0.0
 34
0.0
 15
841.0
 25
594.0
 35
0.0
146
0.0
 13
0.0
 23
0.0
 33
0.0
 16
1.0
 26
0.0
 36
0.0
 17
0.0
 27
1.0
 37
0.0
 76
     0
330
1B
331
279
  0
MLINESTYLE
  5
18
102
{ACAD_REACTORS
330
17
102
}
330
17
100
AcDbMlineStyle
  2
Standard
 70
     0
  3

 62
   256
 51
90.0
 52
90.0
 71
     2
 49
0.5
 62
   256
  6
BYLAYER
 49
-0.5
 62
   256
  6
BYLAYER
  0
ACDBPLACEHOLDER
  5
F
102
{ACAD_REACTORS
330
E
102
}
330
E
  0
ENDSEC
  0
EOF
